<svg width="30" height="25" fill="none" xmlns="http://www.w3.org/2000/svg"><path d="M24.508 16.15a20.68 20.68 0 01-2.596 1.587c-.845.437-1.694.814-2.524 1.145l1.394 3.504c.443 1.102 1.496 1.853 2.684 1.853h4.018c.128 0 .243-.1.313-.209a.401.401 0 00.028-.372l-3.317-7.509z" fill="url(#paint0_linear)"/><path d="M5.526 15.439c.655-.287 1.343-.525 2.008-.756 1.156-.4 2.339-.81 3.5-1.511l2.434-6.07a.642.642 0 01.6-.404c.264 0 .5.158.598.404l.624 1.554c.868-1.147 2.004-2.344 4.277-3.667l-.9-2.032a4.971 4.971 0 00-9.09.006L3.74 16.183c.213-.09.432-.18.653-.27.366-.151.745-.306 1.133-.475z" fill="url(#paint1_linear)"/><path d="M18.718 19.122l.01.003-.01-.003z" fill="url(#paint2_linear)"/><path d="M12.89 14.428c1.826-.845 2.612-2.438 2.192-4.293-.529.754-1.067 1.504-1.9 2.28-.523.489-1.056.89-1.59 1.227-.322.204-.645.386-.968.55-1.38.7-2.756 1.082-4.047 1.57.283-.04.57-.078.86-.116 1.943-.257 3.952-.523 5.454-1.218z" fill="url(#paint3_linear)"/><path d="M4.724 19.385c-.748 0-1.356.608-1.356 1.355a1.357 1.357 0 002.71 0c0-.747-.607-1.355-1.354-1.355z" fill="url(#paint4_linear)"/><path d="M28.768 4.583c-.365-.342-1.405-.82-2.985-.82-1.388 0-3.195.369-5.326 1.521a22.207 22.207 0 00-.608.344c-2.335 1.37-3.393 2.595-4.256 3.785l-.107.15c.33 1.042.337 2.045.01 2.93-.384 1.043-1.207 1.882-2.379 2.424-1.576.73-3.627 1.002-5.61 1.264-1.176.156-2.304.306-3.256.542-.32.133-.63.264-.926.402a9.872 9.872 0 00-.987.516c-.728.443-1.341.991-1.802 1.795a.8.8 0 00-.045.094 3.53 3.53 0 00.457 4.203c.083.09.989 1.122 2.58 1.122 1.226 0 2.151-.34 3.004-.71 1.724-.75 3.59-2.356 7.045-3.852 1.44-.623 3.129-1.138 4.906-1.812.215-.082.43-.165.647-.252 1.68-.67 3.42-1.506 5.09-2.73a17.782 17.782 0 002.532-2.25c4.26-4.58 2.713-8.011 2.016-8.666zM4.724 22.635a1.897 1.897 0 01-1.895-1.895c0-1.044.85-1.894 1.895-1.894 1.044 0 1.894.85 1.894 1.894 0 1.045-.85 1.895-1.894 1.895z" fill="url(#paint5_linear)"/><defs><linearGradient id="paint0_linear" x1="6.492" y1="35.924" x2="35.748" y2="11.2" gradientUnits="userSpaceOnUse"><stop stop-color="#06A752"/><stop offset=".252" stop-color="#009950"/><stop offset=".723" stop-color="#00864C"/><stop offset="1" stop-color="#00804B"/></linearGradient><linearGradient id="paint1_linear" x1="-5.77" y1="21.323" x2="23.421" y2="-3.346" gradientUnits="userSpaceOnUse"><stop stop-color="#06A752"/><stop offset=".252" stop-color="#009950"/><stop offset=".723" stop-color="#00864C"/><stop offset="1" stop-color="#00804B"/></linearGradient><linearGradient id="paint2_linear" x1="1.988" y1="33.264" x2="33.762" y2="6.408" gradientUnits="userSpaceOnUse"><stop stop-color="#06A752"/><stop offset=".252" stop-color="#009950"/><stop offset=".723" stop-color="#00864C"/><stop offset="1" stop-color="#00804B"/></linearGradient><linearGradient id="paint3_linear" x1="-2.325" y1="25.399" x2="26.866" y2=".73" gradientUnits="userSpaceOnUse"><stop stop-color="#06A752"/><stop offset=".252" stop-color="#009950"/><stop offset=".723" stop-color="#00864C"/><stop offset="1" stop-color="#00804B"/></linearGradient><linearGradient id="paint4_linear" x1="-1.685" y1="26.156" x2="27.506" y2="1.487" gradientUnits="userSpaceOnUse"><stop stop-color="#06A752"/><stop offset=".252" stop-color="#009950"/><stop offset=".723" stop-color="#00864C"/><stop offset="1" stop-color="#00804B"/></linearGradient><linearGradient id="paint5_linear" x1="-.187" y1="27.929" x2="29.005" y2="3.261" gradientUnits="userSpaceOnUse"><stop stop-color="#06A752"/><stop offset=".252" stop-color="#009950"/><stop offset=".723" stop-color="#00864C"/><stop offset="1" stop-color="#00804B"/></linearGradient></defs></svg>