<svg width="85" height="65" fill="none" xmlns="http://www.w3.org/2000/svg"><g clip-path="url(#clip0)" fill="#07874D"><path d="M70.3 20.2h-5.4v2.1h5.4c1.5 0 2.7 1.2 2.7 2.7v38H62.6v-3.5h4.7c1.2 0 2.1-.9 2.1-2.1v-4.7c0-.6-.2-1.1-.6-1.5-.4-.4-.9-.6-1.5-.6h-4.7v-3.5h4.7c1.2 0 2.1-.9 2.1-2.1v-4.7c0-.6-.2-1.1-.6-1.5-.4-.4-.9-.6-1.5-.6h-4.7v-3.5h4.7c1.2 0 2.1-.9 2.1-2.1v-4.7c0-.6-.2-1.1-.6-1.5-.4-.4-.9-.6-1.5-.6h-4.7v-9.7c0-2.7-2.2-4.9-4.9-4.9h-2.9c-.3-3-1.6-5.8-3.9-7.9C48.6 1.2 45.7 0 42.6 0c-3.1 0-6.1 1.2-8.3 3.3-2.2 2.1-3.6 4.9-3.9 7.9h-3c-2.7 0-4.9 2.2-4.9 4.9v4H15c-2.7 0-4.9 2.2-4.9 4.9v40.1h65V25c0-2.6-2.2-4.8-4.8-4.8zM22.6 28v4.5H18V28h4.6zm-4.7-2.1c-.5 0-1 .2-1.4.6l-.3.3c-.2.3-.4.7-.4 1.2v4.7c0 1.2.9 2.1 2.1 2.1h4.7v3.5h-5c-.5.1-.9.3-1.3.6-.1.1-.1.1-.1.2-.3.4-.5.8-.5 1.3v4.7c0 1.2.9 2.1 2.1 2.1h4.7v3.5h-4.7c-.5 0-1.1.2-1.5.6-.2.2-.3.3-.4.5-.2.3-.2.6-.2 1v4.7c0 1.2.9 2.1 2.1 2.1h4.7V63H12.3V25c0-1.5 1.2-2.7 2.7-2.7h7.6v3.5h-4.7v.1zm4.7 14.5v4.5H18v-4.5h4.6zm0 12.3v4.5H18v-4.5h4.6zM51 46.5V63h-7.3V46.5H51zm1.9-3.8v1.6H32.4v-1.6h20.5zM42.6 22.5c-5.6 0-10.1-4.5-10.1-10.1S37 2.3 42.6 2.3s10.1 4.5 10.1 10.1c.1 5.6-4.5 10.1-10.1 10.1zm-1.7 2c.2 0 .4.1.6.1.4 0 .8.1 1.2.1.4 0 .8 0 1.2-.1.2 0 .4 0 .6-.1 2.5-.4 4.8-1.4 6.6-3.2 2.2-2.1 3.6-4.9 3.9-7.9h2.9c1.5 0 2.7 1.2 2.7 2.7V63h-7.3V46.5c.5 0 1-.2 1.3-.5.4-.3.6-.8.6-1.3v-2.3c0-1-.8-1.8-1.8-1.8H32.1c-1 0-1.8.8-1.8 1.8v2.3c0 .5.2 1 .6 1.4.4.3.8.5 1.3.5v6.7h2.1v-6.7h7.3V63h-7.3v-5.6h-2.1V63h-7.4V16.2c0-1.5 1.2-2.7 2.7-2.7h3c.3 3 1.6 5.8 3.9 7.9 1.7 1.7 4 2.8 6.5 3.1zm21.7 32.8v-4.5h4.7v4.5h-4.7zm0-12.4v-4.5h4.7v4.5h-4.7zm0-12.3V28h4.7v4.5h-4.7v.1z"/><path d="M38.8 56.8c.6 0 1.1-.5 1.1-1.1v-1.9c0-.6-.5-1.1-1.1-1.1-.6 0-1.1.5-1.1 1.1v1.9c.1.6.5 1.1 1.1 1.1zm7.6 0c.6 0 1.1-.5 1.1-1.1v-1.9c0-.6-.5-1.1-1.1-1.1-.6 0-1.1.5-1.1 1.1v1.9c.1.6.5 1.1 1.1 1.1zM28.3 30.3V35c0 .5.2 1.1.6 1.5.1.1.1.1.2.1.4.3.8.5 1.3.5h8.4c1.2 0 2.1-.9 2.1-2.1v-4.7c0-1.2-.9-2.1-2.1-2.1h-8.4c-1.2 0-2.1.9-2.1 2.1zm2.1 4.6v-4.5h8.3v4.5h-8.3zM46.5 37h8.4c1.2 0 2.1-.9 2.1-2.1v-4.7c0-.6-.2-1.1-.6-1.5-.4-.4-.9-.6-1.5-.6h-8.4c-1.2 0-2.1.9-2.1 2.1v4.7c0 1.2.9 2.1 2.1 2.1zm.1-2.1v-4.5h8.2v4.5h-8.2zM45.1 5.2h-4.9v4.7h-4.7v4.9h4.7v4.7h4.9v-4.7h4.7V9.9h-4.7V5.2z"/></g><defs><clipPath id="clip0"><path fill="#fff" d="M0 0h85v65H0z"/></clipPath></defs></svg>