<svg width="85" height="65" fill="none" xmlns="http://www.w3.org/2000/svg"><g clip-path="url(#clip0)" fill="#07874D"><path d="M69.9 52.9l-11-11c-1.2-1.2-2.8-1.9-4.5-1.9-.4 0-.9 0-1.3.1-2.7-3.6-4.1-7.9-4.1-12.4 0-8.4-3.3-16.4-9.2-22.3C36.3 2 31.5 0 26.6 0 16.2 0 7.9 8.4 7.9 18.7c0 4.5 1.7 8.9 4.7 12.3l1.6-1.4c-6-6.8-5.3-17.3 1.5-23.3C22.2.5 32.1.9 38.2 7c5.5 5.5 8.6 13 8.6 20.8 0 4.5-2.7 8.6-6.9 10.4-.6.2-.8.9-.6 1.4 0 .1.1.1.1.2l1.1 1.7c.1.2.4.4.6.5 2.5.7 4.8 1.8 6.9 3.4-.2.9-.2 1.7 0 2.6l2.1-.4c-.3-1.4.1-2.8 1.1-3.8l.2-.2c1.6-1.6 4.1-1.6 5.7-.1-1.5.1-3 .8-4 1.8l-.1.1c-.5.5-1 1.2-1.3 1.9l2 .9c.2-.4.5-.9.8-1.2l.2-.2c1.6-1.6 4.2-1.6 5.9 0l1 1c-1.5.1-3 .7-4 1.8l-.2.2c-.2.2-.4.4-.5.6l1.7 1.3c.1-.1.2-.3.4-.4l.2-.2c1.6-1.6 4.1-1.6 5.7-.1-1.5.1-3 .8-4 1.8l-.3.2c-2.5 2.5-2.5 6.5 0 8.9l.2.2c2.5 2.5 6.5 2.5 8.9 0l.2-.2c2.5-2.5 2.5-6.5 0-9zM50 41.9l-.2.2c-.3.3-.6.7-.9 1.1-2.1-1.5-4.3-2.6-6.8-3.3l-.2-.3c2.5-1.3 4.5-3.4 5.7-5.9.7 2.6 1.9 5.1 3.4 7.3-.3.3-.7.6-1 .9zm18.4 18.5l-.2.2c-1.6 1.6-4.3 1.6-5.9 0l-.2-.2c-1.6-1.6-1.6-4.2 0-5.9l.2-.2c1.6-1.6 4.3-1.6 5.9 0l.2.2c1.6 1.6 1.6 4.2 0 5.9z"/><path d="M16.2 25.7l1.4-1.4 1.7 1.7-2.5 2.5 1.5 1.5 2.5-2.5 1.4 1.4 1.5-1.5-1.3-1.4 1.7-1.7 1.7 1.7-1.4 1.4 1.5 1.5 1.4-1.4 1.7 1.7-.3.3 1.5 1.5.3-.3 1.4 1.4 1.5-1.5-1.4-1.4 1.7-1.7 1.7 1.7-1.4 1.4 1.5 1.5 1.4-1.4 3.6 3.6 1.5-1.5-3.6-3.6 1.7-1.7 2.5 2.5 1.5-1.5-2.2-2.5 1.4-1.4-1.5-1.5-1.4 1.4-1.7-1.7 1.7-1.7 1.4 1.4 1.5-1.5-1.4-1.4 1.4-1.4-1.5-1.5-1.4 1.3-1.7-1.7 1.4-1.4-1.5-1.5-1.4 1.4-1.8-1.8 2.5-2.5L36.3 9l-2.5 2.5-1.7-1.7 1.4-1.4L32 6.8l-1.4 1.4-1.7-1.7 1.4-1.4-1.5-1.5L27.4 5 26 3.6l-1.5 1.5 1.4 1.4-1.7 1.7-2.5-2.5-1.5 1.5 2.5 2.5-1.7 1.7L18.4 9l-1.5 1.5 2.5 2.5-1.7 1.7-2.5-2.5-1.5 1.5 2.5 2.5-1.8 1.8-1.4-1.4-1.5 1.5 1.4 1.4-1.4 1.4 1.5 1.5 1.4-1.4 1.7 1.7-1.4 1.4 1.5 1.6zm4.7-1.2l-1.7-1.7 1.7-1.7 1.7 1.7-1.7 1.7zm9.7-3.3l-1.7-1.7 1.7-1.7 1.7 1.7-1.7 1.7zm3.2-.2l1.7 1.7-1.7 1.7-1.7-1.7 1.7-1.7zm-6.4-3l-1.7-1.7 1.7-1.7 1.7 1.7-1.7 1.7zm-1.6 1.5l-1.7 1.7-1.7-1.7 1.7-1.7 1.7 1.7zm-.2 3.3l1.7-1.7 1.7 1.7-1.7 1.7-1.7-1.7zm5 4.9L28.9 26l1.7-1.7 1.7 1.7-1.7 1.7zm8.2-1.7l-1.7 1.7-1.7-1.7 1.7-1.7 1.7 1.7zm0-6.5l-1.7 1.7-1.7-1.7 1.7-1.7 1.7 1.7zm-3.2-3.2L33.8 18l-1.7-1.7 1.7-1.7 1.8 1.7zM32.3 13l-1.7 1.7-1.7-1.7 1.7-1.7 1.7 1.7zm-4.9-5l1.7 1.7-1.7 1.7-1.7-1.7L27.4 8zm-3.3 3.3l1.7 1.7-1.7 1.7-1.7-1.7 1.7-1.7zm-3.2 3.2l1.7 1.7-1.7 1.8-1.7-1.7 1.7-1.8zm-5 5l1.7-1.7 1.7 1.7-1.7 1.7-1.7-1.7z"/><path d="M26.2 43.4c2.2-1.4 4.9-1.7 7.4-1l2.8.8c.5 1.4.7 2.9.7 4.4h2.2c0-9-7.3-16.2-16.2-16.2-9 0-16.2 7.3-16.2 16.2 0 9 7.3 16.2 16.2 16.2 3.3 0 6.6-1 9.3-2.9l-1.2-1.8c-1.4.9-2.9 1.6-4.4 2.1l-1.5-1.7c-2-2.3-3.2-5.3-3.2-8.4 0-1.5.4-3 1.1-4.3 1.8.7 3.5 1.5 5.1 2.5l4 2.5 1.2-1.8-4-2.5c-1.6-1-3.2-1.8-5-2.5.4-.6 1-1.1 1.7-1.6zm9-2.7l-1-.3c-3.1-.9-6.4-.5-9.2 1.2-1.1.7-2.1 1.6-2.9 2.6-.9-.3-1.9-.5-2.9-.7 2.3-3.7 5.5-6.7 9.2-8.7 3 1.1 5.3 3.2 6.8 5.9zm-9.4-6.8c-3.6 2.3-6.6 5.5-8.8 9.2-1-.1-1.9-.2-2.9-.2.7-2.3 1.1-4.6 1.3-7 3.1-2 6.8-2.7 10.4-2zM8.9 47.7c0-.8.1-1.6.2-2.4.6-.1 1.3-.2 1.9-.2-.6 1.5-1.3 2.9-2 4.3 0-.6 0-1.2-.1-1.7zm4.1-9.9c-.3 1.7-.6 3.4-1.2 5.1-.7 0-1.4.1-2.1.2.7-2.1 1.9-3.9 3.3-5.3zM9.7 52.3c1.5-2.3 2.7-4.8 3.7-7.3.8 0 1.7.1 2.5.1-1.9 3.9-2.8 8.3-2.7 12.6-1.5-1.4-2.7-3.3-3.5-5.4zM23.5 61l.6.7H23c-2.7 0-5.3-.7-7.5-2.2-.5-4.9.4-9.8 2.7-14.1.9.2 1.9.4 2.8.6-.8 1.6-1.2 3.3-1.2 5 0 3.7 1.3 7.2 3.7 10z"/><path d="M49 49.8c-1.3 0-2.6.4-3.8 1-3.6-2.1-8.3-.9-10.4 2.8-2.1 3.6-.9 8.3 2.8 10.4 2.3 1.4 5.2 1.4 7.6 0 3.6 2.1 8.3.9 10.4-2.8 2.1-3.6.9-8.3-2.8-10.4-1.1-.6-2.4-1-3.8-1zm5.4 7.1l-.3-.3c-1.6-1.6-4.3-1.6-5.9 0-.8.8-2 .8-2.8 0L44 55.2c1.2-2.7 4.4-4 7.1-2.8 1.9.8 3.1 2.6 3.3 4.5zm-13-4.9c.7 0 1.3.1 1.9.4-.9 1-1.5 2.3-1.8 3.6-.3.2-.6.4-.9.7-.8.8-2 .8-2.8 0l-1.4-1.4c.9-2 2.9-3.3 5-3.3zM36 57.9l.3.3c1.4 1.4 3.6 1.6 5.2.5.2 1.4.9 2.7 1.8 3.8-2.8 1.1-5.9-.3-7-3.1l-.3-1.5zm13 4.9c-2.8 0-5.1-2.2-5.4-4.9l.3.3c1.6 1.6 4.3 1.6 5.9 0 .8-.8 2-.8 2.8 0l1.4 1.4c-.9 2-2.8 3.2-5 3.2z"/></g><defs><clipPath id="clip0"><path fill="#fff" d="M0 0h85v65H0z"/></clipPath></defs></svg>