<svg width="65" height="65" fill="none" xmlns="http://www.w3.org/2000/svg"><path d="M60.131 20.056h-5.437v2.15h5.437a2.715 2.715 0 012.72 2.72V62.85H52.48v-3.54h4.716a2.087 2.087 0 002.087-2.075l.025-4.666a2.11 2.11 0 00-.607-1.48 2.038 2.038 0 00-1.467-.62H52.48v-3.49h4.716a2.086 2.086 0 002.087-2.073l.025-4.667a2.11 2.11 0 00-.607-1.48 2.038 2.038 0 00-1.467-.619H52.48V34.6h4.716a2.087 2.087 0 002.087-2.075l.025-4.666c0-.557-.215-1.075-.607-1.48a2.038 2.038 0 00-1.467-.62H52.48V16.06a4.879 4.879 0 00-4.87-4.868h-2.895a12.204 12.204 0 00-3.87-7.904A12.202 12.202 0 0032.5 0a12.2 12.2 0 00-8.346 3.288 12.233 12.233 0 00-3.87 7.904h-2.96a4.879 4.879 0 00-4.868 4.868v3.996H4.87A4.879 4.879 0 000 24.926V65h65V24.925a4.879 4.879 0 00-4.869-4.869zm-47.675 7.84v4.54h-4.59l-.026-4.54h4.616zm-4.691-2.149a2.04 2.04 0 00-1.43.582l-.037.038c-.101.1-.19.202-.266.328a2.1 2.1 0 00-.354 1.164l.025 4.666c0 1.151.936 2.074 2.087 2.074h4.654v3.541H7.752c-.05 0-.101 0-.152.013h-.05c-.48.05-.924.253-1.265.607-.05.05-.101.1-.14.151a2.03 2.03 0 00-.467 1.328l.025 4.667c0 1.15.936 2.074 2.087 2.074h4.654v3.49H7.752a2.06 2.06 0 00-1.467.62 2.033 2.033 0 00-.607 1.48l.025 4.665c0 1.151.936 2.074 2.087 2.074h4.654v3.541H2.137V24.925a2.715 2.715 0 012.719-2.719h7.588v3.541h-4.68c.013 0 0 0 0 0zm4.691 14.543v4.54h-4.59l-.026-4.54h4.616zm0 12.33v4.54h-4.59l-.026-4.54h4.616zm28.39-6.222V62.85h-7.271V46.398h7.271zm1.897-3.794v1.644H22.257v-1.644h20.486zM32.5 22.384c-5.577 0-10.117-4.54-10.117-10.117 0-5.577 4.54-10.117 10.117-10.117 5.577 0 10.117 4.54 10.117 10.117 0 5.576-4.54 10.116-10.117 10.116zm-1.733 2.023c.19.025.38.05.57.063.379.038.771.05 1.15.05.38 0 .772-.012 1.151-.05.19-.013.38-.038.57-.063a12.227 12.227 0 006.613-3.162 12.233 12.233 0 003.87-7.904h2.896a2.715 2.715 0 012.718 2.72v46.79h-7.334V46.41c.506 0 .986-.19 1.34-.532a1.76 1.76 0 00.557-1.302V42.3a1.835 1.835 0 00-1.834-1.834H21.915a1.835 1.835 0 00-1.833 1.834v2.276c0 .506.215.999.607 1.353a1.82 1.82 0 001.29.48v6.703h2.15v-6.715h7.27V62.85h-7.27v-5.564h-2.15v5.564H14.58V16.06a2.715 2.715 0 012.719-2.719h2.959a12.204 12.204 0 003.87 7.904c1.871 1.72 4.173 2.82 6.638 3.162zm21.714 32.752v-4.54h4.678l-.025 4.54h-4.653zm0-12.33v-4.54h4.678l-.025 4.54h-4.653zm0-12.38v-4.54h4.678l-.025 4.54h-4.653z" fill="#00864C"/><path d="M28.706 56.666c.594 0 1.075-.48 1.075-1.075v-1.947a1.074 1.074 0 10-2.15 0v1.947c0 .595.48 1.075 1.075 1.075zm7.589 0c.594 0 1.075-.48 1.075-1.075v-1.947a1.074 1.074 0 10-2.15 0v1.947c0 .595.48 1.075 1.075 1.075zM18.173 30.148l-.025 4.666c0 .544.214 1.088.607 1.48a2.096 2.096 0 001.454.62h8.422a2.09 2.09 0 002.087-2.087V30.16a2.09 2.09 0 00-2.087-2.087h-8.384a2.083 2.083 0 00-2.074 2.074zm2.124 4.616l.026-4.54h8.257v4.54h-8.283zm16.06 2.149h8.36c1.15 0 2.086-.935 2.086-2.073l.025-4.667a2.11 2.11 0 00-.607-1.48 2.038 2.038 0 00-1.467-.62H36.37a2.09 2.09 0 00-2.087 2.087v4.667a2.07 2.07 0 002.074 2.086zm.063-2.15v-4.54h8.246l-.026 4.54h-8.22zM34.942 5.109h-4.881v4.717h-4.717v4.881h4.717v4.717h4.881v-4.717h4.704V9.826h-4.704V5.109z" fill="#00864C"/></svg>