<svg width="85" height="65" fill="none" xmlns="http://www.w3.org/2000/svg"><g clip-path="url(#clip0)" fill="#07874D"><path d="M66.3 39.2h15.8v-2.9h-33v-2.9h18.6v-5.7c-3 0-5.8-.9-8.3-2.5l-4 4c-.6.6-1.5.6-2 0-.6-.6-.6-1.5 0-2l3.7-3.7-.4-.4-1.9-1.9-3.7 3.7c-.6.6-1.5.6-2 0-.6-.6-.6-1.5 0-2l3.7-3.7-2.3-2.3-3.7 3.7c-.6.6-1.5.6-2 0-.6-.6-.6-1.5 0-2l3.4-3.4c-.5-.2-1-.3-1.5-.3h-7.5c-1.4 0-2.8.7-3.6 1.9l-.1.1c-2 3-5.2 5.1-8.7 5.7-.5.1-1 .1-1.5.2.4.4.8.7 1.2 1.1l-2.1 2c-1.1-1.1-2.3-2.1-3.6-3L18 21.2c-1.7 3.3-2.5 7.1-2.3 10.8l-2.7.2c-.3-4.8.9-9.6 3.4-13.7.1-.2.3-.4.5-.5.5-.3 1.1-.3 1.5 0l1.2.8c4.8 2.6 10.7 1.1 13.7-3.4l.1-.1c1.3-2 3.6-3.2 6-3.2h7.4c1.9 0 3.7.8 5.1 2.1l7 7c2.5 2.5 5.8 3.9 9.4 3.9 6.5 0 12.7 3.3 16.3 8.7l.3.5c.2.2.2.5.2.8v5.7c0 .8-.6 1.4-1.4 1.4H66.4l-.1-3zm4.3-11.3v5.5h10.1c-2.6-2.9-6.2-4.9-10.1-5.5z"/><path d="M3.4 34.2c.4-.7 1.3-.9 2-.5l1.2.8c4.8 2.6 10.7 1.1 13.7-3.4l.1-.1c1.3-2 3.6-3.2 6-3.2h7.5c1.9 0 3.7.8 5.1 2.1l7 7c2.5 2.5 5.8 3.9 9.3 3.9 6.6 0 12.7 3.3 16.3 8.7l.3.5c.2.2.2.5.2.8v5.7c0 .8-.6 1.4-1.4 1.4H1.8c-.8 0-1.4-.6-1.4-1.4v-5.8c-1-5.8.1-11.6 3-16.5zM3 49.3h12.8c-1.2-4.4-4-8.2-7.8-10.6L5.2 37C3.3 40.7 2.5 45 3 49.3zm39-12.4l-3.7 3.7c-.6.6-1.5.6-2 0-.6-.6-.6-1.5 0-2l3.7-3.7-2.3-2.3-3.7 3.8c-.6.6-1.5.6-2 0-.6-.6-.6-1.5 0-2l3.4-3.4c-.5-.2-1-.3-1.5-.3h-7.5c-1.4 0-2.8.7-3.6 1.9l-.1.1c-2 3-5.2 5.1-8.7 5.7-.5.1-1 .1-1.5.2 3.1 2.8 5.3 6.6 6.2 10.7h36.1v-5.7c-3 0-5.8-.9-8.3-2.5l-4 4c-.6.6-1.5.6-2 0s-.6-1.5 0-2l3.7-3.7-.4-.4-1.8-2.1zm15.7 6.8v5.5h10.1c-2.6-2.9-6.2-4.9-10.1-5.5zM3.2 55h66v-2.9h-66V55z"/></g><defs><clipPath id="clip0"><path fill="#fff" d="M0 0h85v65H0z"/></clipPath></defs></svg>