<svg width="87" height="47" fill="none" xmlns="http://www.w3.org/2000/svg"><path d="M67.667 27.718H83.76v-2.921H50.112v-2.921h19.015v-5.857a16.241 16.241 0 01-8.506-2.574l-4.05 4.05a1.454 1.454 0 01-2.063 0 1.454 1.454 0 010-2.063l3.794-3.794c-.135-.136-.286-.256-.421-.391l-1.912-1.912-3.78 3.778a1.454 1.454 0 01-2.062 0 1.454 1.454 0 010-2.062l3.779-3.78-2.319-2.318-3.779 3.78a1.454 1.454 0 01-2.062 0 1.454 1.454 0 010-2.063l3.508-3.508a4.46 4.46 0 00-1.536-.271h-7.603a4.395 4.395 0 00-3.659 1.957l-.06.09a13.577 13.577 0 01-8.898 5.857c-.512.09-1.024.15-1.535.196.406.376.798.752 1.174 1.159l-2.138 2.002a18.476 18.476 0 00-3.659-3.01L18.525 9.38l-.045.015A21.623 21.623 0 0016.161 20.4l-2.92.151a24.541 24.541 0 013.447-13.957c.12-.21.286-.391.497-.527a1.444 1.444 0 011.55 0l1.22.768a10.717 10.717 0 0014.017-3.493l.06-.09A7.316 7.316 0 0140.115 0h7.573a7.33 7.33 0 015.18 2.138l7.09 7.091a13.365 13.365 0 009.546 3.945c6.67 0 12.902 3.342 16.606 8.898l.346.527c.166.24.241.526.241.813v5.856c0 .813-.662 1.46-1.46 1.46H67.682v-3.01h-.015zm4.381-11.503v5.646h10.268a17.121 17.121 0 00-10.268-5.646z" fill="#00864C"/><path d="M3.499 22.584a1.452 1.452 0 012.002-.497c.016 0 .016.015.03.015l1.22.768a10.72 10.72 0 0014.017-3.493l.06-.09a7.279 7.279 0 016.083-3.253h7.618c1.942 0 3.809.768 5.179 2.138l7.091 7.091a13.42 13.42 0 009.515 3.945 20.001 20.001 0 0116.637 8.898l.346.527c.166.24.241.527.241.813v5.826c0 .813-.662 1.46-1.46 1.46H1.858c-.813 0-1.46-.662-1.46-1.46v-5.72l-.046-.242A24.445 24.445 0 013.5 22.583zm-.406 15.371h13.023A18.328 18.328 0 008.15 27.16L5.336 25.4c-.015 0-.015-.015-.03-.015a21.663 21.663 0 00-2.213 12.571zM42.794 25.4l-3.779 3.779a1.454 1.454 0 01-2.062 0 1.454 1.454 0 010-2.063l3.779-3.779-2.319-2.318-3.779 3.779a1.454 1.454 0 01-2.062 0 1.454 1.454 0 010-2.063l3.508-3.508a4.459 4.459 0 00-1.536-.27h-7.618c-1.46 0-2.83.737-3.644 1.956l-.06.09a13.577 13.577 0 01-8.898 5.857c-.512.09-1.024.15-1.536.196a21.26 21.26 0 016.354 10.93h36.841V32.13a16.242 16.242 0 01-8.506-2.575l-4.05 4.05a1.454 1.454 0 01-2.063 0 1.454 1.454 0 010-2.062l3.794-3.794c-.135-.136-.286-.256-.421-.392L42.794 25.4zm16.095 6.91v5.646h10.268a17.01 17.01 0 00-10.268-5.645zm-55.6 11.503h67.298v-2.92H3.288v2.92z" fill="#00864C"/></svg>