<svg width="65" height="65" fill="none" xmlns="http://www.w3.org/2000/svg"><path d="M63.127 52.947l-11.02-11.02a6.277 6.277 0 00-4.467-1.855c-.433 0-.867.041-1.286.136a20.762 20.762 0 01-4.13-12.428 31.518 31.518 0 00-9.232-22.297A18.564 18.564 0 0019.765 0C9.45 0 1.07 8.394 1.07 18.696c0 4.549 1.652 8.935 4.657 12.347l1.625-1.435C1.327 22.77 2.003 12.32 8.854 6.295 15.406.542 25.289.853 31.462 7.026a29.368 29.368 0 018.597 20.768A11.172 11.172 0 0133.14 38.15c-.555.23-.813.867-.582 1.422l.08.162 1.084 1.72c.149.23.365.392.623.46a20.72 20.72 0 016.918 3.384 6.398 6.398 0 000 2.586l2.125-.447a4.173 4.173 0 011.124-3.79l.19-.19a4.138 4.138 0 015.74-.108 6.266 6.266 0 00-4.021 1.827l-.19.19a6.082 6.082 0 00-1.286 1.855l1.976.893a4.17 4.17 0 01.84-1.218l.19-.19a4.135 4.135 0 015.861 0l.975.975a6.262 6.262 0 00-4.034 1.827l-.19.19a5.85 5.85 0 00-.541.623l1.719 1.326a3.49 3.49 0 01.352-.406l.19-.19a4.138 4.138 0 015.74-.108 6.265 6.265 0 00-4.021 1.828l-.19.19a6.308 6.308 0 000 8.921l.19.19a6.308 6.308 0 008.921 0l.19-.19c2.477-2.464 2.477-6.457.013-8.935zM43.186 41.941l-.19.19a5.774 5.774 0 00-.88 1.11 22.918 22.918 0 00-6.769-3.29l-.216-.339a13.275 13.275 0 005.713-5.889 22.985 22.985 0 003.438 7.324 6.875 6.875 0 00-1.096.894zm18.412 18.411l-.19.19a4.135 4.135 0 01-5.862 0l-.19-.19a4.134 4.134 0 010-5.862l.19-.19a4.135 4.135 0 015.862 0l.19.19c1.61 1.611 1.61 4.238 0 5.862z" fill="#00864C"/><path d="M9.422 25.695l1.395-1.394 1.72 1.72-2.478 2.476 1.53 1.53 2.477-2.477 1.394 1.394 1.53-1.53-1.394-1.394 1.72-1.72 1.718 1.72-1.394 1.395 1.53 1.53 1.394-1.395 1.72 1.72-.312.31 1.53 1.53.311-.311 1.395 1.394 1.53-1.53-1.395-1.394 1.72-1.72 1.719 1.72-1.395 1.395 1.53 1.53 1.394-1.395 3.561 3.56 1.53-1.53-3.56-3.56 1.719-1.72 2.477 2.478 1.53-1.53-2.478-2.477 1.395-1.394-1.516-1.544-1.395 1.395-1.72-1.72 1.72-1.719 1.395 1.395 1.53-1.53-1.395-1.395 1.394-1.394-1.53-1.53-1.394 1.395-1.72-1.72 1.395-1.394-1.53-1.53-1.394 1.394-1.72-1.719 2.478-2.477-1.53-1.53-2.477 2.477-1.72-1.719 1.395-1.394-1.53-1.53-1.394 1.394-1.72-1.72 1.395-1.394-1.53-1.53-1.394 1.395-1.408-1.394-1.53 1.53 1.394 1.394-1.719 1.72-2.477-2.478-1.53 1.53 2.477 2.477-1.719 1.72-2.478-2.478-1.53 1.53 2.478 2.477-1.72 1.72-2.477-2.478-1.53 1.53 2.478 2.477-1.72 1.72-1.394-1.395-1.53 1.53 1.395 1.394-1.394 1.408 1.53 1.53 1.394-1.394 1.72 1.719-1.395 1.394 1.53 1.53zm4.644-1.218l-1.72-1.72 1.72-1.719 1.72 1.72-1.72 1.719zm9.747-3.25l-1.719-1.719 1.72-1.719 1.719 1.72-1.72 1.719zm3.25-.189l1.719 1.72-1.72 1.719-1.719-1.72 1.72-1.719zm-6.499-3.06l-1.72-1.719 1.72-1.72 1.72 1.72-1.72 1.72zm-1.53 1.53l-1.719 1.72-1.72-1.72 1.72-1.719 1.72 1.72zm-.176 3.25l1.72-1.72 1.72 1.72-1.72 1.719-1.72-1.72zm4.955 4.968l-1.719-1.72 1.72-1.719 1.719 1.72-1.72 1.719zm8.218-1.72l-1.72 1.72-1.719-1.72 1.72-1.719 1.719 1.72zm0-6.498l-1.72 1.72-1.719-1.72 1.72-1.719 1.719 1.72zm-3.25-3.249l-1.719 1.72-1.719-1.72 1.72-1.72 1.719 1.72zm-3.248-3.249l-1.72 1.72-1.719-1.72 1.72-1.72 1.719 1.72zm-4.969-4.968l1.72 1.719-1.72 1.72-1.72-1.72 1.72-1.72zm-3.249 3.249l1.72 1.72-1.72 1.718-1.72-1.719 1.72-1.72zm-3.249 3.249l1.72 1.72-1.72 1.718-1.72-1.719 1.72-1.72zm-4.955 4.968l1.72-1.719 1.719 1.72-1.72 1.719-1.719-1.72z" fill="#00864C"/><path d="M19.413 43.443a9.082 9.082 0 017.406-1.001l2.789.839c.46 1.421.703 2.897.703 4.386h2.167c0-8.976-7.27-16.245-16.246-16.232C7.256 31.45 0 38.705 0 47.681c0 8.975 7.27 16.245 16.246 16.232 3.316 0 6.552-1.016 9.273-2.91l-1.245-1.774a13.973 13.973 0 01-4.44 2.057l-1.53-1.746a12.805 12.805 0 01-3.155-8.407c0-1.516.379-3.006 1.11-4.332a28.376 28.376 0 015.104 2.518l4.048 2.531 1.15-1.84-4.047-2.532a32.074 32.074 0 00-4.955-2.505 9.074 9.074 0 011.854-1.53zm9.044-2.775l-1.002-.298a11.226 11.226 0 00-9.179 1.232c-1.11.69-2.085 1.57-2.883 2.6a29.422 29.422 0 00-2.857-.731 25.421 25.421 0 019.233-8.746 14.2 14.2 0 016.688 5.943zm-9.477-6.81a27.566 27.566 0 00-8.759 9.22 29.536 29.536 0 00-2.883-.23 34.372 34.372 0 001.3-7.026 14.11 14.11 0 0110.342-1.964zM2.153 47.669c0-.8.067-1.612.203-2.397a23.12 23.12 0 011.922-.203 34.962 34.962 0 01-2.03 4.25 22.084 22.084 0 01-.095-1.65zM6.24 37.77a34.629 34.629 0 01-1.164 5.09c-.704.027-1.422.082-2.126.163a13.923 13.923 0 013.29-5.253zM2.95 52.323A34.699 34.699 0 006.634 45c.839.014 1.665.054 2.504.136a27.21 27.21 0 00-2.68 12.644 13.969 13.969 0 01-3.507-5.456zm13.728 8.638l.65.744c-.366.027-.732.04-1.097.04-2.653 0-5.253-.744-7.5-2.165-.5-4.86.42-9.775 2.653-14.12.935.175 1.869.392 2.79.65a11.147 11.147 0 00-1.192 5.022 14.92 14.92 0 003.696 9.828z" fill="#00864C"/><path d="M42.225 49.833a7.6 7.6 0 00-3.79 1.016c-3.629-2.099-8.259-.853-10.357 2.775-2.098 3.628-.853 8.258 2.775 10.356a7.609 7.609 0 007.595 0c3.628 2.099 8.258.853 10.357-2.775 2.098-3.628.853-8.258-2.776-10.356a7.658 7.658 0 00-3.804-1.016zm5.402 7.108l-.298-.298a4.135 4.135 0 00-5.862 0 1.985 1.985 0 01-2.802 0l-1.395-1.395a5.418 5.418 0 017.121-2.802 5.42 5.42 0 013.236 4.495zm-12.983-4.942c.663 0 1.327.122 1.936.352a7.573 7.573 0 00-1.8 3.602 4.1 4.1 0 00-.908.69 1.985 1.985 0 01-2.802 0l-1.394-1.395c.88-1.962 2.816-3.249 4.968-3.249zm-5.388 5.89l.298.297a4.142 4.142 0 005.212.528 7.616 7.616 0 001.828 3.764 5.418 5.418 0 01-7-3.128 5.469 5.469 0 01-.338-1.462zm12.97 4.94a5.417 5.417 0 01-5.389-4.94l.298.297a4.134 4.134 0 005.862 0 1.986 1.986 0 012.802 0l1.395 1.395a5.41 5.41 0 01-4.969 3.249z" fill="#00864C"/></svg>