<svg width="22" height="16" fill="none" xmlns="http://www.w3.org/2000/svg"><g clip-path="url(#clip0)" fill="#01824C"><path d="M10.413 10.503c.392.26.805.273 1.18-.01.545-.41 10.403-7.94 10.403-7.94s.01 6.626-.002 9.687c-.006 1.473-.963 2.674-2.34 2.977-.248.054-11.202.042-16.418.087-1.956.017-3.243-1.44-3.236-3.132C.013 9.3 0 2.85 0 2.546c.03-.009 10.192 7.811 10.413 7.957z"/><path d="M.849.926C1.454.294 2.175.001 3.028.001c3.478 0 14.152-.004 16.01.002.846.003 1.546.333 2.143.962-.397.31-.78.612-1.166.909-2.039 1.56-8.3 6.474-8.4 6.54-.494.33-.809.345-1.278-.023A13533.9 13533.9 0 01.849.926z"/></g><defs><clipPath id="clip0"><path fill="#fff" d="M0 0h22v15.304H0z"/></clipPath></defs></svg>