<svg width="108" height="120" fill="none" xmlns="http://www.w3.org/2000/svg"><path d="M42.832 12.48C39.178 4.154 33.381-.203 25.721.008 17.428.288 11.385 4.47 7.274 11.357c-8.257 13.808-9.311 28.32-4.04 43.534C6.781 65.186 10.681 75.341 13 86.058c1.792 8.186 3.76 16.338 6.992 24.103 2.917 6.993 9.593 10.05 17.323 8.222 6.535-1.546 10.084-6.746 10.12-14.054.035-8.75-1.863-17.217-3.339-25.72-1.58-9.206-2.565-18.307.492-27.302 4.533-13.246 3.83-26.107-1.757-38.826zM68.94 9.178c-6.08 8.608-9.101 18.412-8.855 29.164.105 5.094 1.405 9.943 2.284 14.898 1.16 6.5 1.546 12.895-.176 19.5-2.39 9.171-4.04 18.518-6.008 27.794-.036 3.795-1.02 7.589.632 11.244 2.81 6.184 8.081 8.257 14.37 8.222 5.799-.035 9.734-3.198 12.053-8.293 4.357-9.557 7.062-19.676 10.295-29.655 3.549-11.033 9.452-21.223 12.403-32.467 3.901-14.933 1.652-29.023-8.362-41.04-7.87-9.486-21.75-9.17-28.637.633z" fill="#DCDCDC"/></svg>