<svg width="100" height="100" fill="none" xmlns="http://www.w3.org/2000/svg"><path d="M49.606 46.428L33.535 32.96c-2.573-2.149-6.386-1.816-8.505.757-2.149 2.572-1.816 6.386.757 8.504l20.339 17.07s.03 0 .03.03c.242.213.514.394.787.546.03.03.09.06.121.06.272.152.545.273.847.394.061.03.091.03.152.06.302.091.575.182.877.242.03 0 .091 0 .122.03.302.061.635.091.938.091.212 0 .423 0 .605-.03.06 0 .121-.03.182-.03.151-.03.302-.03.454-.06a.56.56 0 00.212-.061c.12-.03.272-.06.393-.121.09-.03.151-.06.212-.091.121-.03.242-.09.363-.151.09-.03.151-.06.242-.121.121-.061.212-.121.333-.182.091-.06.151-.09.242-.151.091-.06.182-.121.303-.182.09-.06.151-.121.242-.181.09-.061.182-.152.273-.243.06-.06.15-.12.211-.212.03-.03.06-.03.06-.06l30.63-31.023 6.205-6.265 4.54-4.631c2.36-2.36 2.33-6.205-.06-8.565a6.038 6.038 0 00-8.566.06l-3.995 4.086-6.084 6.144-27.39 27.755z" fill="#DCDCDC"/><path d="M87.349 32.234c2.118 4.388 3.45 9.23 3.874 14.316h-7.385a3.449 3.449 0 00-3.45 3.45 3.449 3.449 0 003.45 3.45h7.385C89.558 73.517 73.517 89.528 53.45 91.223v-7.415a3.449 3.449 0 00-3.45-3.45 3.449 3.449 0 00-3.45 3.45v7.415C26.483 89.558 10.472 73.517 8.777 53.45h7.779a3.449 3.449 0 003.45-3.45 3.449 3.449 0 00-3.45-3.45H8.777C10.442 26.483 26.483 10.472 46.55 8.777V15.8A3.449 3.449 0 0050 19.25a3.449 3.449 0 003.45-3.45V8.777A41.01 41.01 0 0173.214 15.8l6.144-6.235A49.645 49.645 0 0050 0C22.427 0 0 22.427 0 50s22.427 50 50 50 50-22.427 50-50c0-8.777-2.3-17.04-6.295-24.243l-6.356 6.477z" fill="#DCDCDC"/></svg>