<svg width="25" height="25" fill="none" xmlns="http://www.w3.org/2000/svg"><path d="M12.792 0C6.362 0 3 4.375 3 9.219c0 2.344 1.17 4.687 3.07 5.937.584.313.438 0 .876-1.875 0-.156 0-.312-.146-.469-2.63-3.437-.438-10.156 5.7-10.156 8.915 0 7.162 13.125 1.608 13.125-1.17.156-2.193-.781-2.193-2.031v-.625c.585-1.719 1.024-3.281 1.17-5 0-3.281-4.531-2.813-4.531 1.563 0 .78.146 1.562.438 2.187 0 0-1.461 6.406-1.754 7.5-.292 1.875-.146 3.75.147 5.469-.147.156 0 .156 0 .156h.146c1.023-1.563 1.9-3.125 2.484-4.844.146-.781.877-3.593.877-3.593.731 1.093 2.046 1.718 3.362 1.718 4.53 0 7.746-4.218 7.746-9.375C22 3.75 17.908 0 12.792 0z" fill="#fff"/></svg>