<svg width="14" height="14" fill="none" xmlns="http://www.w3.org/2000/svg"><path fill-rule="evenodd" clip-rule="evenodd" d="M7 3.063c-1.069 0-1.203.004-1.623.023a2.89 2.89 0 00-.956.183 1.91 1.91 0 00-.697.454 1.933 1.933 0 00-.455.698c-.097.25-.164.536-.183.955-.019.42-.023.555-.023 1.624 0 1.07.004 1.203.023 1.623.02.42.086.705.183.956.1.259.235.478.454.697.22.22.439.354.698.455.25.097.536.164.955.183.42.019.555.024 1.624.024 1.07 0 1.203-.005 1.623-.024.42-.02.706-.086.956-.183.26-.1.478-.236.697-.455.22-.219.354-.438.455-.697.097-.25.163-.537.183-.956.019-.42.024-.554.024-1.623 0-1.07-.005-1.204-.024-1.624a2.918 2.918 0 00-.183-.955 1.933 1.933 0 00-.455-.698 1.924 1.924 0 00-.697-.454 2.898 2.898 0 00-.956-.183c-.42-.019-.554-.023-1.624-.023H7zm-.353.71H7c1.052 0 1.176.003 1.591.022.384.017.593.081.732.135.183.072.314.157.452.295.138.138.223.269.295.453.054.138.118.347.135.73.02.416.023.54.023 1.591 0 1.05-.004 1.176-.023 1.59-.017.385-.081.593-.135.732a1.218 1.218 0 01-.295.452 1.218 1.218 0 01-.452.294c-.14.054-.348.118-.732.136-.415.019-.54.023-1.59.023-1.052 0-1.177-.004-1.592-.023-.384-.018-.592-.082-.73-.136a1.22 1.22 0 01-.454-.294 1.22 1.22 0 01-.294-.453c-.054-.138-.119-.347-.136-.73-.019-.416-.023-.54-.023-1.592 0-1.051.004-1.175.023-1.59.018-.384.082-.593.136-.732a1.22 1.22 0 01.294-.452c.138-.138.27-.223.453-.295.139-.054.347-.118.731-.136.364-.016.504-.021 1.238-.022v.001zm2.455.653a.472.472 0 100 .945.472.472 0 000-.945zM7 4.978a2.022 2.022 0 100 4.044 2.022 2.022 0 000-4.044zm0 .71a1.313 1.313 0 110 2.625 1.313 1.313 0 010-2.626z" fill="#fff"/><circle cx="7" cy="7" r="6.65" stroke="#fff" stroke-width=".7"/></svg>