<svg width="23" height="24" fill="none" xmlns="http://www.w3.org/2000/svg"><path fill-rule="evenodd" clip-rule="evenodd" d="M11.376.625c-3.09 0-3.477.014-4.69.069-1.211.055-2.038.247-2.761.528A5.57 5.57 0 001.91 2.534 5.584 5.584 0 00.597 4.549c-.282.723-.474 1.55-.529 2.76C.014 8.523 0 8.911 0 12c0 3.09.014 3.476.069 4.69.055 1.21.247 2.037.528 2.76.291.748.68 1.383 1.312 2.015a5.569 5.569 0 002.014 1.313c.724.281 1.551.473 2.762.528 1.213.055 1.6.069 4.69.069 3.09 0 3.476-.014 4.689-.069 1.211-.055 2.039-.247 2.762-.528a5.564 5.564 0 002.014-1.313 5.583 5.583 0 001.313-2.015c.28-.723.471-1.55.528-2.76.055-1.214.069-1.6.069-4.69 0-3.09-.014-3.477-.069-4.69-.057-1.211-.249-2.038-.528-2.761a5.582 5.582 0 00-1.313-2.015 5.56 5.56 0 00-2.014-1.312C18.1.941 17.273.75 16.062.694c-1.213-.055-1.6-.069-4.69-.069h.004zm-1.02 2.05h1.02c3.037 0 3.397.01 4.597.065 1.109.051 1.71.236 2.111.392.531.206.91.453 1.308.85.398.399.644.778.85 1.309.157.4.342 1.002.393 2.111.054 1.2.066 1.56.066 4.595 0 3.036-.012 3.396-.066 4.595-.051 1.11-.236 1.711-.392 2.112-.206.53-.453.909-.851 1.307a3.517 3.517 0 01-1.308.85c-.4.157-1.002.342-2.111.392-1.2.055-1.56.067-4.597.067-3.037 0-3.397-.012-4.596-.067-1.11-.05-1.711-.236-2.113-.392a3.523 3.523 0 01-1.308-.85 3.525 3.525 0 01-.851-1.308c-.156-.4-.341-1.002-.392-2.112-.054-1.199-.065-1.559-.065-4.597 0-3.037.01-3.395.065-4.595.05-1.109.236-1.71.392-2.111.206-.531.453-.91.851-1.309a3.53 3.53 0 011.308-.85c.401-.157 1.003-.342 2.113-.393 1.049-.047 1.456-.062 3.576-.064v.003zm7.092 1.889a1.365 1.365 0 100 2.73 1.365 1.365 0 000-2.73zm-6.072 1.594a5.842 5.842 0 100 11.684 5.842 5.842 0 000-11.684zm0 2.05a3.792 3.792 0 110 7.584 3.792 3.792 0 010-7.584z" fill="#fff"/></svg>