<svg width="141" height="44" viewBox="0 0 141 44" fill="none" xmlns="http://www.w3.org/2000/svg">
<path d="M43.2842 0.0664062C43.2944 0.530799 43.3183 0.991776 43.3183 1.45617C43.3217 9.23815 43.3183 17.0201 43.3217 24.8021C43.3217 25.0241 43.3422 25.2426 43.3593 25.6592C44.1925 24.8329 44.9232 24.167 45.5856 23.4397C46.033 22.9514 46.5144 22.7533 47.1803 22.7807C48.3344 22.8319 49.4886 22.7943 50.6427 22.7943C50.67 22.866 50.6974 22.9343 50.7281 23.006C50.4344 23.3065 50.1476 23.6138 49.8471 23.9109C49.1881 24.5631 48.6247 25.4509 47.8291 25.7855C47.0539 26.1099 46.0398 25.8709 45.1281 25.8675C41.932 25.8607 38.7359 25.8538 35.5397 25.8436C35.3588 25.8436 35.1778 25.8231 34.9797 25.649C35.1505 25.6216 35.3246 25.5738 35.4953 25.5738C36.7075 25.567 37.9232 25.5704 39.1354 25.5704C40.0676 25.5704 40.0676 25.567 40.0676 24.6655C40.0676 17.8362 40.0744 11.0069 40.0573 4.17764C40.0573 3.59715 40.2144 3.18057 40.631 2.76739C41.5017 1.90349 42.311 0.974703 43.1442 0.0732355C43.192 0.0664063 43.2398 0.0664062 43.2842 0.0664062Z" fill="black"/>
<path d="M137.744 25.4821C137.744 21.5143 137.744 17.3757 137.744 13.3089C133.472 17.4099 129.217 21.4938 124.98 25.5641C124.973 25.4685 124.949 25.2465 124.949 25.028C124.945 19.4074 124.959 13.7835 124.932 8.16301C124.928 7.50057 125.13 7.03959 125.601 6.58203C127.056 5.17178 128.452 3.70348 129.897 2.2864C131.621 0.599561 133.666 -0.0697102 136.036 0.572244C138.532 1.24834 139.898 3.06494 140.626 5.39714C140.885 6.22349 140.97 7.13179 140.977 8.00252C141.011 12.626 141.005 17.2494 140.974 21.8694C140.97 22.2382 140.793 22.6992 140.533 22.9553C139.642 23.8362 138.676 24.6455 137.744 25.4821ZM128.213 22.0709C128.524 21.7977 128.722 21.6475 128.896 21.4733C131.724 18.6562 134.551 15.8391 137.361 13.005C137.563 12.8001 137.713 12.4484 137.72 12.1581C137.754 10.5567 137.771 8.95179 137.723 7.35374C137.675 5.71812 137.194 4.20202 136.221 2.86689C134.524 0.538098 131.782 0.462975 129.958 2.68591C128.685 4.23958 128.282 6.07324 128.268 8.01959C128.241 12.083 128.23 16.1465 128.213 20.2099C128.213 20.7597 128.213 21.3128 128.213 22.0709Z" fill="black"/>
<path d="M68.8599 12.6918C68.8599 14.5733 68.8804 16.4548 68.8394 18.3362C68.8326 18.6879 68.6618 19.1148 68.4194 19.3675C66.9545 20.8938 65.4487 22.3826 63.953 23.8816C62.4745 25.3636 60.6886 26.1319 58.6023 25.8246C56.6389 25.5343 55.1433 24.4075 54.0813 22.7411C53.2652 21.4606 52.8213 20.0538 52.8179 18.5309C52.811 14.9523 52.8042 11.3772 52.8315 7.79863C52.8349 7.47424 53.0091 7.07472 53.2379 6.8357C54.6925 5.32984 56.2189 3.89227 57.6598 2.37275C60.7433 -0.881409 66.2613 -0.348724 68.2111 4.70154C68.6038 5.71569 68.7404 6.8596 68.8087 7.9557C68.9077 9.52986 68.8326 11.1143 68.8326 12.6918C68.8428 12.6918 68.8531 12.6918 68.8599 12.6918ZM65.5921 13.1187C65.5921 11.2372 65.6296 9.35571 65.5818 7.47424C65.534 5.69179 65.0252 4.04251 63.8711 2.63909C62.2457 0.662012 59.8008 0.583475 58.0525 2.44787C57.0657 3.49959 56.3759 4.76642 56.3281 6.17326C56.1779 10.4416 56.1096 14.7133 56.1267 18.985C56.1335 20.6753 56.7276 22.2631 57.8477 23.6016C59.555 25.6436 62.1535 25.6402 63.8574 23.5914C65.0048 22.2119 65.5272 20.5899 65.5784 18.8348C65.6365 16.9294 65.5921 15.024 65.5921 13.1187Z" fill="black"/>
<path d="M102.33 12.7101C102.33 14.5438 102.357 16.3808 102.31 18.2145C102.299 18.6277 102.112 19.133 101.832 19.4267C100.391 20.9462 98.895 22.4111 97.4164 23.8931C95.9379 25.375 94.1452 26.1365 92.0589 25.8258C90.0954 25.5321 88.6032 24.3984 87.5447 22.7321C86.732 21.4516 86.2915 20.0448 86.2881 18.5184C86.2813 14.9399 86.2744 11.3647 86.3017 7.78617C86.3052 7.46178 86.4861 7.06568 86.7183 6.82665C88.173 5.32079 89.6618 3.84566 91.1471 2.37053C94.6403 -1.09875 99.9501 0.0246708 101.668 4.64811C102.047 5.66909 102.211 6.80616 102.279 7.90227C102.378 9.50032 102.306 11.1052 102.306 12.7101C102.313 12.7101 102.32 12.7101 102.33 12.7101ZM99.0623 13.1472C99.0623 11.2418 99.0999 9.33642 99.0521 7.43446C99.0111 5.75104 98.5228 4.18713 97.495 2.82468C95.8184 0.605161 93.1652 0.523209 91.3554 2.63688C90.471 3.67152 89.8359 4.8803 89.7915 6.21884C89.6549 10.4872 89.5832 14.7589 89.6037 19.0306C89.6105 20.6731 90.191 22.2131 91.2598 23.5311C92.9842 25.6584 95.6169 25.6755 97.355 23.5618C98.4955 22.1755 99.0042 20.5535 99.0521 18.795C99.0999 16.9101 99.0623 15.0286 99.0623 13.1472Z" fill="black"/>
<path d="M34.9455 12.7295C34.9455 14.5871 34.9694 16.4447 34.925 18.3022C34.9148 18.6744 34.7407 19.1252 34.4846 19.3915C33.006 20.9383 31.4967 22.4544 29.9704 23.9569C28.4782 25.4252 26.665 26.1628 24.5855 25.811C22.663 25.4867 21.1845 24.3598 20.1499 22.7071C19.3474 21.4198 18.9103 20.0164 18.9069 18.49C18.9035 14.9354 18.8933 11.3807 18.924 7.82951C18.9274 7.48463 19.1118 7.06121 19.3542 6.80853C20.7884 5.31633 22.3045 3.89925 23.725 2.39339C26.8289 -0.901751 32.3846 -0.341748 34.3104 4.73584C34.6963 5.7534 34.8329 6.89731 34.9011 7.99341C34.9968 9.56756 34.925 11.152 34.925 12.7295C34.9319 12.7295 34.9387 12.7295 34.9455 12.7295ZM31.6811 13.1564C31.6845 13.1564 31.688 13.1564 31.688 13.1564C31.688 11.391 31.688 9.62561 31.688 7.86024C31.688 7.72024 31.688 7.58024 31.6811 7.44365C31.5753 5.66462 31.1041 4.01193 29.9431 2.61534C28.3279 0.672402 25.9001 0.590451 24.1689 2.4207C23.1616 3.48607 22.465 4.7734 22.4138 6.20755C22.2669 10.4759 22.1987 14.7476 22.2191 19.0193C22.2294 20.6857 22.8167 22.2496 23.9128 23.5745C25.6304 25.654 28.2528 25.654 29.967 23.5676C31.1041 22.1813 31.6197 20.5593 31.6709 18.8042C31.7255 16.9227 31.6811 15.0378 31.6811 13.1564Z" fill="black"/>
<path d="M108.965 0.337718C108.982 0.614305 109.009 0.85333 109.009 1.09236C109.013 6.71628 109.002 12.3402 109.016 17.9641C109.019 19.9549 109.388 21.8603 110.703 23.4447C111.096 23.9193 111.625 24.2847 112.113 24.6739C112.543 25.0154 112.905 24.9471 113.312 24.5271C114.862 22.9222 116.44 21.3446 118.038 19.7876C118.427 19.4085 118.56 19.0227 118.56 18.5002C118.546 13.689 118.56 8.87776 118.543 4.06652C118.54 3.56115 118.669 3.19578 119.041 2.84407C119.916 2.02114 120.745 1.1504 121.729 0.160156C121.77 0.535768 121.807 0.723573 121.807 0.911379C121.811 5.83872 121.818 10.7661 121.794 15.6934C121.79 16.0417 121.626 16.4788 121.384 16.728C118.471 19.7022 115.524 22.6422 112.601 25.6061C112.127 26.0876 111.567 25.91 111.109 25.77C107.8 24.749 106.001 22.3383 105.858 19.0398C105.636 13.9349 105.776 8.81629 105.776 3.70456C105.776 3.52017 105.868 3.28798 105.998 3.1548C106.885 2.22943 107.79 1.32797 108.695 0.41967C108.726 0.378694 108.808 0.382108 108.965 0.337718Z" fill="black"/>
<path d="M0.0136586 25.6682C0.0136586 25.3985 0.0136586 25.1458 0.0136586 24.8931C0.0136586 17.9921 0.0204879 11.0911 0 4.18665C0 3.65055 0.157074 3.28177 0.542929 2.92323C1.40684 2.1242 2.22977 1.27737 3.22343 0.300781C3.22343 4.5008 3.22343 8.51643 3.22343 12.5321C3.29855 12.5696 3.37709 12.6072 3.45221 12.6447C7.58052 8.54375 11.7054 4.44275 15.8337 0.338342C15.8918 0.392977 15.9464 0.451026 16.0045 0.50566C13.0166 3.50372 10.0322 6.50178 6.89418 9.65009C7.2732 9.59887 7.45077 9.59887 7.61125 9.55448C10.9713 8.57106 13.6484 10.0769 15.1167 12.8223C15.7313 13.9662 16.0523 15.1921 16.0523 16.4965C16.0489 18.354 16.0625 20.215 16.0523 22.0726C16.0523 22.2911 16.0215 22.5814 15.8849 22.718C14.9084 23.7048 13.901 24.6575 12.8391 25.6819C12.8254 25.4087 12.8049 25.1663 12.8049 24.9238C12.8015 22.0419 12.8459 19.1599 12.7879 16.2813C12.7503 14.3486 12.163 12.573 10.7596 11.1594C9.09321 9.47594 6.88393 9.53058 5.29271 11.2925C3.93368 12.795 3.3805 14.6116 3.36002 16.6023C3.34294 18.3438 3.38392 20.0887 3.33611 21.8301C3.32587 22.2023 3.14489 22.6531 2.88879 22.9194C1.98733 23.8516 1.01757 24.7189 0.0136586 25.6682Z" fill="black"/>
<path d="M77.796 25.8891C77.7857 25.4247 77.7618 24.9637 77.7618 24.4993C77.7584 16.7174 77.7618 8.93538 77.7584 1.15339C77.7584 0.931441 77.7379 0.712904 77.7209 0.296317C76.8877 1.12266 76.1569 1.78852 75.4945 2.51584C75.0472 3.00413 74.5657 3.20218 73.8999 3.17487C72.7457 3.12365 71.5916 3.16121 70.4374 3.16121C70.4101 3.0895 70.3828 3.02121 70.3521 2.9495C70.6457 2.64901 70.9325 2.34169 71.233 2.04462C71.8921 1.39242 72.4555 0.50461 73.2511 0.169975C74.0262 -0.154417 75.0404 0.0846083 75.9521 0.088023C79.1482 0.0948523 82.3443 0.101682 85.5404 0.111926C85.7214 0.111926 85.9024 0.132413 86.1004 0.306561C85.9297 0.333878 85.7555 0.381683 85.5848 0.381683C84.3726 0.388512 83.157 0.385097 81.9448 0.385097C81.0126 0.385097 81.0126 0.388512 81.0126 1.28998C81.0126 8.11928 81.0058 14.9486 81.0228 21.7779C81.0228 22.3584 80.8658 22.775 80.4492 23.1881C79.5784 24.052 78.7692 24.9808 77.936 25.8823C77.8882 25.8891 77.8404 25.8891 77.796 25.8891Z" fill="black"/>
<mask id="mask0" mask-type="alpha" maskUnits="userSpaceOnUse" x="0" y="0" width="141" height="26">
<path d="M43.2842 0.0664062C43.2944 0.530799 43.3183 0.991776 43.3183 1.45617C43.3217 9.23815 43.3183 17.0201 43.3217 24.8021C43.3217 25.0241 43.3422 25.2426 43.3593 25.6592C44.1925 24.8329 44.9232 24.167 45.5856 23.4397C46.033 22.9514 46.5144 22.7533 47.1803 22.7807C48.3344 22.8319 49.4886 22.7943 50.6427 22.7943C50.67 22.866 50.6974 22.9343 50.7281 23.006C50.4344 23.3065 50.1476 23.6138 49.8471 23.9109C49.1881 24.5631 48.6247 25.4509 47.8291 25.7855C47.0539 26.1099 46.0398 25.8709 45.1281 25.8675C41.932 25.8607 38.7359 25.8538 35.5397 25.8436C35.3588 25.8436 35.1778 25.8231 34.9797 25.649C35.1505 25.6216 35.3246 25.5738 35.4953 25.5738C36.7075 25.567 37.9232 25.5704 39.1354 25.5704C40.0676 25.5704 40.0676 25.567 40.0676 24.6655C40.0676 17.8362 40.0744 11.0069 40.0573 4.17764C40.0573 3.59715 40.2144 3.18057 40.631 2.76739C41.5017 1.90349 42.311 0.974703 43.1442 0.0732355C43.192 0.0664063 43.2398 0.0664062 43.2842 0.0664062Z" fill="black"/>
<path d="M137.744 25.4821C137.744 21.5143 137.744 17.3757 137.744 13.3089C133.472 17.4099 129.217 21.4938 124.98 25.5641C124.973 25.4685 124.949 25.2465 124.949 25.028C124.945 19.4074 124.959 13.7835 124.932 8.16301C124.928 7.50057 125.13 7.03959 125.601 6.58203C127.056 5.17178 128.452 3.70348 129.897 2.2864C131.621 0.599561 133.666 -0.0697102 136.036 0.572244C138.532 1.24834 139.898 3.06494 140.626 5.39714C140.885 6.22349 140.97 7.13179 140.977 8.00252C141.011 12.626 141.005 17.2494 140.974 21.8694C140.97 22.2382 140.793 22.6992 140.533 22.9553C139.642 23.8362 138.676 24.6455 137.744 25.4821ZM128.213 22.0709C128.524 21.7977 128.722 21.6475 128.896 21.4733C131.724 18.6562 134.551 15.8391 137.361 13.005C137.563 12.8001 137.713 12.4484 137.72 12.1581C137.754 10.5567 137.771 8.95179 137.723 7.35374C137.675 5.71812 137.194 4.20202 136.221 2.86689C134.524 0.538098 131.782 0.462975 129.958 2.68591C128.685 4.23958 128.282 6.07324 128.268 8.01959C128.241 12.083 128.23 16.1465 128.213 20.2099C128.213 20.7597 128.213 21.3128 128.213 22.0709Z" fill="black"/>
<path d="M68.8599 12.6918C68.8599 14.5733 68.8804 16.4548 68.8394 18.3362C68.8326 18.6879 68.6618 19.1148 68.4194 19.3675C66.9545 20.8938 65.4487 22.3826 63.953 23.8816C62.4745 25.3636 60.6886 26.1319 58.6023 25.8246C56.6389 25.5343 55.1433 24.4075 54.0813 22.7411C53.2652 21.4606 52.8213 20.0538 52.8179 18.5309C52.811 14.9523 52.8042 11.3772 52.8315 7.79863C52.8349 7.47424 53.0091 7.07472 53.2379 6.8357C54.6925 5.32984 56.2189 3.89227 57.6598 2.37275C60.7433 -0.881409 66.2613 -0.348724 68.2111 4.70154C68.6038 5.71569 68.7404 6.8596 68.8087 7.9557C68.9077 9.52986 68.8326 11.1143 68.8326 12.6918C68.8428 12.6918 68.8531 12.6918 68.8599 12.6918ZM65.5921 13.1187C65.5921 11.2372 65.6296 9.35571 65.5818 7.47424C65.534 5.69179 65.0252 4.04251 63.8711 2.63909C62.2457 0.662012 59.8008 0.583475 58.0525 2.44787C57.0657 3.49959 56.3759 4.76642 56.3281 6.17326C56.1779 10.4416 56.1096 14.7133 56.1267 18.985C56.1335 20.6753 56.7276 22.2631 57.8477 23.6016C59.555 25.6436 62.1535 25.6402 63.8574 23.5914C65.0048 22.2119 65.5272 20.5899 65.5784 18.8348C65.6365 16.9294 65.5921 15.024 65.5921 13.1187Z" fill="black"/>
<path d="M102.33 12.7101C102.33 14.5438 102.357 16.3808 102.31 18.2145C102.299 18.6277 102.112 19.133 101.832 19.4267C100.391 20.9462 98.895 22.4111 97.4164 23.8931C95.9379 25.375 94.1452 26.1365 92.0589 25.8258C90.0954 25.5321 88.6032 24.3984 87.5447 22.7321C86.732 21.4516 86.2915 20.0448 86.2881 18.5184C86.2813 14.9399 86.2744 11.3647 86.3017 7.78617C86.3052 7.46178 86.4861 7.06568 86.7183 6.82665C88.173 5.32079 89.6618 3.84566 91.1471 2.37053C94.6403 -1.09875 99.9501 0.0246708 101.668 4.64811C102.047 5.66909 102.211 6.80616 102.279 7.90227C102.378 9.50032 102.306 11.1052 102.306 12.7101C102.313 12.7101 102.32 12.7101 102.33 12.7101ZM99.0623 13.1472C99.0623 11.2418 99.0999 9.33642 99.0521 7.43446C99.0111 5.75104 98.5228 4.18713 97.495 2.82468C95.8184 0.605161 93.1652 0.523209 91.3554 2.63688C90.471 3.67152 89.8359 4.8803 89.7915 6.21884C89.6549 10.4872 89.5832 14.7589 89.6037 19.0306C89.6105 20.6731 90.191 22.2131 91.2598 23.5311C92.9842 25.6584 95.6169 25.6755 97.355 23.5618C98.4955 22.1755 99.0042 20.5535 99.0521 18.795C99.0999 16.9101 99.0623 15.0286 99.0623 13.1472Z" fill="black"/>
<path d="M34.9455 12.7295C34.9455 14.5871 34.9694 16.4447 34.925 18.3022C34.9148 18.6744 34.7407 19.1252 34.4846 19.3915C33.006 20.9383 31.4967 22.4544 29.9704 23.9569C28.4782 25.4252 26.665 26.1628 24.5855 25.811C22.663 25.4867 21.1845 24.3598 20.1499 22.7071C19.3474 21.4198 18.9103 20.0164 18.9069 18.49C18.9035 14.9354 18.8933 11.3807 18.924 7.82951C18.9274 7.48463 19.1118 7.06121 19.3542 6.80853C20.7884 5.31633 22.3045 3.89925 23.725 2.39339C26.8289 -0.901751 32.3846 -0.341748 34.3104 4.73584C34.6963 5.7534 34.8329 6.89731 34.9011 7.99341C34.9968 9.56756 34.925 11.152 34.925 12.7295C34.9319 12.7295 34.9387 12.7295 34.9455 12.7295ZM31.6811 13.1564C31.6845 13.1564 31.688 13.1564 31.688 13.1564C31.688 11.391 31.688 9.62561 31.688 7.86024C31.688 7.72024 31.688 7.58024 31.6811 7.44365C31.5753 5.66462 31.1041 4.01193 29.9431 2.61534C28.3279 0.672402 25.9001 0.590451 24.1689 2.4207C23.1616 3.48607 22.465 4.7734 22.4138 6.20755C22.2669 10.4759 22.1987 14.7476 22.2191 19.0193C22.2294 20.6857 22.8167 22.2496 23.9128 23.5745C25.6304 25.654 28.2528 25.654 29.967 23.5676C31.1041 22.1813 31.6197 20.5593 31.6709 18.8042C31.7255 16.9227 31.6811 15.0378 31.6811 13.1564Z" fill="black"/>
<path d="M108.965 0.337718C108.982 0.614305 109.009 0.85333 109.009 1.09236C109.013 6.71628 109.002 12.3402 109.016 17.9641C109.019 19.9549 109.388 21.8603 110.703 23.4447C111.096 23.9193 111.625 24.2847 112.113 24.6739C112.543 25.0154 112.905 24.9471 113.312 24.5271C114.862 22.9222 116.44 21.3446 118.038 19.7876C118.427 19.4085 118.56 19.0227 118.56 18.5002C118.546 13.689 118.56 8.87776 118.543 4.06652C118.54 3.56115 118.669 3.19578 119.041 2.84407C119.916 2.02114 120.745 1.1504 121.729 0.160156C121.77 0.535768 121.807 0.723573 121.807 0.911379C121.811 5.83872 121.818 10.7661 121.794 15.6934C121.79 16.0417 121.626 16.4788 121.384 16.728C118.471 19.7022 115.524 22.6422 112.601 25.6061C112.127 26.0876 111.567 25.91 111.109 25.77C107.8 24.749 106.001 22.3383 105.858 19.0398C105.636 13.9349 105.776 8.81629 105.776 3.70456C105.776 3.52017 105.868 3.28798 105.998 3.1548C106.885 2.22943 107.79 1.32797 108.695 0.41967C108.726 0.378694 108.808 0.382108 108.965 0.337718Z" fill="black"/>
<path d="M0.0136586 25.6682C0.0136586 25.3985 0.0136586 25.1458 0.0136586 24.8931C0.0136586 17.9921 0.0204879 11.0911 0 4.18665C0 3.65055 0.157074 3.28177 0.542929 2.92323C1.40684 2.1242 2.22977 1.27737 3.22343 0.300781C3.22343 4.5008 3.22343 8.51643 3.22343 12.5321C3.29855 12.5696 3.37709 12.6072 3.45221 12.6447C7.58052 8.54375 11.7054 4.44275 15.8337 0.338342C15.8918 0.392977 15.9464 0.451026 16.0045 0.50566C13.0166 3.50372 10.0322 6.50178 6.89418 9.65009C7.2732 9.59887 7.45077 9.59887 7.61125 9.55448C10.9713 8.57106 13.6484 10.0769 15.1167 12.8223C15.7313 13.9662 16.0523 15.1921 16.0523 16.4965C16.0489 18.354 16.0625 20.215 16.0523 22.0726C16.0523 22.2911 16.0215 22.5814 15.8849 22.718C14.9084 23.7048 13.901 24.6575 12.8391 25.6819C12.8254 25.4087 12.8049 25.1663 12.8049 24.9238C12.8015 22.0419 12.8459 19.1599 12.7879 16.2813C12.7503 14.3486 12.163 12.573 10.7596 11.1594C9.09321 9.47594 6.88393 9.53058 5.29271 11.2925C3.93368 12.795 3.3805 14.6116 3.36002 16.6023C3.34294 18.3438 3.38392 20.0887 3.33611 21.8301C3.32587 22.2023 3.14489 22.6531 2.88879 22.9194C1.98733 23.8516 1.01757 24.7189 0.0136586 25.6682Z" fill="black"/>
<path d="M77.796 25.8891C77.7857 25.4247 77.7618 24.9637 77.7618 24.4993C77.7584 16.7174 77.7618 8.93538 77.7584 1.15339C77.7584 0.931441 77.7379 0.712904 77.7209 0.296317C76.8877 1.12266 76.1569 1.78852 75.4945 2.51584C75.0472 3.00413 74.5657 3.20218 73.8999 3.17487C72.7457 3.12365 71.5916 3.16121 70.4374 3.16121C70.4101 3.0895 70.3828 3.02121 70.3521 2.9495C70.6457 2.64901 70.9325 2.34169 71.233 2.04462C71.8921 1.39242 72.4555 0.50461 73.2511 0.169975C74.0262 -0.154417 75.0404 0.0846083 75.9521 0.088023C79.1482 0.0948523 82.3443 0.101682 85.5404 0.111926C85.7214 0.111926 85.9024 0.132413 86.1004 0.306561C85.9297 0.333878 85.7555 0.381683 85.5848 0.381683C84.3726 0.388512 83.157 0.385097 81.9448 0.385097C81.0126 0.385097 81.0126 0.388512 81.0126 1.28998C81.0126 8.11928 81.0058 14.9486 81.0228 21.7779C81.0228 22.3584 80.8658 22.775 80.4492 23.1881C79.5784 24.052 78.7692 24.9808 77.936 25.8823C77.8882 25.8891 77.8404 25.8891 77.796 25.8891Z" fill="black"/>
</mask>
<g mask="url(#mask0)">
<rect x="227.997" y="26.1484" width="247.727" height="53.3642" transform="rotate(174.787 227.997 26.1484)" fill="url(#paint0_linear)" style="mix-blend-mode:multiply"/>
</g>
<path d="M31.9219 34.6621H30.0518V41H29.1582V34.6621H27.293V33.8906H31.9219V34.6621ZM37.8965 39.1445H35.4941L34.9424 41H34.0244L36.3145 33.8906H37.0811L39.376 41H38.458L37.8965 39.1445ZM35.7285 38.373H37.667L36.6953 35.1406L35.7285 38.373ZM45.8633 34.6621H43.9932V41H43.0996V34.6621H41.2344V33.8906H45.8633V34.6621ZM53.1465 34.6621H51.2764V41H50.3828V34.6621H48.5176V33.8906H53.1465V34.6621ZM60.6836 38.0703C60.6836 39.0404 60.4769 39.7874 60.0635 40.3115C59.6501 40.8356 59.0625 41.0977 58.3008 41.0977C57.5684 41.0977 56.9889 40.8438 56.5625 40.3359C56.1393 39.8249 55.9196 39.1038 55.9033 38.1729V36.835C55.9033 35.8844 56.1133 35.1406 56.5332 34.6035C56.9531 34.0632 57.5391 33.793 58.291 33.793C59.0397 33.793 59.6224 34.0518 60.0391 34.5693C60.459 35.0837 60.6738 35.8193 60.6836 36.7764V38.0703ZM59.79 36.8252C59.79 36.0732 59.6663 35.515 59.4189 35.1504C59.1748 34.7826 58.7988 34.5986 58.291 34.5986C57.7995 34.5986 57.4268 34.7842 57.1729 35.1553C56.9222 35.5264 56.7952 36.0732 56.792 36.7959V38.0703C56.792 38.7962 56.9173 39.3496 57.168 39.7305C57.4219 40.1113 57.7995 40.3018 58.3008 40.3018C58.8021 40.3018 59.1732 40.126 59.4141 39.7744C59.6549 39.4229 59.7803 38.8841 59.79 38.1582V36.8252ZM68.6895 38.0703C68.6895 39.0404 68.4827 39.7874 68.0693 40.3115C67.6559 40.8356 67.0684 41.0977 66.3066 41.0977C65.5742 41.0977 64.9948 40.8438 64.5684 40.3359C64.1452 39.8249 63.9255 39.1038 63.9092 38.1729V36.835C63.9092 35.8844 64.1191 35.1406 64.5391 34.6035C64.959 34.0632 65.5449 33.793 66.2969 33.793C67.0456 33.793 67.6283 34.0518 68.0449 34.5693C68.4648 35.0837 68.6797 35.8193 68.6895 36.7764V38.0703ZM67.7959 36.8252C67.7959 36.0732 67.6722 35.515 67.4248 35.1504C67.1807 34.7826 66.8047 34.5986 66.2969 34.5986C65.8053 34.5986 65.4326 34.7842 65.1787 35.1553C64.9281 35.5264 64.8011 36.0732 64.7979 36.7959V38.0703C64.7979 38.7962 64.9232 39.3496 65.1738 39.7305C65.4277 40.1113 65.8053 40.3018 66.3066 40.3018C66.8079 40.3018 67.179 40.126 67.4199 39.7744C67.6608 39.4229 67.7861 38.8841 67.7959 38.1582V36.8252ZM79.6816 39.1445H77.2793L76.7275 41H75.8096L78.0996 33.8906H78.8662L81.1611 41H80.2432L79.6816 39.1445ZM77.5137 38.373H79.4521L78.4805 35.1406L77.5137 38.373ZM86.2764 38.124H85.0264V41H84.1279V33.8906H86.1201C86.8167 33.8906 87.3441 34.0729 87.7021 34.4375C88.0602 34.7988 88.2393 35.3294 88.2393 36.0293C88.2393 36.4688 88.1416 36.8529 87.9463 37.1816C87.7542 37.5072 87.4808 37.7529 87.126 37.9189L88.5029 40.9414V41H87.541L86.2764 38.124ZM85.0264 37.3574H86.1104C86.4847 37.3574 86.7826 37.237 87.0039 36.9961C87.2285 36.7552 87.3408 36.4329 87.3408 36.0293C87.3408 35.1178 86.9274 34.6621 86.1006 34.6621H85.0264V37.3574ZM95.2051 34.6621H93.335V41H92.4414V34.6621H90.5762V33.8906H95.2051V34.6621ZM99.1875 41H98.2939V33.8906H99.1875V41ZM105.86 39.2031C105.86 38.8483 105.764 38.5765 105.572 38.3877C105.38 38.1989 105.034 38.015 104.532 37.8359C104.031 37.6569 103.647 37.4697 103.38 37.2744C103.116 37.0758 102.918 36.8512 102.784 36.6006C102.654 36.3467 102.589 36.057 102.589 35.7314C102.589 35.1683 102.776 34.7044 103.15 34.3398C103.528 33.9753 104.021 33.793 104.63 33.793C105.047 33.793 105.418 33.8874 105.743 34.0762C106.069 34.2617 106.319 34.5205 106.495 34.8525C106.671 35.1846 106.759 35.5492 106.759 35.9463H105.86C105.86 35.5068 105.755 35.1667 105.543 34.9258C105.331 34.6849 105.027 34.5645 104.63 34.5645C104.269 34.5645 103.989 34.6654 103.79 34.8672C103.591 35.069 103.492 35.3522 103.492 35.7168C103.492 36.0163 103.6 36.2669 103.814 36.4688C104.029 36.6706 104.361 36.8512 104.811 37.0107C105.51 37.2419 106.01 37.5267 106.31 37.8652C106.612 38.2038 106.764 38.6465 106.764 39.1934C106.764 39.7695 106.576 40.2318 106.202 40.5801C105.828 40.9251 105.318 41.0977 104.674 41.0977C104.26 41.0977 103.878 41.0081 103.526 40.8291C103.178 40.6468 102.903 40.3929 102.701 40.0674C102.503 39.7386 102.403 39.3626 102.403 38.9395H103.302C103.302 39.3789 103.424 39.7207 103.668 39.9648C103.915 40.209 104.251 40.3311 104.674 40.3311C105.068 40.3311 105.364 40.2301 105.562 40.0283C105.761 39.8265 105.86 39.5514 105.86 39.2031ZM114.096 34.6621H112.226V41H111.332V34.6621H109.467V33.8906H114.096V34.6621Z" fill="white"/>
<defs>
<linearGradient id="paint0_linear" x1="419.286" y1="16.3904" x2="315.146" y2="113.232" gradientUnits="userSpaceOnUse">
<stop stop-color="#EB00FF"/>
<stop offset="0.448877" stop-color="#5B35FF"/>
<stop offset="0.732349" stop-color="#9221FF"/>
<stop offset="1" stop-color="#0D4ECC"/>
</linearGradient>
</defs>
</svg>
