<svg width="141" height="44" fill="none" xmlns="http://www.w3.org/2000/svg"><path d="M43.284.066c.01.465.034.926.034 1.39.004 7.782 0 15.564.004 23.346 0 .222.02.44.037.857.834-.826 1.564-1.492 2.227-2.22.447-.488.928-.686 1.594-.658 1.154.05 2.309.013 3.463.013.027.072.054.14.085.212-.294.3-.58.608-.88.905-.66.652-1.223 1.54-2.019 1.874-.775.325-1.79.086-2.7.082-3.197-.006-6.393-.013-9.59-.023-.18 0-.361-.02-.56-.195.172-.027.346-.075.516-.075 1.213-.007 2.428-.004 3.64-.004.933 0 .933-.003.933-.904 0-6.83.006-13.66-.01-20.488 0-.58.156-.997.573-1.41.87-.865 1.68-1.793 2.513-2.695a.985.985 0 01.14-.007zm94.46 25.416V13.31c-4.272 4.1-8.527 8.185-12.764 12.255-.007-.096-.031-.317-.031-.536-.004-5.62.01-11.244-.017-16.865-.004-.662.198-1.123.669-1.581 1.455-1.41 2.851-2.879 4.296-4.296C131.621.6 133.666-.07 136.036.572c2.496.676 3.862 2.493 4.59 4.825.259.826.344 1.735.351 2.606.034 4.623.028 9.246-.003 13.866-.004.37-.181.83-.441 1.086-.891.881-1.857 1.69-2.789 2.527zm-9.531-3.411c.311-.273.509-.424.683-.598 2.828-2.817 5.655-5.634 8.465-8.468.202-.205.352-.557.359-.847.034-1.601.051-3.206.003-4.804-.048-1.636-.529-3.152-1.502-4.487-1.697-2.329-4.439-2.404-6.263-.181-1.273 1.554-1.676 3.387-1.69 5.334-.027 4.063-.038 8.127-.055 12.19v1.86zM68.86 12.692c0 1.881.02 3.763-.02 5.644a1.665 1.665 0 01-.42 1.032c-1.466 1.526-2.971 3.015-4.467 4.514-1.479 1.482-3.264 2.25-5.35 1.943-1.964-.29-3.46-1.418-4.522-3.084-.816-1.28-1.26-2.687-1.263-4.21-.007-3.579-.014-7.154.014-10.732.003-.325.177-.724.406-.963 1.455-1.506 2.98-2.944 4.422-4.463 3.083-3.254 8.6-2.723 10.55 2.329.393 1.014.53 2.158.598 3.254.099 1.574.024 3.158.024 4.736h.027zm-3.268.427c0-1.882.038-3.763-.01-5.645-.048-1.782-.557-3.431-1.71-4.835C62.245.662 59.8.583 58.051 2.448c-.986 1.052-1.676 2.318-1.724 3.725a327.7 327.7 0 00-.201 12.812c.006 1.69.6 3.278 1.72 4.617 1.708 2.042 4.306 2.038 6.01-.01 1.148-1.38 1.67-3.002 1.721-4.757.058-1.906.014-3.811.014-5.716zm36.738-.409c0 1.834.027 3.67-.02 5.505-.011.413-.198.918-.478 1.212-1.441 1.52-2.937 2.984-4.416 4.466-1.478 1.482-3.27 2.244-5.357 1.933-1.964-.294-3.456-1.428-4.514-3.094-.813-1.28-1.254-2.687-1.257-4.214-.007-3.578-.014-7.153.014-10.732.003-.324.184-.72.416-.96 1.455-1.505 2.944-2.98 4.43-4.455C94.64-1.1 99.95.025 101.667 4.648c.379 1.021.543 2.158.611 3.254.099 1.598.027 3.203.027 4.808h.024zm-3.268.437c0-1.905.038-3.81-.01-5.713-.04-1.683-.53-3.247-1.557-4.61-1.677-2.219-4.33-2.3-6.14-.187-.884 1.035-1.52 2.243-1.564 3.582a348.52 348.52 0 00-.187 12.812c.007 1.642.587 3.182 1.656 4.5 1.724 2.127 4.357 2.145 6.095.03 1.14-1.386 1.65-3.008 1.697-4.766.048-1.885.01-3.766.01-5.648zm-64.116-.417c0 1.857.023 3.715-.021 5.572-.01.372-.184.823-.44 1.09a211.186 211.186 0 01-4.515 4.565c-1.492 1.468-3.305 2.206-5.384 1.854-1.923-.324-3.401-1.451-4.436-3.104-.803-1.287-1.24-2.69-1.243-4.217-.003-3.555-.014-7.11.017-10.66.003-.345.188-.769.43-1.021 1.434-1.493 2.95-2.91 4.371-4.416 3.104-3.295 8.66-2.735 10.585 2.343.386 1.017.523 2.161.591 3.257.096 1.575.024 3.159.024 4.736h.02zm-3.265.426h.007V7.86c0-.14 0-.28-.007-.416-.106-1.78-.577-3.432-1.738-4.829C28.328.672 25.9.59 24.17 2.421c-1.007 1.065-1.704 2.352-1.755 3.787-.147 4.268-.215 8.54-.195 12.811.01 1.667.598 3.23 1.694 4.556 1.717 2.079 4.34 2.079 6.054-.007 1.137-1.387 1.653-3.009 1.704-4.764.055-1.881.01-3.766.01-5.648zM108.965.338c.017.276.044.515.044.754.004 5.624-.007 11.248.007 16.872.003 1.99.372 3.896 1.687 5.48.393.475.922.84 1.41 1.23.43.341.792.273 1.199-.147a220.22 220.22 0 014.726-4.74c.389-.378.522-.764.522-1.287-.014-4.811 0-9.622-.017-14.433-.003-.506.126-.871.498-1.223.875-.823 1.704-1.694 2.688-2.684.041.376.078.564.078.751.004 4.928.011 9.855-.013 14.782-.004.349-.168.786-.41 1.035-2.913 2.974-5.86 5.914-8.783 8.878-.474.482-1.034.304-1.492.164-3.309-1.021-5.108-3.432-5.251-6.73-.222-5.105-.082-10.224-.082-15.335 0-.185.092-.417.222-.55.887-.926 1.792-1.827 2.697-2.735.031-.041.113-.038.27-.082zM.014 25.668v-.775c0-6.9.006-13.802-.014-20.706 0-.536.157-.905.543-1.264.864-.799 1.687-1.646 2.68-2.622v12.231l.23.113C7.58 8.544 11.704 4.443 15.832.338c.059.055.113.113.171.168-2.987 2.998-5.972 5.996-9.11 9.144.38-.051.557-.051.717-.096 3.36-.983 6.037.523 7.506 3.268a7.663 7.663 0 01.935 3.675c-.003 1.857.01 3.718 0 5.576 0 .218-.03.508-.167.645-.977.987-1.984 1.94-3.046 2.964-.014-.273-.034-.516-.034-.758-.003-2.882.04-5.764-.017-8.643-.038-1.932-.625-3.708-2.028-5.122-1.667-1.683-3.876-1.628-5.467.133-1.36 1.503-1.913 3.32-1.933 5.31-.017 1.742.024 3.487-.024 5.228a1.78 1.78 0 01-.447 1.09c-.902.932-1.871 1.799-2.875 2.748zm77.782.222c-.01-.465-.034-.926-.034-1.39-.004-7.783 0-15.565-.004-23.347 0-.222-.02-.44-.037-.857-.833.827-1.564 1.493-2.227 2.22-.447.488-.928.686-1.594.659-1.154-.051-2.308-.014-3.463-.014a5.507 5.507 0 00-.085-.212c.294-.3.58-.607.881-.904.66-.653 1.222-1.54 2.018-1.875.775-.324 1.79-.085 2.701-.082 3.196.007 6.392.014 9.588.024.181 0 .362.02.56.195-.17.027-.344.075-.515.075-1.212.007-2.428.003-3.64.003-.932 0-.932.004-.932.905 0 6.83-.007 13.659.01 20.488 0 .58-.157.997-.574 1.41-.87.864-1.68 1.793-2.513 2.694-.048.007-.096.007-.14.007z" fill="#000"/><mask id="a" maskUnits="userSpaceOnUse" x="0" y="0" width="141" height="26"><path d="M43.284.066c.01.465.034.926.034 1.39.004 7.782 0 15.564.004 23.346 0 .222.02.44.037.857.834-.826 1.564-1.492 2.227-2.22.447-.488.928-.686 1.594-.658 1.154.05 2.309.013 3.463.013.027.072.054.14.085.212-.294.3-.58.608-.88.905-.66.652-1.223 1.54-2.019 1.874-.775.325-1.79.086-2.7.082-3.197-.006-6.393-.013-9.59-.023-.18 0-.361-.02-.56-.195.172-.027.346-.075.516-.075 1.213-.007 2.428-.004 3.64-.004.933 0 .933-.003.933-.904 0-6.83.006-13.66-.01-20.488 0-.58.156-.997.573-1.41.87-.865 1.68-1.793 2.513-2.695a.985.985 0 01.14-.007zm94.46 25.416V13.31c-4.272 4.1-8.527 8.185-12.764 12.255-.007-.096-.031-.317-.031-.536-.004-5.62.01-11.244-.017-16.865-.004-.662.198-1.123.669-1.581 1.455-1.41 2.851-2.879 4.296-4.296C131.621.6 133.666-.07 136.036.572c2.496.676 3.862 2.493 4.59 4.825.259.826.344 1.735.351 2.606.034 4.623.028 9.246-.003 13.866-.004.37-.181.83-.441 1.086-.891.881-1.857 1.69-2.789 2.527zm-9.531-3.411c.311-.273.509-.424.683-.598 2.828-2.817 5.655-5.634 8.465-8.468.202-.205.352-.557.359-.847.034-1.601.051-3.206.003-4.804-.048-1.636-.529-3.152-1.502-4.487-1.697-2.329-4.439-2.404-6.263-.181-1.273 1.554-1.676 3.387-1.69 5.334-.027 4.063-.038 8.127-.055 12.19v1.86zM68.86 12.692c0 1.881.02 3.763-.02 5.644a1.665 1.665 0 01-.42 1.032c-1.466 1.526-2.971 3.015-4.467 4.514-1.479 1.482-3.264 2.25-5.35 1.943-1.964-.29-3.46-1.418-4.522-3.084-.816-1.28-1.26-2.687-1.263-4.21-.007-3.579-.014-7.154.014-10.732.003-.325.177-.724.406-.963 1.455-1.506 2.98-2.944 4.422-4.463 3.083-3.254 8.6-2.723 10.55 2.329.393 1.014.53 2.158.598 3.254.099 1.574.024 3.158.024 4.736h.027zm-3.268.427c0-1.882.038-3.763-.01-5.645-.048-1.782-.557-3.431-1.71-4.835C62.245.662 59.8.583 58.051 2.448c-.986 1.052-1.676 2.318-1.724 3.725a327.7 327.7 0 00-.201 12.812c.006 1.69.6 3.278 1.72 4.617 1.708 2.042 4.306 2.038 6.01-.01 1.148-1.38 1.67-3.002 1.721-4.757.058-1.906.014-3.811.014-5.716zm36.738-.409c0 1.834.027 3.67-.02 5.505-.011.413-.198.918-.478 1.212-1.441 1.52-2.937 2.984-4.416 4.466-1.478 1.482-3.27 2.244-5.357 1.933-1.964-.294-3.456-1.428-4.514-3.094-.813-1.28-1.254-2.687-1.257-4.214-.007-3.578-.014-7.153.014-10.732.003-.324.184-.72.416-.96 1.455-1.505 2.944-2.98 4.43-4.455C94.64-1.1 99.95.025 101.667 4.648c.379 1.021.543 2.158.611 3.254.099 1.598.027 3.203.027 4.808h.024zm-3.268.437c0-1.905.038-3.81-.01-5.713-.04-1.683-.53-3.247-1.557-4.61-1.677-2.219-4.33-2.3-6.14-.187-.884 1.035-1.52 2.243-1.564 3.582a348.52 348.52 0 00-.187 12.812c.007 1.642.587 3.182 1.656 4.5 1.724 2.127 4.357 2.145 6.095.03 1.14-1.386 1.65-3.008 1.697-4.766.048-1.885.01-3.766.01-5.648zm-64.116-.417c0 1.857.023 3.715-.021 5.572-.01.372-.184.823-.44 1.09a211.186 211.186 0 01-4.515 4.565c-1.492 1.468-3.305 2.206-5.384 1.854-1.923-.324-3.401-1.451-4.436-3.104-.803-1.287-1.24-2.69-1.243-4.217-.003-3.555-.014-7.11.017-10.66.003-.345.188-.769.43-1.021 1.434-1.493 2.95-2.91 4.371-4.416 3.104-3.295 8.66-2.735 10.585 2.343.386 1.017.523 2.161.591 3.257.096 1.575.024 3.159.024 4.736h.02zm-3.265.426h.007V7.86c0-.14 0-.28-.007-.416-.106-1.78-.577-3.432-1.738-4.829C28.328.672 25.9.59 24.17 2.421c-1.007 1.065-1.704 2.352-1.755 3.787-.147 4.268-.215 8.54-.195 12.811.01 1.667.598 3.23 1.694 4.556 1.717 2.079 4.34 2.079 6.054-.007 1.137-1.387 1.653-3.009 1.704-4.764.055-1.881.01-3.766.01-5.648zM108.965.338c.017.276.044.515.044.754.004 5.624-.007 11.248.007 16.872.003 1.99.372 3.896 1.687 5.48.393.475.922.84 1.41 1.23.43.341.792.273 1.199-.147a220.22 220.22 0 014.726-4.74c.389-.378.522-.764.522-1.287-.014-4.811 0-9.622-.017-14.433-.003-.506.126-.871.498-1.223.875-.823 1.704-1.694 2.688-2.684.041.376.078.564.078.751.004 4.928.011 9.855-.013 14.782-.004.349-.168.786-.41 1.035-2.913 2.974-5.86 5.914-8.783 8.878-.474.482-1.034.304-1.492.164-3.309-1.021-5.108-3.432-5.251-6.73-.222-5.105-.082-10.224-.082-15.335 0-.185.092-.417.222-.55.887-.926 1.792-1.827 2.697-2.735.031-.041.113-.038.27-.082zM.014 25.668v-.775c0-6.9.006-13.802-.014-20.706 0-.536.157-.905.543-1.264.864-.799 1.687-1.646 2.68-2.622v12.231l.23.113C7.58 8.544 11.704 4.443 15.832.338c.059.055.113.113.171.168-2.987 2.998-5.972 5.996-9.11 9.144.38-.051.557-.051.717-.096 3.36-.983 6.037.523 7.506 3.268a7.663 7.663 0 01.935 3.675c-.003 1.857.01 3.718 0 5.576 0 .218-.03.508-.167.645-.977.987-1.984 1.94-3.046 2.964-.014-.273-.034-.516-.034-.758-.003-2.882.04-5.764-.017-8.643-.038-1.932-.625-3.708-2.028-5.122-1.667-1.683-3.876-1.628-5.467.133-1.36 1.503-1.913 3.32-1.933 5.31-.017 1.742.024 3.487-.024 5.228a1.78 1.78 0 01-.447 1.09c-.902.932-1.871 1.799-2.875 2.748zm77.782.222c-.01-.465-.034-.926-.034-1.39-.004-7.783 0-15.565-.004-23.347 0-.222-.02-.44-.037-.857-.833.827-1.564 1.493-2.227 2.22-.447.488-.928.686-1.594.659-1.154-.051-2.308-.014-3.463-.014a5.507 5.507 0 00-.085-.212c.294-.3.58-.607.881-.904.66-.653 1.222-1.54 2.018-1.875.775-.324 1.79-.085 2.701-.082 3.196.007 6.392.014 9.588.024.181 0 .362.02.56.195-.17.027-.344.075-.515.075-1.212.007-2.428.003-3.64.003-.932 0-.932.004-.932.905 0 6.83-.007 13.659.01 20.488 0 .58-.157.997-.574 1.41-.87.864-1.68 1.793-2.513 2.694-.048.007-.096.007-.14.007z" fill="#000"/></mask><g mask="url(#a)"><path transform="rotate(174.787 227.997 26.148)" fill="url(#paint0_linear)" style="mix-blend-mode:multiply" d="M227.997 26.148h247.727v53.364H227.997z"/></g><path d="M31.922 34.662h-1.87V41h-.894v-6.338h-1.865v-.771h4.629v.771zm5.975 4.483h-2.403L34.942 41h-.918l2.29-7.11h.767L39.376 41h-.918l-.561-1.855zm-2.169-.772h1.939l-.972-3.232-.967 3.232zm10.135-3.71h-1.87V41H43.1v-6.338h-1.866v-.771h4.63v.771zm7.284 0h-1.87V41h-.894v-6.338h-1.865v-.771h4.629v.771zm7.537 3.407c0 .97-.207 1.717-.62 2.242-.414.524-1.002.786-1.763.786-.733 0-1.312-.254-1.739-.762-.423-.511-.642-1.232-.659-2.163v-1.338c0-.95.21-1.694.63-2.232.42-.54 1.006-.81 1.758-.81.749 0 1.331.259 1.748.776.42.515.635 1.25.645 2.207v1.294zm-.894-1.245c0-.752-.124-1.31-.371-1.675-.244-.367-.62-.551-1.128-.551-.491 0-.864.185-1.118.556-.25.371-.378.918-.381 1.64v1.275c0 .726.125 1.28.376 1.66.254.381.632.572 1.133.572s.872-.176 1.113-.528c.24-.351.366-.89.376-1.616v-1.333zm8.9 1.245c0 .97-.207 1.717-.62 2.242-.414.524-1.002.786-1.763.786-.733 0-1.312-.254-1.739-.762-.423-.511-.642-1.232-.659-2.163v-1.338c0-.95.21-1.694.63-2.232.42-.54 1.006-.81 1.758-.81.749 0 1.331.259 1.748.776.42.515.635 1.25.644 2.207v1.294zm-.894-1.245c0-.752-.124-1.31-.371-1.675-.244-.367-.62-.551-1.128-.551-.492 0-.864.185-1.118.556-.25.371-.378.918-.381 1.64v1.275c0 .726.125 1.28.376 1.66.254.381.631.572 1.133.572.5 0 .872-.176 1.113-.528.24-.351.366-.89.376-1.616v-1.333zm11.886 2.32h-2.403L76.728 41h-.918l2.29-7.11h.766L81.161 41h-.918l-.561-1.855zm-2.168-.772h1.938l-.971-3.232-.967 3.232zm8.762-.249h-1.25V41h-.898v-7.11h1.992c.697 0 1.224.183 1.582.547.358.362.537.892.537 1.592 0 .44-.097.824-.293 1.153a1.825 1.825 0 01-.82.737l1.377 3.022V41h-.962l-1.265-2.876zm-1.25-.767h1.084c.375 0 .673-.12.894-.36.224-.242.337-.564.337-.968 0-.911-.414-1.367-1.24-1.367h-1.075v2.695zm10.18-2.695h-1.871V41h-.894v-6.338h-1.865v-.771h4.63v.771zM99.186 41h-.893v-7.11h.894V41zm6.673-1.797c0-.355-.096-.627-.288-.815-.192-.19-.538-.373-1.04-.552-.501-.18-.885-.366-1.152-.562a2.068 2.068 0 01-.596-.673 1.88 1.88 0 01-.195-.87c0-.563.187-1.027.561-1.391.378-.365.871-.547 1.48-.547.417 0 .788.094 1.113.283.326.186.576.444.752.776a2.3 2.3 0 01.264 1.094h-.899c0-.44-.105-.78-.317-1.02-.212-.241-.516-.361-.913-.361-.361 0-.641.1-.84.302-.199.202-.298.485-.298.85 0 .3.108.55.322.752.215.202.547.382.997.542.699.23 1.199.516 1.499.854.302.339.454.782.454 1.328 0 .577-.188 1.039-.562 1.387-.374.345-.884.518-1.528.518-.414 0-.796-.09-1.148-.269a2.096 2.096 0 01-.825-.762 2.144 2.144 0 01-.298-1.127h.899c0 .439.122.78.366 1.025.247.244.583.366 1.006.366.394 0 .69-.1.888-.303.199-.201.298-.477.298-.825zm8.236-4.54h-1.87V41h-.894v-6.338h-1.865v-.771h4.629v.771z" fill="#fff"/><defs><linearGradient id="paint0_linear" x1="419.286" y1="16.39" x2="315.146" y2="113.232" gradientUnits="userSpaceOnUse"><stop stop-color="#EB00FF"/><stop offset=".449" stop-color="#5B35FF"/><stop offset=".732" stop-color="#9221FF"/><stop offset="1" stop-color="#0D4ECC"/></linearGradient></defs></svg>