<svg width="122" height="120" fill="none" xmlns="http://www.w3.org/2000/svg"><path d="M60.82 62.34c-3.743 0-6.806 3.063-6.806 6.806 0 3.744 3.063 6.807 6.806 6.807 3.744 0 6.807-3.063 6.807-6.807-.05-3.743-3.063-6.806-6.807-6.806zm0 11.182a4.357 4.357 0 01-4.376-4.376 4.357 4.357 0 014.376-4.375 4.357 4.357 0 014.376 4.375c0 2.431-1.994 4.376-4.376 4.376z" fill="#A2CCCF"/><path d="M120.134 107.068h-8.606V46.441h4.814c.777 0 1.458-.631 1.458-1.458 0-.826-.632-1.458-1.458-1.458h-2.383v-7.633h2.383c.777 0 1.458-.632 1.458-1.459 0-.826-.632-1.458-1.458-1.458h-14.488v-8.557h10.647c.68 0 1.264-.486 1.41-1.167a1.437 1.437 0 00-.827-1.604L62.571.109a1.484 1.484 0 00-1.119 0L10.987 21.647c-.632.292-.972.972-.826 1.604.146.68.73 1.167 1.41 1.167h10.647v8.557H5.3c-.778 0-1.458.632-1.458 1.458 0 .827.632 1.459 1.458 1.459h2.383v7.633H5.299c-.778 0-1.458.632-1.458 1.458 0 .827.632 1.459 1.458 1.459h4.765v60.626H1.459c-.778 0-1.459.632-1.459 1.458v10.015C0 119.319.632 120 1.459 120h118.626c.778 0 1.459-.632 1.459-1.459v-10.015c.048-.826-.632-1.458-1.41-1.458zm-41.18-53.382l-.242-.632a6.3 6.3 0 00-3.695-3.695l-.632-.243v-2.723h24.454v2.723l-.632.243a6.052 6.052 0 00-3.695 3.695l-.243.632H78.955zm15.17 2.917v50.465H79.1V56.603h15.022zM67.53 86.648H54.063c-.778 0-1.459.633-1.459 1.459v18.961H45.41V55.144a3.258 3.258 0 013.257-3.257c.778 0 1.459-.632 1.459-1.459v-4.035h21.343v4.035c0 .778.632 1.459 1.458 1.459a3.258 3.258 0 013.257 3.257v51.924H68.94V88.107c.05-.778-.631-1.459-1.41-1.459zm-1.459 2.918v17.502h-10.55V89.566h10.55zm-38.7-35.88l-.242-.632a6.3 6.3 0 00-3.695-3.695l-.632-.243v-2.723h24.454v2.723l-.632.243a6.052 6.052 0 00-3.695 3.695l-.243.632H27.372zm15.12 2.917v50.465H27.47V56.603h15.023zm-21.148-4.667a3.258 3.258 0 013.257 3.257v51.923H12.98V46.442h6.904v4.035c0 .778.633 1.459 1.46 1.459zm75.697 3.208a3.258 3.258 0 013.258-3.257c.778 0 1.458-.632 1.458-1.459v-4.035h6.904v60.627H97.04V55.144zM18.62 21.55L62.036 3.026l43.367 18.524H18.621zm80.316 2.868v8.557H25.038v-8.557h73.898zM10.55 35.892h100.444v7.633H10.55v-7.633zm108.125 81.191H2.917v-7.147h115.758v7.147z" fill="#A2CCCF"/></svg>