<svg width="91" height="120" fill="none" xmlns="http://www.w3.org/2000/svg"><path d="M83.009 0H7.774C3.496 0 0 3.496 0 7.774v96.104c0 4.279 3.496 7.774 7.774 7.774h.574v4.748c0 1.983 1.617 3.6 3.6 3.6h4.174c1.982 0 3.6-1.617 3.6-3.6v-4.748H71.06v4.748c0 1.983 1.617 3.6 3.6 3.6h4.174c1.982 0 3.6-1.617 3.6-3.6v-4.748h.574c4.278 0 7.774-3.495 7.774-7.774V7.774C90.783 3.496 87.287 0 83.009 0zM16.696 116.4a.58.58 0 01-.574.574h-4.174a.58.58 0 01-.574-.574v-4.748h5.374v4.748h-.052zm62.713 0a.58.58 0 01-.574.574H74.66a.58.58 0 01-.574-.574v-4.748h5.374v4.748h-.052zm8.347-12.522c0 2.609-2.139 4.748-4.747 4.748H7.774c-2.609 0-4.748-2.139-4.748-4.748V7.774c0-2.609 2.14-4.748 4.748-4.748h75.235c2.608 0 4.748 2.14 4.748 4.748v96.104z" fill="#A2CCCF"/><path d="M9.287 30.783v-6.261c0-1.461 1.2-2.661 2.66-2.661 1.462 0 2.662 1.2 2.662 2.66v6.262c0 1.46-1.2 2.66-2.661 2.66s-2.661-1.2-2.661-2.66zm0 56.4v-6.261c0-1.461 1.2-2.661 2.66-2.661 1.462 0 2.662 1.2 2.662 2.66v6.262c0 1.46-1.2 2.66-2.661 2.66s-2.661-1.2-2.661-2.66zm68.035-20.296H74.66a2.672 2.672 0 01-2.661-2.66V47.53c0-1.46 1.2-2.66 2.66-2.66h2.662v22.017zm1.46-56.452H11.948c-.835 0-1.513.678-1.513 1.513v7.043l-.313.105a5.674 5.674 0 00-3.861 5.373v6.261a5.674 5.674 0 003.86 5.374l.314.105V75.39l-.313.105A5.674 5.674 0 006.26 80.87v6.26a5.674 5.674 0 003.86 5.374l.314.105v7.043c0 .835.678 1.513 1.513 1.513h66.835c.834 0 1.513-.678 1.513-1.513V11.896c0-.783-.679-1.461-1.514-1.461zm-1.46 31.356H74.66c-3.13 0-5.687 2.557-5.687 5.687v16.696c0 3.13 2.556 5.687 5.687 5.687h2.66v28.33H13.46v-5.53l.313-.105a5.674 5.674 0 003.86-5.373v-6.261a5.674 5.674 0 00-3.86-5.374l-.313-.105V36.261l.313-.105a5.674 5.674 0 003.86-5.373v-6.261a5.674 5.674 0 00-3.86-5.374l-.313-.104v-5.531h63.86v28.278z" fill="#A2CCCF"/><path d="M45.391 41.791c-7.721 0-14.035 6.314-14.035 14.035 0 6.992 5.218 12.94 12.157 13.93l.417.053v2.765a1.514 1.514 0 003.026 0V69.81l.418-.052c6.939-.94 12.156-6.94 12.156-13.93-.104-7.722-6.417-14.035-14.139-14.035zm0 25.096c-6.104 0-11.06-4.956-11.06-11.008 0-6.105 4.956-11.01 11.06-11.01 6.105 0 11.009 4.957 11.009 11.01 0 6.052-4.957 11.008-11.009 11.008z" fill="#A2CCCF"/><path d="M45.391 50.14c-3.13 0-5.687 2.556-5.687 5.686s2.557 5.687 5.687 5.687c3.13 0 5.687-2.556 5.687-5.687 0-3.13-2.556-5.687-5.687-5.687zm0 8.347c-1.46 0-2.66-1.2-2.66-2.66 0-1.462 1.2-2.662 2.66-2.662 1.46 0 2.66 1.2 2.66 2.661s-1.2 2.661-2.66 2.661z" fill="#A2CCCF"/></svg>