<svg width="113" height="120" fill="none" xmlns="http://www.w3.org/2000/svg"><path d="M110.027 56.188c-.864-2.254-1.823-4.413-2.783-6.524-2.399-5.325-4.701-10.362-4.989-16.599-.336-6.86 1.199-14.008 4.318-20.196l.047-.144.096-.096a1.55 1.55 0 00.384-1.008c0-.767-.623-1.439-1.439-1.439H93.044c-12.617.624-25.378-2.926-35.884-9.93a1.37 1.37 0 00-1.583 0c-10.506 7.004-23.267 10.506-35.884 9.93H6.885c-.768 0-1.44.624-1.44 1.44 0 .383.144.72.384 1.007l.096.096.048.144c3.07 6.476 4.413 14.2 3.79 21.78-.48 5.66-2.59 10.746-4.654 15.639-1.39 3.262-2.782 6.668-3.694 10.17-2.062 8.012-1.87 15.495.576 21.588 5.085 12.76 18.422 19.141 30.175 24.754 2.207 1.056 4.798 2.303 7.292 3.454 5.613 2.543 11.418 5.181 15.735 9.163.432.384.72.528 1.056.576.431.048.815-.144 1.295-.528 3.502-3.118 8.011-5.325 12.33-7.436 2.014-1.007 4.125-1.967 6.14-2.878 8.49-3.982 17.318-8.06 24.562-14.056 8.155-6.764 12.137-14.392 12.137-23.411.048-5.517-.863-10.698-2.686-15.495zM98.801 92.792c-3.31 2.734-7.148 5.133-11.13 7.292-3.982 2.159-8.06 4.078-11.897 5.901l-.096.048c-1.871.863-3.598 1.679-5.277 2.542-.576.288-1.152.576-1.727.816-4.03 1.919-8.156 3.933-11.658 6.716l-.623.48-.576-.48c-4.462-3.646-9.883-6.093-15.16-8.491a110.674 110.674 0 01-4.605-2.159c-.864-.432-1.727-.816-2.59-1.247C22.188 98.789 9.427 92.696 4.726 80.943c-2.207-5.517-2.351-12.377-.48-19.813.911-3.502 2.35-6.813 3.742-10.027 1.535-3.55 3.166-7.244 3.934-11.081 1.727-8.396.959-17.51-2.255-25.714l-.528-1.295h10.506c.912.048 1.871.048 2.879.048 11.657 0 23.506-3.406 33.34-9.643l.529-.336.527.336c10.746 6.764 23.603 10.17 36.22 9.547h10.218l-.575 1.343c-4.078 9.643-4.558 20.437-1.344 29.6.816 2.35 1.967 4.653 3.071 6.907 1.007 2.015 2.063 4.126 2.878 6.333 1.679 4.461 2.543 9.307 2.543 14.392-.048 8.155-3.694 15.111-11.13 21.252z" fill="#A2CCCF"/><path d="M102.111 62.857c-.719-2.783-1.967-5.613-3.262-8.635-1.63-3.79-3.502-8.06-4.51-12.81-1.343-6.428-1.39-13.336-.143-19.956.096-.432-.048-.863-.336-1.2-.288-.335-.672-.527-1.151-.479l-1.44.048h-1.103c-2.542 0-5.085-.144-7.58-.432-.623-.048-1.151-.144-1.679-.192-.575-.096-1.103-.144-1.679-.24a50.455 50.455 0 00-1.583-.287h-.096a13.141 13.141 0 00-1.343-.24c-6.716-1.392-13.193-3.742-19.19-7.052a3.32 3.32 0 00-.383-.144h-.528c-.048 0-.096 0-.144.048-.096.048-.24.048-.336.144-5.996 3.262-12.425 5.66-19.189 7.052-.432.096-.911.192-1.343.24h-.096c-.576.095-1.055.191-1.583.287-.576.096-1.104.192-1.68.24-.527.048-1.055.144-1.678.192a66.08 66.08 0 01-7.532.432h-1.151l-1.44-.048c-.431 0-.863.144-1.15.48-.289.335-.385.767-.337 1.199 1.248 6.668 1.2 13.576-.144 19.957-.96 4.75-2.83 9.019-4.51 12.809-1.294 3.022-2.542 5.852-3.261 8.635-.816 3.118-1.152 6.044-1.104 8.779v.144c0 1.439.192 2.878.528 4.221v.192c.192.816.432 1.631.768 2.399 3.022 7.58 11.081 12.521 18.517 16.359 3.502 1.87 7.196 3.598 10.41 5.133 2.207 1.055 4.558 2.159 7.196 3.454 2.783 1.343 5.661 2.734 8.54 4.509.24.144.48.192.72.192h.239c.24 0 .528-.096.72-.192 2.83-1.727 5.708-3.118 8.539-4.509 2.542-1.247 4.893-2.351 7.196-3.454 3.214-1.535 6.908-3.262 10.41-5.133 13.337-6.812 16.839-12.09 18.566-16.359.287-.768.575-1.583.767-2.399v-.143c.336-1.344.48-2.783.528-4.222v-.096c.192-2.879-.144-5.853-.96-8.923zm-55.649-44.28a72.82 72.82 0 009.5-4.125l.431-.24.432.24c2.686 1.391 5.517 2.687 8.443 3.742l.864.336-5.71 16.838h-9.258L45.55 18.865l.911-.287zm23.891 69.226v1.87L42.865 69.238l.047-.24a176.81 176.81 0 011.871-9.258l.336-1.44 24.706 18.374.048.432c.336 3.742.48 7.34.48 10.698zM45.887 55.037l.144-.623c1.919-7.148 3.838-12.665 4.845-15.352l.24-.623h9.355l.24.623c1.727 4.606 5.948 16.887 8.203 31.039l.384 2.302-23.411-17.366zM38.45 94.52l.144 1.68-1.535-.72a210.64 210.64 0 01-6.525-3.215c-4.413-2.35-7.867-4.557-10.506-6.764-3.933-3.214-6.188-6.332-7.1-9.786-.287-1.2-.48-2.543-.527-3.934v-.096c-.048-2.495.288-5.181 1.007-8.108.672-2.542 1.871-5.277 3.118-8.203v-.048c.336-.768.672-1.535 1.008-2.35 1.343-3.119 2.782-6.86 3.646-10.986 1.2-5.853 1.39-12.138.623-18.278l-.143-1.056h3.598l1.104-.047h.336l1.007-.049c.288 0 .528-.047.816-.047h.24c.287 0 .575-.049.863-.096h.144c.288-.048.624-.049.911-.096h.096c.192 0 .336-.048.528-.048l.288-.048c.384-.048.815-.096 1.2-.144.431-.048.815-.144 1.247-.192h.096c.671-.096 1.39-.24 2.062-.384l1.44-.288c.911-.192 1.822-.431 2.83-.671l1.007-.288c.048 0 .096-.048.144-.048l1.008-.288L48.429 37l-.144.336c-1.055 2.735-3.741 10.123-6.14 19.861-3.502 14.104-4.75 26.721-3.694 37.323zm30.271 4.222c-.144.096-.336.144-.48.24-3.502 1.583-7.531 3.406-11.321 5.708l-.48.288-.48-.288c-3.79-2.254-7.771-4.077-11.321-5.708-.528-.24-1.104-.48-1.632-.768l-.959-.432-.096-.527c-1.007-6.669-.96-14.392.144-22.98l.192-1.487v-.144L70.113 93.32l-.048.528c-.096.959-.383 3.406-.527 4.509l-.432.192c-.144.096-.288.144-.384.192zm31.662-27.105v.096a20.014 20.014 0 01-.527 3.934c-.96 3.454-3.215 6.572-7.1 9.786-2.639 2.207-6.093 4.414-10.507 6.764-2.302 1.2-4.653 2.303-6.956 3.407-.144.095-.287.143-.48.24-.143.047-.24.143-.383.191l-1.535.768.192-1.727c1.151-10.698-.096-23.507-3.646-38.043-2.399-9.738-5.085-17.126-6.14-19.86l-.145-.337 5.9-17.414.912.288c.432.144.912.288 1.344.384l1.007.288c1.008.24 1.919.48 2.83.671l1.44.288c.72.144 1.439.288 2.159.384.383.048.815.144 1.247.192.431.048.815.096 1.247.144l.288.048c.192 0 .336.048.528.048h.096c.335.048.623.048.959.096h.144c.288.048.576.048.863.096h.24c.288 0 .576.048.816.048l1.007.047h.336l1.104.049h3.598l-.144 1.055c-.816 6.14-.624 12.425.623 18.278.864 4.125 2.35 7.867 3.646 10.986.336.815.672 1.583 1.008 2.35l.047.096c1.248 2.879 2.447 5.613 3.119 8.155.575 3.023.911 5.757.863 8.204z" fill="#A2CCCF"/></svg>