<svg width="119" height="100" fill="none" xmlns="http://www.w3.org/2000/svg"><g clip-path="url(#clip0)"><path d="M112.762 42.416c3.19 0 5.805-2.615 5.805-5.753v-4.132c0-3.19-2.615-5.753-5.805-5.753-2.772 0-5.178 1.988-5.701 4.76l-.21 1.098-7.688-26.935A7.845 7.845 0 0091.632 0h-64.75c-3.451 0-6.59 2.354-7.53 5.7l-7.689 26.884-.209-1.099c-.47-2.772-2.877-4.76-5.7-4.76C2.614 26.726 0 29.342 0 32.532v4.132c0 3.19 2.615 5.753 5.805 5.753.994 0 1.988-.261 2.825-.732l.575-.314-.575 1.935h-.157c-3.714.733-6.433 3.975-6.433 7.741v17.26l-.157.052C.733 69.038 0 70.293 0 71.6v4.132c0 1.36.732 2.615 1.935 3.243l.157.052v.785c0 2.824 1.517 5.44 3.975 6.799l.105.105v7.479c0 3.19 2.615 5.753 5.805 5.753h6.171c3.19 0 5.806-2.615 5.806-5.753v-6.538h70.711v6.538c0 3.19 2.615 5.753 5.806 5.753h6.171c3.191 0 5.806-2.615 5.806-5.753v-7.48l.104-.104c2.458-1.412 3.975-4.027 3.975-6.8v-.784l.157-.052c1.203-.68 1.935-1.883 1.935-3.243V71.6c0-1.36-.732-2.615-1.935-3.242l-.157-.053V51.046c0-3.766-2.667-7.008-6.381-7.688h-.156l-.576-1.935.576.313c.784.419 1.778.68 2.772.68zm-2.459-9.885a2.456 2.456 0 012.459-2.458 2.456 2.456 0 012.458 2.458v4.132a2.456 2.456 0 01-2.458 2.458 2.456 2.456 0 01-2.459-2.458v-4.132zM8.211 36.663a2.455 2.455 0 01-2.458 2.458 2.455 2.455 0 01-2.458-2.458v-4.132a2.455 2.455 0 012.458-2.458 2.455 2.455 0 012.458 2.458v4.132zM22.541 6.59a4.488 4.488 0 014.342-3.243h64.749c1.987 0 3.765 1.36 4.34 3.243l.472 1.621h-74.32l.418-1.621zM12.187 42.887l8.944-31.328h76.255l9.048 31.642H12.082l.104-.314zM3.713 76.098c-.209 0-.366-.157-.366-.418v-4.132c0-.21.157-.418.366-.418h37.448v.418c0 1.465.419 2.877 1.15 4.08l.262.418h-2.301l-18.88-.052s.104 0 .313.052H3.713v.052zm9.885-14.749a6.54 6.54 0 016.538-6.537c3.609 0 6.59 2.929 6.59 6.537 0 3.61-2.929 6.538-6.59 6.538-3.556 0-6.538-2.929-6.538-6.538zm6.956 32.898a2.455 2.455 0 01-2.458 2.458h-6.119a2.455 2.455 0 01-2.458-2.458v-6.59h11.088v6.59h-.053zm88.494 0a2.455 2.455 0 01-2.458 2.458h-6.172a2.455 2.455 0 01-2.458-2.458v-6.538h11.036l.052.262v6.276zm4.08-14.383c0 2.51-2.04 4.498-4.498 4.498H9.885a4.498 4.498 0 01-4.498-4.498v-.418h107.741v.418zm-39.07-16.841v4.916H44.457v-4.916H74.06zm-29.602-3.347v-4.917H74.06v4.917H44.456zM74.06 71.234v.419c0 2.458-2.04 4.498-4.498 4.498H49.006a4.498 4.498 0 01-4.498-4.498v-.419h29.55zm40.742 0c.209 0 .419.157.419.419v4.131c0 .21-.157.419-.419.419H75.994l.261-.419c.785-1.255 1.15-2.667 1.15-4.131v-.419h37.396zM91.789 61.35a6.54 6.54 0 016.537-6.537c3.609 0 6.59 2.929 6.59 6.537 0 3.61-2.929 6.538-6.59 6.538a6.54 6.54 0 01-6.537-6.538zm21.339-10.303v16.841h-7.375l.314-.418a9.802 9.802 0 002.144-6.12c0-5.439-4.445-9.885-9.885-9.885-5.439 0-9.885 4.446-9.885 9.885 0 2.25.733 4.394 2.145 6.12l.314.418H77.406v-4.916h4.498c.941 0 1.673-.732 1.673-1.674 0-.941-.732-1.674-1.673-1.674h-4.498v-4.916h4.498c.941 0 1.673-.732 1.673-1.674 0-.94-.732-1.673-1.673-1.673h-45.24c-.942 0-1.675.732-1.675 1.673 0 .942.733 1.674 1.674 1.674h4.498v4.916h-4.498c-.941 0-1.673.733-1.673 1.674 0 .942.732 1.674 1.673 1.674h4.498v4.916H27.615l.314-.418c1.412-1.779 2.144-3.87 2.144-6.12 0-5.439-4.445-9.885-9.885-9.885-5.439 0-9.885 4.446-9.885 9.885 0 2.25.733 4.394 2.145 6.12l.313.418H5.388V51.046c0-2.458 2.04-4.498 4.498-4.498h98.745a4.465 4.465 0 014.498 4.498z" fill="#A2CCCF"/></g><defs><clipPath id="clip0"><path fill="#fff" d="M0 0h118.515v100H0z"/></clipPath></defs></svg>