<svg width="100" height="100" fill="none" xmlns="http://www.w3.org/2000/svg"><path d="M51.196 45.498h40.192v41.844H51.153V45.498h.043zm-42.627 0h40.235v41.844H8.569V45.498zM97.65 97.651H2.392v-7.916h95.26v7.916zm1.175-10.309H93.78V45.498h.913a1.17 1.17 0 001.175-1.174 1.17 1.17 0 00-1.175-1.175h-5.567v-4.523c0-2.001-.522-3.959-1.523-5.699-.783-1.348-1.827-2.566-3.044-3.48-1-.739-2.219-1.348-3.654-1.87-1-.348-2.045-.565-3.088-.652l-.74-.044v-3.305l.218-.218c.26-.261.478-.479.695-.783l.218-.305h7.873a1.17 1.17 0 001.174-1.174v-4.22c0-4.044-1.61-8.177-4.436-11.395C79.774 2.044 75.729.087 71.422 0h-1.044C68.9 0 67.551.174 66.29.522h-.044c-3.393.826-6.437 3.088-8.612 6.307-2.045 3.001-3.175 6.568-3.175 10.048v4.176a1.17 1.17 0 001.174 1.174h7.873l.217.305c.261.304.479.608.783.87l.261.217v3.219l-.74.043c-.173 0-.39.044-.565.044-3.131.391-5.915 1.783-7.873 3.915-.565.652-1.087 1.304-1.478 2a11.41 11.41 0 00-1.523 5.698v4.524h-6.133V38.54c0-.87-.087-1.74-.304-2.567-.87-3.871-3.785-7.09-7.569-8.351a12.303 12.303 0 00-3.001-.696c-.13 0-.261-.044-.435-.044l-.74-.043v-3.48l.218-.218a8.726 8.726 0 002.48-6.133v-5.089a8.876 8.876 0 00-1.001-4.089l-.174-.304.13-.348c.261-.696.348-1.174.392-1.218.043-.26.043-.565-.13-.826-.044-.087-.61-1.088-1.915-2.045-1.174-.826-3.218-1.87-6.394-1.87-3.915 0-7.046 1.783-9.004 5.176-1.435 2.48-1.74 4.959-1.783 5.046-.044.348.087.696.304.913.218.261.566.392.87.392h1.218v4.175c0 2.35.914 4.524 2.567 6.22l.217.218v3.393l-.74.043c-.173 0-.39.044-.565.044-3.871.478-7.307 2.566-9.134 5.567-.61 1-1.044 2.045-1.349 3.089a11.27 11.27 0 00-.391 2.958v4.523H5.307a1.17 1.17 0 00-1.175 1.175 1.17 1.17 0 001.175 1.174h.913v42.018H1.174A1.17 1.17 0 000 88.517v10.309A1.17 1.17 0 001.174 100h97.652A1.17 1.17 0 00100 98.826v-10.31c0-.608-.522-1.174-1.174-1.174zM20.4 9.352c.218-.61.522-1.175.827-1.74 1.566-2.653 3.914-4.002 6.96-4.002 3.131 0 4.87 1.218 5.61 1.914l.392.348-.174.479a5.306 5.306 0 01-.305.739c-.957 2.131-2.436 3.306-4.088 3.306h-9.57l.348-1.044zm1.61 7.655v-4.175h8.047c.478-.044.957-.13 1.435-.305a6.416 6.416 0 002.044-1.174l.044-.044 1.305-1.174v6.873c0 1.913-.827 3.697-2.306 4.958-1.174 1-2.653 1.479-4.132 1.479a6.486 6.486 0 01-4.002-1.392c-1.566-1.218-2.435-3.088-2.435-5.046zm10.221 8.047v3.002c-.13.913-.522 1.74-1.087 2.305-.609.609-1.435.913-2.523.957h-.13c-1.088 0-1.914-.305-2.567-.87-.609-.565-1-1.435-1.13-2.392V25.14l1.043.305a8.98 8.98 0 005.35-.044h.044l1-.348zM12.658 43.106v-4.524c0-.783.087-1.566.304-2.349.174-.696.435-1.392.827-2 .174-.349.391-.653.609-.958l.739-1.044 5.742 10.875h-8.221zm10.874 0l-6.481-12.354.74-.348c.521-.26 1-.434 1.522-.608.826-.261 1.696-.479 2.61-.522l.522-.044 7.785 13.876h-6.698zm20.705 0h-5.785V39.93a1.17 1.17 0 00-1.175-1.174 1.17 1.17 0 00-1.174 1.174v3.176h-3.22l-5.262-9.352 1.392-.087c1.304-.087 2.435-.479 3.218-1.131 1.48-1.175 1.914-2.436 2.001-2.697v-.043l.218-.566.609.044c.174 0 .348.043.522.043.696.087 1.392.261 2.088.479 3.218 1.087 5.48 3.436 6.307 6.437a8.71 8.71 0 01.304 2.349v4.524h-.043zm37.407-35.45l.783 1.174c1.61 2.48 2.523 5.307 2.523 8.047v3.001h-5.48l.173-.957a.958.958 0 00.044-.348c.043-.391.087-.783.087-1.174V13.44c0-.522-.13-1-.348-1.48l-.261-.521.435-.392a7.497 7.497 0 001.479-2.088l.565-1.305zm-19.53 5.785v3.958c0 .348.044.74.087 1.044.044.174.044.348.087.478l.174.957h-5.48v-3.001c0-4.263 1.696-7.395 3.131-9.265 1.827-2.392 4.35-4.132 6.873-4.785h.043c1.044-.304 2.175-.435 3.436-.435h1.001c2.827.044 5.524 1.044 7.786 2.915l.391.304-.087.479c-.13.609-.304 1.218-.565 1.696-.74 1.653-1.914 2.48-3.48 2.48H65.29a3.165 3.165 0 00-3.175 3.175zm2.392 4.35v-5.178h12.876V17.4c0 .652-.088 1.305-.305 1.914-.391 1.087-1.044 2.044-1.914 2.74-1.087.87-2.61 1.348-4.22 1.348-.608 0-1.174-.087-1.782-.217-2.567-.522-4.48-2.784-4.655-5.394zm10.179 7.394v2.436c0 2.131-1.48 3.654-3.61 3.697h-.088c-1.043 0-2-.348-2.696-1-.696-.696-1.044-1.61-1.044-2.697v-2.393l1 .261c.348.087.74.174 1.088.218h.043c1.044.13 2.044.13 3.045 0a6.1 6.1 0 001.218-.261l1.044-.261zm-19.53 17.92v-4.523c0-1.566.39-3.132 1.174-4.524.13-.26.304-.522.522-.783l.74-1.044 5.697 10.875h-8.134zm10.83 0l-6.48-12.352.695-.349s.044 0 .044-.043l.348.696-.348-.696c1.13-.565 2.435-.913 3.697-1.044.13 0 .217-.043.304-.043l.522-.044 7.786 13.876h-6.568zm20.748 0h-5.437V39.93a1.17 1.17 0 00-1.174-1.174 1.17 1.17 0 00-1.175 1.174v3.176h-3.566l-5.263-9.352 1.348-.044c1.261-.087 2.392-.478 3.306-1.174.826-.653 1.478-1.523 1.913-2.61 0-.043.044-.087.044-.13l.218-.566.608.044c.87.087 1.74.26 2.61.522l.392.13a8.877 8.877 0 015.002 4.132c.783 1.392 1.218 2.958 1.218 4.524v4.524h-.044z" fill="#fff"/><path d="M41.105 55.85c-1.827 0-3.35-1.392-3.35-3.131a1.17 1.17 0 00-1.174-1.175h-15.79a1.17 1.17 0 00-1.174 1.175c0 1.74-1.522 3.131-3.349 3.131a1.17 1.17 0 00-1.174 1.175v18.747a1.17 1.17 0 001.174 1.175c1.827 0 3.35 1.392 3.35 3.132a1.17 1.17 0 001.174 1.174h15.79a1.17 1.17 0 001.174-1.174c0-1.74 1.522-3.132 3.35-3.132a1.17 1.17 0 001.173-1.175V57.025c.044-.61-.522-1.175-1.174-1.175zm-1.174 18.878l-.566.174c-1.74.522-3.132 1.87-3.697 3.524l-.174.522H21.879l-.174-.522c-.565-1.653-1.957-2.958-3.697-3.524l-.565-.174V58.156l.565-.174c1.74-.522 3.132-1.87 3.697-3.523l.174-.523h13.615l.174.523c.565 1.652 1.957 2.957 3.697 3.523l.566.174v16.572zM83.732 55.85c-1.827 0-3.35-1.392-3.35-3.131a1.17 1.17 0 00-1.174-1.175h-15.79a1.17 1.17 0 00-1.174 1.175c0 1.74-1.478 3.131-3.349 3.131a1.17 1.17 0 00-1.174 1.175v18.747a1.17 1.17 0 001.174 1.175c1.827 0 3.35 1.392 3.35 3.132a1.17 1.17 0 001.174 1.174h15.79a1.17 1.17 0 001.174-1.174c0-1.74 1.522-3.132 3.349-3.132a1.17 1.17 0 001.174-1.175V57.025c0-.61-.522-1.175-1.174-1.175zm-1.218 18.878l-.565.174c-1.74.522-3.132 1.87-3.698 3.524l-.174.522H64.463l-.174-.522c-.566-1.653-1.958-2.958-3.697-3.524l-.523-.174V58.156l.566-.174c1.74-.522 3.132-1.87 3.697-3.523l.174-.523h13.615l.174.523c.565 1.652 1.957 2.957 3.697 3.523l.566.174v16.572h-.044z" fill="#fff"/></svg>