<svg width="100" height="100" fill="none" xmlns="http://www.w3.org/2000/svg"><path d="M26.716 43.624c-.16-.046-.32-.092-.44-.092-.56 0-1.08.413-1.28 1.055l-8.401 27.064c-.24.826.12 1.698.84 1.973.16.046.32.092.44.092.56 0 1.08-.413 1.28-1.055l8.4-27.065c.24-.78-.12-1.697-.84-1.972zm40.242 20.138c1.08 0 3.12-.55 4.68-4.312 1-2.431 1.56-5.597 1.56-8.945 0-3.349-.56-6.56-1.56-8.945-1.56-3.762-3.6-4.312-4.68-4.312-1.08 0-3.12.55-4.68 4.312-1 2.43-1.56 5.596-1.56 8.945 0 3.348.56 6.56 1.56 8.945 1.56 3.761 3.6 4.312 4.68 4.312zm-2.24-20.872c.68-1.605 1.48-2.523 2.24-2.523.76 0 1.56.963 2.24 2.523.84 1.972 1.28 4.77 1.28 7.615 0 2.844-.48 5.642-1.28 7.614-.68 1.606-1.48 2.523-2.24 2.523-.76 0-1.56-.963-2.24-2.523-.84-1.972-1.28-4.77-1.28-7.614 0-2.89.48-5.643 1.28-7.615zm7.12 41.789h-9.76c-.76 0-1.36.688-1.36 1.56 0 .871.6 1.56 1.36 1.56h9.76c.76 0 1.36-.689 1.36-1.56 0-.826-.6-1.56-1.36-1.56zm-54.523-1.972l-4.8-1.973c-.16-.046-.32-.092-.44-.092-.2 0-.4.046-.6.138-.32.183-.56.504-.68.871-.24.826.12 1.698.84 1.973l4.8 1.973c.68.275 1.48-.138 1.72-.964.24-.734-.12-1.651-.84-1.926z" fill="#fff"/><path d="M98.4 17.982H82.359V1.56c0-.872-.6-1.56-1.36-1.56H52.917c-.76 0-1.36.688-1.36 1.56v28.807h-8.68l2.92-9.404c.12-.413.12-.825-.04-1.192a1.49 1.49 0 00-.76-.78l-16.801-6.835c-2.36-.918-3.24-.046-3.52.23-.68.687-1.04 1.88-1.32 2.843-.04.184-23.282 74.954-23.282 74.954-.24.826.12 1.698.84 1.973l19.041 7.752c.16.046.32.092.44.092.56 0 1.08-.413 1.28-1.055l17.921-57.982V98.35c0 .871.6 1.56 1.36 1.56H98.64c.76 0 1.361-.689 1.361-1.56V19.77c0-1.01-.72-1.79-1.6-1.79zm-78.885 78.44l-16.44-6.697 4.72-15.321 18.88-59.633 16.122 6.56-23.282 75.091zm32.042.367h-9.24v-8.395h9.24v8.395zm0-11.514h-9.24V45h9.24v40.275zm0-43.394h-9.24v-8.395h9.24v8.395zm2.72-38.762H79.64v8.716H54.277V3.119zm0 11.835H79.64v8.395H54.277v-8.395zm0 11.514H79.6v70.321H54.237V26.468h.04zM97.24 96.789H82.319v-8.716h14.92v8.716zm0-11.835H82.319v-8.348h14.92v8.348zm0-11.514H82.319V21.1h14.92v52.34z" fill="#fff"/></svg>