<svg width="139" height="107" fill="none" xmlns="http://www.w3.org/2000/svg"><path d="M80.136 25.454H12.943C5.824 25.454 0 31.278 0 38.396v66.385c0 .647.377 1.24.97 1.51.216.108.432.108.648.108.377 0 .809-.162 1.078-.432l15.747-14.614h61.693c7.118 0 12.889-5.77 12.889-12.943V38.342c.054-7.118-5.77-12.888-12.889-12.888zm9.707 52.956c0 5.339-4.368 9.707-9.653 9.707H17.796c-.431 0-.809.162-1.078.432L3.236 101.06V38.342c0-5.339 4.368-9.707 9.707-9.707H80.19c5.339 0 9.653 4.368 9.653 9.707V78.41z" fill="#A2CCCF"/><path d="M125.057 0H57.81c-7.118 0-12.889 5.824-12.889 12.943v12.51h3.236v-12.51c0-5.34 4.368-9.707 9.653-9.707h67.247c5.339 0 9.707 4.368 9.707 9.707v62.663l-13.482-12.511c-.323-.27-.701-.431-1.078-.431H89.897v3.235h29.714l15.746 14.614c.324.27.702.432 1.079.432.216 0 .431-.054.647-.108a1.66 1.66 0 00.971-1.51V12.943C138 5.824 132.176 0 125.057 0zM77.655 63.473H19.36a1.45 1.45 0 00-1.456 1.456 1.45 1.45 0 001.456 1.456h58.295a1.45 1.45 0 001.456-1.456 1.45 1.45 0 00-1.456-1.456z" fill="#A2CCCF"/><path d="M77.655 51.932H19.36a1.45 1.45 0 00-1.456 1.456 1.45 1.45 0 001.456 1.456h58.295a1.45 1.45 0 001.456-1.456 1.45 1.45 0 00-1.456-1.456zM50.692 77.98H19.468a1.335 1.335 0 01-1.348-1.35c0-.754.593-1.347 1.348-1.347h31.224c.755 0 1.348.593 1.348 1.348 0 .755-.593 1.348-1.348 1.348zm-7.335-34.838H19.791a1.335 1.335 0 01-1.348-1.349c0-.755.593-1.348 1.348-1.348h23.566c.755 0 1.349.593 1.349 1.349 0 .755-.594 1.348-1.349 1.348zm35.754 0h-25.13a1.335 1.335 0 01-1.348-1.349c0-.755.593-1.348 1.348-1.348h25.13c.755 0 1.348.593 1.348 1.349 0 .755-.593 1.348-1.348 1.348z" fill="#A2CCCF"/></svg>