<svg width="129" height="120" fill="none" xmlns="http://www.w3.org/2000/svg"><path d="M118.65 30.428h-4.466l-.259-.727a6.819 6.819 0 00-6.439-4.621H95.855V7.01a1.52 1.52 0 00-.987-1.402l-3.427-1.142C90.09 3.998 77.68 0 64.284 0c-13.5 0-25.807 3.998-27.157 4.466L33.7 5.608c-.623.208-.987.779-.987 1.402v18.07H21.082a6.818 6.818 0 00-6.439 4.621l-.26.727H9.918C4.466 30.428 0 34.894 0 40.346v69.736C0 115.534 4.466 120 9.918 120h108.68c5.452 0 9.918-4.466 9.918-9.918V40.294c.052-5.452-4.414-9.866-9.866-9.866zM84.794 12.93c-4.102-1.091-12.254-2.908-20.458-2.908-8.256 0-16.357 1.817-20.459 2.908-.623.155-1.09.778-1.09 1.401v10.697h-7.062V8.048l2.388-.778c.104-.052 12.826-4.31 26.223-4.31 13.085 0 25.703 4.102 26.222 4.31l2.389.83v16.98h-7.062V14.331c0-.675-.467-1.246-1.09-1.401zm-39.1 2.544l.831-.208c4.414-1.038 11.06-2.336 17.81-2.336 6.751 0 13.398 1.246 17.811 2.336l.831.208v9.554h-37.23v-9.554h-.053zM22.691 67.036l31.312 8.048v4.466c0 3.375 2.752 6.18 6.179 6.18h8.36c3.375 0 6.179-2.753 6.179-6.18v-4.466l31.311-8.048c4.933-1.246 8.36-5.712 8.36-10.749v-22.95h4.362a6.959 6.959 0 016.958 6.957v65.998H3.116V40.294a6.958 6.958 0 016.958-6.958h4.361v22.951c-.104 5.089 3.324 9.503 8.257 10.749zm49.018 4.206v8.36a3.236 3.236 0 01-3.22 3.22h-8.36a3.236 3.236 0 01-3.219-3.22v-8.36a3.236 3.236 0 013.22-3.22h8.36a3.202 3.202 0 013.22 3.22zm39.671-14.955a8.64 8.64 0 01-.259 2.025c-.727 2.908-3.012 5.141-5.868 5.868l-30.48 7.84-.104-1.297c-.208-3.168-2.856-5.712-6.075-5.712h-8.516a6.084 6.084 0 00-6.075 5.712l-.104 1.298-30.533-7.841c-2.907-.727-5.14-3.012-5.867-5.868-.156-.675-.26-1.35-.26-2.025V38.84h94.089v17.447h.052zM17.291 35.932V31.83a3.834 3.834 0 013.843-3.842h86.404a3.833 3.833 0 013.842 3.842v4.102H17.291zm108.369 73.319l-.052 1.143c-.156 3.686-3.219 6.594-6.958 6.594H9.97a6.958 6.958 0 01-6.958-6.594l-.052-1.143h122.7z" fill="#A2CCCF"/></svg>