<svg width="70" height="66" fill="none" xmlns="http://www.w3.org/2000/svg"><path d="M13.407 41.242a22.346 22.346 0 01-.822-3.122h-.446l-8.146-.006 8.133-21.635-.01-3.191v-.035l-9.53 24.86L0 38.124s.802 1.537 2.727 3.119c1.917 1.574 4.95 3.194 9.412 3.381.285.013.573.019.87.019h1.875c-.125-.245-.248-.485-.363-.719-.43-.873-.8-1.769-1.114-2.683zm53.029-3.079l-9.413-24.55-.016-.042-.08-.207v.169l-.01 3.057.08.21.026.073 8.003 21.294-8.003-.026-.471-.001a22.107 22.107 0 01-1.878 5.671 61.88 61.88 0 01-.447.883h1.786c.346 0 .682-.009 1.012-.025 4.434-.22 7.438-1.852 9.333-3.427 1.88-1.564 2.665-3.066 2.665-3.066l-2.587-.013zm-31.9-15.568l6.78.011-.01-3.733-10.052.038h-.15l.001 22.331.002 10.498c.797 1.21 1.74 2.202 3.427 3.352a.02.02 0 01.008.004.46.46 0 00.03-.022l-.061-32.48.025.001z" fill="#fff"/><path d="M39.239 9.962L21.307 9.92s-.06 27.058-.06 29.304c0 .296.411 1.098.948 2.021 1.018 1.745 2.49 3.92 2.49 3.92l-.002-3.92-.01-27.311s12.056-.033 14.63-.033c4.97 0 5.649 2.758 5.649 7.179s-5.376 9.797-5.376 9.797 4.56-.544 4.56 5.034c0 1.865-.545 3.669-1.376 5.332-1.978 3.965-5.572 7.145-7.275 8.507l.016 4.654c5.09-3.78 8.926-8.649 10.936-13.162 1.022-2.295 1.575-4.5 1.575-6.421.002-4.218-3.266-5.376-3.266-5.376s3.451-3.28 3.348-10.46c-.03-2.052-.476-3.64-1.154-4.865-2.397-4.337-7.701-4.158-7.701-4.158z" fill="#fff"/><path d="M55.536 38.234c.007-.033.012-.066.02-.096a21.55 21.55 0 00.417-4.144l.069-19.734.01-3.18.017-4.886c-2.694-1.729-5.446-2.975-8.043-3.875C40.818-.179 34.806-.003 34.536.006h-.011c-.232-.007-1.486-.031-3.407.145C27.007.528 19.83 1.827 13.02 6.194l.016 4.654.01 3.176.071 19.979a21.364 21.364 0 002.221 9.409c.196.395.405.805.63 1.23 2.661 5.027 7.413 12.213 15.149 18.532a58.184 58.184 0 003.38 2.564v.067c.012-.01.025-.018.038-.027l.009-.006.049.037v-.071c5.81-4.08 10.196-8.752 13.432-13.072a61.066 61.066 0 005.068-7.972c.255-.482.493-.947.71-1.39.331-.672.623-1.36.879-2.062.36-.98.644-1.987.853-3.008zm-2.283-4.561a18.397 18.397 0 01-1.633 7.596l-.012.03a53.084 53.084 0 01-.365.786c-.04.084-.08.167-.118.25a49.46 49.46 0 01-.328.688l-.066.135c-.128.266-.259.53-.39.789-.034.07-.07.138-.105.209-.1.196-.2.391-.301.584-.04.076-.08.154-.122.23-.12.229-.24.454-.364.677-.015.025-.027.05-.042.076-.134.245-.27.485-.406.72l-.116.2c-.104.176-.207.352-.313.524-.041.067-.081.136-.123.203-.14.227-.281.452-.424.672-6.407 9.835-12.961 13.753-13.484 14.055a.038.038 0 00-.009-.006c-.01-.007-.025-.014-.04-.023l-.016-.01-.038-.023c-.008-.004-.015-.01-.024-.014l-.043-.028-.03-.018c-.016-.009-.03-.02-.048-.03-.013-.008-.024-.017-.037-.024l-.052-.033-.046-.029c-.018-.013-.038-.025-.058-.038l-.047-.031-.069-.045a2.978 2.978 0 01-.05-.035l-.077-.05a1.352 1.352 0 00-.054-.037l-.093-.063-.047-.033-.15-.105c-.006-.004-.011-.01-.019-.013l-.143-.102-.058-.041-.114-.084-.07-.05a6.092 6.092 0 00-.112-.082 2.18 2.18 0 01-.078-.058c-.038-.027-.074-.056-.112-.085l-.086-.066a21.284 21.284 0 01-.419-.325l-.129-.101a1.817 1.817 0 00-.094-.075l-.14-.112-.09-.074-.163-.133a2.286 2.286 0 00-.077-.062c-.081-.067-.163-.134-.246-.205l-.028-.023a21.73 21.73 0 01-.223-.189l-.002-.002c-.029-.025-.06-.05-.088-.076l-.173-.149a5.665 5.665 0 00-.107-.092l-.163-.143c-.038-.035-.076-.07-.116-.104l-.162-.143-.12-.109-.163-.149-.123-.114c-.056-.05-.11-.103-.167-.156a7.763 7.763 0 01-.125-.116l-.176-.165-.124-.118-.188-.182a22.179 22.179 0 01-.334-.327l-.089-.086c-.103-.104-.209-.207-.314-.314a1.629 1.629 0 01-.054-.056l-.265-.27-.11-.115-.215-.221-.129-.136-.201-.213-.138-.147-.194-.21c-.05-.053-.096-.105-.145-.158a6108357473894.688 6108357473894.688 0 01-.341-.377c-.066-.073-.133-.147-.198-.222a12.892 12.892 0 01-.147-.165l-.203-.232a64.46 64.46 0 00-.145-.167c-.073-.083-.144-.169-.216-.252-.044-.053-.09-.103-.133-.156l-.252-.301-.1-.12a45.527 45.527 0 01-.354-.432l-.07-.089-.285-.355a9.665 9.665 0 00-.129-.164l-.23-.294-.144-.186-.215-.282-.153-.201-.21-.28c-.053-.068-.104-.14-.156-.21-.07-.094-.14-.188-.209-.285-.053-.07-.103-.143-.156-.215-.07-.098-.142-.197-.21-.294l-.156-.218a18.249 18.249 0 01-.216-.309l-.15-.214c-.077-.11-.153-.225-.231-.337a39.77 39.77 0 01-.5-.746 60.274 60.274 0 01-.368-.56c-.029-.044-.056-.09-.085-.135a36.336 36.336 0 01-.28-.439l-.132-.212a35.566 35.566 0 01-.232-.374l-.147-.241-.218-.36-.152-.255a23.27 23.27 0 01-.365-.624c-.07-.12-.14-.241-.208-.363l-.155-.27c-.07-.124-.14-.249-.208-.374a35.48 35.48 0 01-.365-.664l-.145-.267c-.076-.14-.15-.283-.225-.424a29.209 29.209 0 01-.13-.247l-.028-.049-.022-.043a18.667 18.667 0 01-2.09-8.59V8.162c1.457-.962 6.784-4.093 15.26-4.795a41.079 41.079 0 013.418-.144h.015v-.002c5.705.002 10.254 1.147 13.478 2.363 2.717 1.027 4.492 2.102 5.227 2.59v25.498h-.008z" fill="#fff"/></svg>