<svg width="488" height="786" fill="none" xmlns="http://www.w3.org/2000/svg"><path d="M456.968 455.809L344.433 162.586l-.195-.498-.955-2.471v2.016l-.13 36.512.955 2.513.325.867 95.681 254.328-95.681-.304-5.64-.021a263.845 263.845 0 01-9.739 37.053c-3.579 10.445-7.809 20.716-12.712 30.684a815.742 815.742 0 01-5.336 10.552h21.345c4.143 0 8.156-.108 12.104-.303 53.013-2.622 88.935-22.124 111.58-40.933 22.473-18.678 31.865-36.62 31.865-36.62l-30.932-.152zm-381.4-185.94l81.061.13-.109-44.595-120.192.455h-1.801l.022 266.723.022 125.376c9.522 14.453 20.802 26.306 40.975 40.044a.253.253 0 01.087.043c.13-.087.26-.173.368-.26l-.737-387.938.304.022z" fill="#A86B53" fill-opacity=".1"/><path d="M131.792 118.989l-214.398-.499s-.716 323.17-.716 349.996c0 3.532 4.924 13.11 11.344 24.139 12.17 20.846 29.761 46.827 29.761 46.827l-.022-46.827-.108-326.203s144.14-.39 174.92-.39c59.413 0 67.525 32.936 67.525 85.744 0 52.807-64.272 117.012-64.272 117.012s54.511-6.501 54.511 60.131c0 22.275-6.507 43.814-16.442 63.684-23.644 47.347-66.614 85.333-86.983 101.606l.195 55.581c60.845-45.137 106.722-103.296 130.757-157.208 12.212-27.411 18.828-53.739 18.828-76.686.021-50.381-39.045-64.205-39.045-64.205s41.257-39.178 40.021-124.943c-.347-24.508-5.683-43.468-13.796-58.094-28.654-51.811-92.08-49.665-92.08-49.665z" fill="#A86B53" fill-opacity=".1"/><path d="M326.646 456.655c.087-.39.152-.78.239-1.149a257.276 257.276 0 004.989-49.492l.824-235.692.13-37.986.195-58.354c-32.211-20.65-65.117-35.537-96.158-46.285C150.685-2.14 78.8-.039 75.568.07h-.13C72.66-.017 57.671-.3 34.7 1.803c-49.153 4.507-134.943 20.022-216.372 72.18l.195 55.58.13 37.942.846 238.618a254.94 254.94 0 0015.444 86.459 254.72 254.72 0 0011.106 25.916 602.87 602.87 0 007.527 14.691c31.822 60.045 88.632 145.875 181.124 221.348a696.229 696.229 0 0040.411 30.618v.802l.456-.325c.043-.022.065-.044.108-.065.195.13.39.281.586.433v-.845c69.477-48.733 121.906-104.531 160.603-156.124 26.117-34.801 45.964-67.694 60.584-95.213a615.255 615.255 0 008.504-16.599 250.905 250.905 0 0010.498-24.637 249.188 249.188 0 0010.195-35.927zm-27.288-54.476c0 31.16-6.551 62.016-19.392 90.424a4.205 4.205 0 01-.13.304c-.043.108-.108.238-.152.346-.26.585-.52 1.149-.802 1.712a634.502 634.502 0 01-3.558 7.671c-.477 1.018-.954 2.015-1.41 3.012a571.59 571.59 0 01-3.926 8.212c-.26.542-.521 1.084-.781 1.604a647.242 647.242 0 01-4.663 9.426c-.413.845-.846 1.647-1.259 2.492-1.193 2.34-2.386 4.68-3.6 6.977-.478.91-.955 1.842-1.454 2.752a406.828 406.828 0 01-4.36 8.083c-.173.303-.325.606-.499.91a455.654 455.654 0 01-4.858 8.602c-.456.802-.933 1.582-1.389 2.384a427.589 427.589 0 01-3.731 6.262c-.499.802-.976 1.625-1.475 2.427a362.23 362.23 0 01-5.075 8.018C160.251 691.264 81.88 738.068 75.633 741.665a.51.51 0 00-.109-.065c-.13-.086-.303-.173-.477-.281-.065-.044-.13-.065-.195-.109-.13-.086-.282-.173-.456-.281-.087-.044-.173-.109-.282-.174-.173-.108-.325-.195-.52-.325-.109-.065-.239-.151-.347-.216-.196-.109-.37-.239-.586-.369-.152-.086-.282-.195-.434-.281-.195-.13-.412-.26-.629-.39-.174-.109-.347-.239-.542-.347a18.03 18.03 0 00-.694-.455c-.196-.13-.37-.239-.564-.369-.26-.173-.543-.346-.825-.541-.195-.13-.39-.26-.607-.412-.304-.195-.607-.412-.911-.607a18.292 18.292 0 00-.65-.433c-.348-.238-.738-.499-1.107-.759-.195-.13-.369-.26-.564-.39-.586-.411-1.171-.823-1.8-1.256-.066-.044-.13-.109-.217-.152-.564-.39-1.128-.802-1.714-1.213-.217-.152-.456-.326-.694-.499-.456-.325-.911-.65-1.367-.997-.26-.195-.542-.411-.824-.606-.434-.325-.89-.65-1.345-.975a26.742 26.742 0 01-.933-.694c-.455-.325-.889-.672-1.344-1.018-.347-.26-.673-.52-1.02-.78-.455-.347-.91-.694-1.388-1.062a34.68 34.68 0 01-1.063-.824c-.477-.368-.954-.736-1.453-1.126-.37-.282-.738-.564-1.107-.867-.498-.39-1.02-.802-1.54-1.214-.369-.303-.737-.585-1.128-.888a354.97 354.97 0 01-1.67-1.344c-.369-.303-.716-.585-1.084-.888-.63-.52-1.28-1.04-1.953-1.582-.303-.26-.607-.498-.91-.736a254.874 254.874 0 01-2.95-2.449c-.11-.087-.218-.195-.326-.282-.89-.736-1.779-1.495-2.668-2.253l-.022-.022c-.347-.303-.716-.607-1.063-.91-.672-.585-1.366-1.17-2.06-1.777a66.89 66.89 0 00-1.28-1.105c-.651-.563-1.28-1.127-1.952-1.712a79.784 79.784 0 00-1.389-1.235c-.629-.563-1.28-1.127-1.93-1.712l-1.432-1.3c-.65-.585-1.301-1.17-1.952-1.777-.499-.455-.976-.91-1.475-1.365-.673-.607-1.323-1.235-1.996-1.863-.499-.456-.998-.911-1.497-1.387l-2.104-1.972-1.475-1.409c-.737-.715-1.496-1.43-2.255-2.167a72.938 72.938 0 01-1.367-1.321 287.62 287.62 0 01-2.625-2.579c-.347-.347-.716-.693-1.063-1.04-1.236-1.235-2.494-2.47-3.752-3.749a19.015 19.015 0 01-.651-.671c-1.041-1.062-2.104-2.124-3.167-3.229-.434-.455-.89-.91-1.323-1.365-.846-.867-1.692-1.755-2.56-2.644-.52-.542-1.02-1.083-1.54-1.625l-2.408-2.535c-.542-.585-1.106-1.17-1.648-1.755-.781-.824-1.54-1.669-2.321-2.514-.586-.629-1.15-1.257-1.735-1.885-.781-.845-1.54-1.69-2.321-2.557l-1.757-1.95c-.781-.867-1.584-1.756-2.365-2.644-.585-.65-1.171-1.3-1.757-1.972-.802-.91-1.605-1.842-2.43-2.773-.563-.651-1.149-1.322-1.734-1.994-.868-.997-1.714-2.015-2.582-3.012-.52-.628-1.063-1.235-1.583-1.864-.998-1.191-2.018-2.405-3.015-3.597-.39-.476-.781-.931-1.193-1.43a529.95 529.95 0 01-4.23-5.157c-.282-.347-.564-.715-.846-1.062-1.128-1.408-2.278-2.817-3.406-4.247-.499-.65-1.02-1.3-1.54-1.95-.91-1.17-1.844-2.34-2.755-3.51-.564-.737-1.15-1.474-1.713-2.232-.868-1.105-1.714-2.232-2.582-3.359l-1.822-2.405c-.846-1.105-1.67-2.232-2.516-3.337-.629-.824-1.236-1.669-1.865-2.514-.825-1.127-1.67-2.253-2.495-3.402-.629-.845-1.236-1.712-1.865-2.578-.846-1.171-1.692-2.341-2.517-3.511-.629-.867-1.236-1.733-1.865-2.6a221.909 221.909 0 01-2.581-3.684c-.586-.845-1.193-1.69-1.779-2.557-.933-1.321-1.844-2.687-2.776-4.03a89.687 89.687 0 01-1.606-2.362 478.762 478.762 0 01-3.297-4.919 68.386 68.386 0 01-1.084-1.625c-1.454-2.21-2.929-4.442-4.382-6.696-.347-.52-.672-1.061-1.02-1.603a444.412 444.412 0 01-3.34-5.244c-.52-.845-1.063-1.69-1.584-2.535a407.147 407.147 0 01-2.776-4.464c-.586-.954-1.171-1.929-1.757-2.882-.868-1.43-1.735-2.839-2.603-4.291a7051.52 7051.52 0 01-1.822-3.055 267.212 267.212 0 01-2.516-4.269 147.727 147.727 0 01-1.844-3.185c-.846-1.43-1.67-2.882-2.495-4.334-.607-1.061-1.236-2.145-1.843-3.228a296.018 296.018 0 01-2.495-4.464c-.607-1.084-1.215-2.167-1.822-3.272a933.965 933.965 0 01-2.538-4.659c-.585-1.062-1.149-2.123-1.735-3.185-.911-1.669-1.801-3.381-2.69-5.071-.52-.975-1.041-1.95-1.562-2.947l-.325-.585a83.977 83.977 0 01-.26-.52c-2.517-4.832-4.816-9.773-6.963-14.756-11.887-27.693-18.026-57.596-18.026-87.846V97.493c17.418-11.485 81.105-48.885 182.447-57.271a491.669 491.669 0 0140.867-1.712h.173v-.021c68.22.021 122.6 13.694 161.146 28.212 32.494 12.265 53.708 25.115 62.493 30.944v304.534h-.087z" fill="#A86B53" fill-opacity=".1"/></svg>