<svg width="102" height="100" fill="none" xmlns="http://www.w3.org/2000/svg"><g clip-path="url(#clip0)" fill="#fff"><path d="M77.174 0H14.913c-.522 0-1.043.478-1.565.957-.087.13-.218.26-.305.347L.653 12.74c-.218.217-.436.391-.523.609-.087.174-.13.348-.13.522v84.956A1.17 1.17 0 001.174 100H77.13c.653 0 1.174-.522 1.174-1.174V68.74l-2.391-2.391v31.26H2.391V15.044h12.522a1.17 1.17 0 001.174-1.173V2.39h59.87v51.957l2.39 2.391V1.174c0-.652-.52-1.174-1.173-1.174zM13.739 12.696H4.217l9.522-8.783v8.783z"/><path d="M100.217 75.478l-1.565-1.565 1.044-1.043a1.051 1.051 0 000-1.522 1.05 1.05 0 00-1.522 0L97.13 72.39 75.957 51.217l-9.87-9.826 1.043-1.043a1.05 1.05 0 000-1.522 1.05 1.05 0 00-1.521 0l-1.044 1.044-4.608-4.652 4.565-4.566 1.26 1.305a1.05 1.05 0 001.522 0L71.261 28a3.569 3.569 0 000-5.043L57.652 9.39a3.569 3.569 0 00-5.043 0l-3.957 3.957a1.05 1.05 0 000 1.522l1.304 1.26-18 18-1.26-1.26c-.218-.218-.479-.305-.783-.305-.304 0-.565.044-.783.261l-3.956 3.957a3.569 3.569 0 000 5.043l13.608 13.609a3.569 3.569 0 005.044 0l3.956-3.957a1.05 1.05 0 000-1.521l-1.26-1.261 4.391-4.348L55.565 49l-1.043 1.044a1.05 1.05 0 000 1.521 1.05 1.05 0 001.521 0l1.044-1.043 18.956 18.956L88.13 81.565l-1.043 1.044a1.05 1.05 0 000 1.522 1.05 1.05 0 001.522 0l1.043-1.044 1.565 1.565a5.856 5.856 0 004.174 1.74c1.566 0 3.087-.61 4.174-1.74l.696-.695c2.261-2.392 2.261-6.13-.044-8.479zM54.174 10.87a1.392 1.392 0 012 0l13.565 13.565a1.391 1.391 0 010 2l-3.174 3.217-15.608-15.608 3.217-3.174zm-11.87 43.043a1.391 1.391 0 01-2 0L26.696 40.304a1.391 1.391 0 010-2l3.217-3.217 15.609 15.609-3.218 3.217zm2.652-6.782l-11.478-11.48 18.044-18L63 29.131l-18.044 18zm7.435-4.348l6.044-6.044 4.608 4.652-6 6-4.652-4.608zm6.174 6.13l6.044-6 11.39 11.391 2.392 2.392 17.261 17.26-6 6.044-31.087-31.087zm40.13 33.435l-.695.695a3.75 3.75 0 01-2.652 1.087c-1 0-1.957-.39-2.652-1.087l-1.566-1.565 6.044-6.043L98.739 77a3.819 3.819 0 01-.043 5.348zm-67.043 6.565H20.957a1.076 1.076 0 01-1.087-1.087V81.87h-5.913a1.076 1.076 0 01-1.087-1.087V70.087c0-.609.478-1.087 1.087-1.087h5.956v-5.956c0-.61.478-1.087 1.087-1.087h10.696c.608 0 1.087.478 1.087 1.087V69h5.956c.609 0 1.087.478 1.087 1.087v10.696c0 .608-.478 1.087-1.087 1.087h-6v5.956c0 .609-.521 1.087-1.087 1.087zm-9.608-2.174h8.521v-5.956c0-.61.479-1.087 1.087-1.087h5.957v-8.522h-5.957a1.076 1.076 0 01-1.087-1.087V64.13h-8.521v5.957c0 .609-.479 1.087-1.087 1.087h-5.914v8.522H21c.609 0 1.087.478 1.087 1.087v5.956h-.043z"/></g><defs><clipPath id="clip0"><path fill="#fff" d="M0 0h101.957v100H0z"/></clipPath></defs></svg>