<svg width="123" height="120" fill="none" xmlns="http://www.w3.org/2000/svg"><path d="M92.609 0H17.896c-.626 0-1.253.574-1.879 1.148-.104.156-.26.313-.365.417L.782 15.287c-.26.26-.521.47-.625.73a1.39 1.39 0 00-.157.627V118.59c0 .784.626 1.41 1.409 1.41h91.148c.782 0 1.408-.626 1.408-1.409V82.487l-2.87-2.87v37.513H2.87V18.052h15.026c.782 0 1.408-.626 1.408-1.409V2.87h71.844v62.347l2.87 2.87V1.409A1.405 1.405 0 0092.607 0zM16.487 15.235H5.061l11.426-10.54v10.54z" fill="#A2CCCF"/><path d="M120.261 90.574l-1.878-1.878 1.252-1.252a1.26 1.26 0 000-1.826 1.26 1.26 0 00-1.826 0l-1.252 1.252-25.409-25.41-11.843-11.79 1.252-1.252a1.26 1.26 0 000-1.826 1.261 1.261 0 00-1.826 0l-1.252 1.252-5.53-5.583 5.478-5.478 1.513 1.565a1.261 1.261 0 001.826 0l4.747-4.748a4.283 4.283 0 000-6.052L69.183 11.27a4.283 4.283 0 00-6.052 0l-4.748 4.748a1.261 1.261 0 000 1.826l1.565 1.513-21.6 21.6-1.513-1.513c-.26-.261-.574-.366-.939-.366s-.678.053-.939.313l-4.748 4.748a4.283 4.283 0 000 6.052l16.33 16.33a4.283 4.283 0 006.053 0l4.748-4.747a1.26 1.26 0 000-1.826l-1.513-1.513 5.27-5.217 5.582 5.582-1.252 1.252a1.26 1.26 0 000 1.826 1.26 1.26 0 001.826 0l1.252-1.252 22.748 22.748 14.504 14.504-1.252 1.253a1.26 1.26 0 000 1.826 1.262 1.262 0 001.826 0l1.252-1.252 1.878 1.878a7.031 7.031 0 005.009 2.087c1.878 0 3.704-.731 5.009-2.087l.835-.835c2.713-2.87 2.713-7.357-.053-10.174zm-55.252-77.53a1.67 1.67 0 012.4 0l16.278 16.278a1.67 1.67 0 010 2.4l-3.808 3.86-18.73-18.73 3.86-3.808zM50.766 64.696a1.67 1.67 0 01-2.4 0l-16.33-16.33a1.67 1.67 0 010-2.4l3.86-3.861 18.73 18.73-3.86 3.86zm3.182-8.14L40.174 42.784l21.653-21.6L75.6 34.957l-21.652 21.6zm8.922-5.217l7.252-7.252 5.53 5.583-7.2 7.2-5.582-5.53zm7.409 7.357l7.252-7.2 13.67 13.67 2.87 2.869 20.712 20.713-7.2 7.252-37.304-37.304zm48.156 40.122l-.834.834a4.502 4.502 0 01-3.183 1.305 4.5 4.5 0 01-3.183-1.305l-1.878-1.878 7.252-7.252 1.878 1.878a4.583 4.583 0 01-.052 6.418zm-80.452 7.877H25.148c-.73 0-1.305-.573-1.305-1.304v-7.148h-7.095c-.73 0-1.305-.574-1.305-1.304V84.104c0-.73.574-1.304 1.305-1.304h7.147v-7.148c0-.73.574-1.304 1.305-1.304h12.835c.73 0 1.304.574 1.304 1.304V82.8h7.148c.73 0 1.304.574 1.304 1.304V96.94c0 .73-.574 1.304-1.304 1.304h-7.2v7.148c0 .731-.626 1.304-1.304 1.304zm-11.53-2.608h10.225v-7.148c0-.73.574-1.304 1.305-1.304h7.147V85.408h-7.148c-.73 0-1.304-.573-1.304-1.304v-7.148H26.452v7.148c0 .73-.574 1.305-1.304 1.305h-7.096v10.226H25.2c.73 0 1.304.573 1.304 1.304v7.148h-.052z" fill="#A2CCCF"/></svg>