<svg width="100" height="100" fill="none" xmlns="http://www.w3.org/2000/svg"><path d="M48.286 51.663H19.182c-1.444 0-2.584 1.36-2.584 2.985v20.723c0 1.668 1.178 2.985 2.584 2.985h29.104c1.444 0 2.584-1.361 2.584-2.985V54.648c0-1.668-1.14-2.985-2.584-2.985zm-15.54 24.41H19.182c-.342 0-.608-.307-.608-.702V54.648c0-.395.266-.702.608-.702h13.564v22.127zm16.148-.702c0 .395-.266.702-.608.702H34.722V53.99h13.564c.342 0 .608.307.608.702v20.679z" fill="#fff"/><path d="M99.2 32.39l-4.065-2.679c-.038-.043-.076-.043-.076-.087L50.452.164a1.006 1.006 0 00-1.102 0L30.733 12.458V5.301c0-1.141-.798-2.063-1.786-2.063H23.59c-.988 0-1.786.922-1.786 2.063v13.04l-2.166 1.404c-.038 0-.076.044-.114.044L.526 32.345c-.494.352-.684 1.098-.38 1.669.304.57.95.79 1.444.439l2.584-1.712v3.424c0 .703.494 1.273 1.102 1.273h2.052v52.64H5.276c-.608 0-1.102.57-1.102 1.273v7.376c0 .702.494 1.273 1.102 1.273H94.45c.608 0 1.102-.57 1.102-1.273V91.35c0-.702-.494-1.273-1.102-1.273h-2.09v-52.64h2.09c.608 0 1.102-.57 1.102-1.273V32.74l2.546 1.668c.493.351 1.14.132 1.443-.44.342-.526.152-1.272-.342-1.58zM23.741 5.432h5.092v8.254l-5.091 3.38V5.433zm69.608 87.28v4.785H6.416v-4.786h86.933zm-13.716-46.67H62.117c-1.33 0-2.432 1.273-2.432 2.81v41.313H9.607v-52.64h80.588v52.64h-8.13V48.853c-.038-1.537-1.102-2.81-2.432-2.81zm.38 2.81v41.313H61.66V48.853c0-.263.19-.483.418-.483h17.516c.266 0 .418.22.418.483zm13.336-13.917H6.416v-3.468l15.502-10.23 1.823-1.185 5.092-3.38 1.9-1.274 19.15-12.644 43.466 28.713v3.468z" fill="#fff"/></svg>