<svg width="125" height="120" fill="none" xmlns="http://www.w3.org/2000/svg"><path d="M37.555 49.868h29.809c.793 0 1.488-.645 1.488-1.488 0-.794-.645-1.488-1.488-1.488H37.555c-.793 0-1.488.645-1.488 1.488 0 .794.645 1.488 1.488 1.488zm64.825 39.877H37.555c-.793 0-1.488.645-1.488 1.488s.645 1.488 1.488 1.488h64.825c.794 0 1.488-.645 1.488-1.488s-.694-1.488-1.488-1.488zM37.555 64.202h24.551c.794 0 1.488-.645 1.488-1.488s-.644-1.488-1.488-1.488h-24.55c-.794 0-1.489.645-1.489 1.488s.645 1.488 1.488 1.488zm0 14.631H55.61c.794 0 1.488-.644 1.488-1.488 0-.793-.645-1.488-1.488-1.488H37.555c-.793 0-1.488.645-1.488 1.488 0 .794.645 1.488 1.488 1.488z" fill="#D3B1A4"/><path d="M123.609 13.91a1.425 1.425 0 00-1.389-.299l-11.656 3.423 10.118-14.73a1.417 1.417 0 000-1.638 1.557 1.557 0 00-1.537-.644c-.447.099-10.565 2.231-20.782 10.713-6.894 5.753-12.35 13.391-15.871 22.17H25.75l.1-1.885c.049-.396-.1-.793-.398-1.09a1.539 1.539 0 00-1.09-.447h-4.465v-8.134c0-.794-.644-1.488-1.488-1.488H7.45c-.794 0-1.489.645-1.489 1.488v8.134H1.497c-.396 0-.793.149-1.09.446a1.315 1.315 0 00-.398 1.091l.199 3.472a557.732 557.732 0 010 70.529c0 .248-.05.546-.1.893-.099 1.24-.297 3.075.348 3.77.099.099.297.347.992.347h4.464v8.481c0 .794.644 1.488 1.488 1.488h10.96c.794 0 1.489-.645 1.489-1.488v-8.481h4.464c.694 0 1.339-.546 1.438-1.29.05-.297 0-.694-.05-1.091 0-.149-.05-.298-.05-.446l-.049-1.042h79.159c1.29 0 5.754-.198 8.68-4.166 1.289-1.736 2.033-3.968 2.033-6.25V35.633l.248-.397c.1-.148.199-.347.348-.496 6.299-10.167 7.935-19.045 7.985-19.442a1.551 1.551 0 00-.446-1.389zM8.987 22.786h7.985v6.646H8.987v-6.646zm7.985 94.287H8.987v-6.894h7.985v6.894zm5.01-25.643c.198 4.663.446 9.424.743 14.632l.05 1.041H3.085l.099-1.884a564.029 564.029 0 000-70.926l-.1-1.885h19.691l-.05 1.042c-1.19 19.442-1.438 38.935-.744 57.98zm76.331-76.728a52.296 52.296 0 0114.533-9.424l3.124-1.389-16.12 23.46-1.933-12.3.396-.347zm-4.364 4.563l1.389-1.637L97.47 30.92 80.706 55.273l.397-3.819c.793-7.737 2.678-14.83 5.654-21.03 1.934-4.067 4.315-7.787 7.192-11.16zm18.599 76.48c0 1.637-.496 3.274-1.438 4.514-2.282 3.025-5.902 2.976-6.299 2.976H25.552l-.049-.943a565.364 565.364 0 01-.645-50.987c.149-5.01.397-9.87.645-14.482l.05-.943H81.4a63.307 63.307 0 00-2.678 10.664c-.645 4.067-.992 8.332-1.042 12.747v.297L66.124 76.502c-.198.347-.298.695-.248 1.091.05.397.298.744.595.943.248.149.546.248.843.248.496 0 .943-.248 1.24-.645l11.507-16.814.347-.1c8.333-2.28 15.773-6 22.121-11.159a57.623 57.623 0 008.234-8.084l1.735-2.083v55.847h.05zm7.539-76.828c-1.042 3.423-3.025 8.63-6.497 14.285C106.943 43.966 97.272 52 85.666 56.514l-2.976 1.14L94.048 41.14l6.547-.695c.397-.05.744-.248.992-.545.248-.298.347-.695.347-1.092a1.533 1.533 0 00-.546-.992c-.297-.247-.694-.347-1.091-.347l-4.017.397 11.606-16.963 12.747-3.769-.546 1.786z" fill="#D3B1A4"/><path d="M102.381 76.453h-22.27c-.794 0-1.488.644-1.488 1.488a1.46 1.46 0 001.488 1.487h22.27c.793 0 1.488-.644 1.488-1.487 0-.844-.695-1.488-1.488-1.488z" fill="#D3B1A4"/></svg>