<svg width="121" height="120" fill="none" xmlns="http://www.w3.org/2000/svg"><path d="M118.538 50.13c-.783 0-1.41.627-1.41 1.41v3.76h-8.146v-2.35a1.6 1.6 0 00-.157-.678l-7.728-14.674c-.262-.47-.731-.783-1.254-.783h-3.968V1.41c0-.783-.627-1.41-1.41-1.41H24.96c-.783 0-1.41.627-1.41 1.41v35.405h-4.23c-.522 0-.992.313-1.253.783l-7.31 13.943H1.41c-.783 0-1.41.626-1.41 1.41v17.284c0 .783.627 1.41 1.41 1.41h8.825v14.151c0 1.41-.574 2.82-1.619 3.76L4.44 93.525c-1.62 1.514-2.507 3.655-2.507 5.848v19.217c0 .783.627 1.41 1.41 1.41H115.98c.783 0 1.41-.627 1.41-1.41V99.373c0-2.193-.888-4.334-2.507-5.848l-4.177-3.969a5.18 5.18 0 01-1.619-3.76V67.833h8.146v3.76c0 .783.627 1.41 1.41 1.41.784 0 1.41-.627 1.41-1.41V51.488c-.104-.73-.731-1.357-1.514-1.357zM26.318 2.82H92.95v33.995H79.321c-.313 0-.574.104-.783.26l-5.744 3.97H61.2l-6.527-13.943.678-.47a1.399 1.399 0 00.523-1.723c-.314-.732-1.15-1.097-1.88-.784l-3.708 1.515a1.44 1.44 0 00-.783.783 1.339 1.339 0 000 1.097c.261.678.992 1.044 1.723.835l.783-.209 5.953 12.898H46.32l-5.745-3.968c-.26-.157-.522-.261-.783-.261h-13.42V2.82h-.052zm-6.214 36.867H39.27l5.744 3.968c.261.157.522.261.783.261h27.311c.313 0 .575-.104.783-.26l5.745-3.97H98.8l6.214 11.855h-91.28l6.371-11.854zM12.95 54.413h93.16v6.58H12.95v-6.58zm0 9.399h93.16V81.41l-14.413 5.483c-1.67.627-3.029 1.828-3.916 3.394l-1.932 3.551c-.836 1.515-2.403 2.402-4.126 2.402H37.285c-1.724 0-3.29-.94-4.126-2.402l-1.932-3.55c-.835-1.567-2.245-2.768-3.916-3.395L12.898 81.41V63.812h.052zM2.715 68.825V54.412h7.363v14.413H2.715zm111.698 48.407H4.648v-7.624H114.36v7.624h.053zm-1.619-21.566a5.18 5.18 0 011.619 3.76v7.258H4.648v-7.258c0-1.41.574-2.82 1.618-3.76l4.178-3.969c1.566-1.514 2.506-3.655 2.506-5.848V84.49l13.369 5.117a5.061 5.061 0 012.454 2.09l1.932 3.55c1.306 2.402 3.864 3.916 6.632 3.916h44.438c2.768 0 5.275-1.514 6.632-3.916l1.932-3.55a4.398 4.398 0 012.455-2.09l13.368-5.117v1.358c0 2.193.94 4.334 2.506 5.848l4.126 3.969zm4.282-30.653h-8.147v-6.789h8.147v6.79z" fill="#D3B1A4"/><path d="M76.345 87.258H43.447c-.783 0-1.41.627-1.41 1.41 0 .784.627 1.41 1.41 1.41h32.898c.784 0 1.41-.626 1.41-1.41 0-.783-.626-1.41-1.41-1.41zM26.84 70.862c0-.784-.627-1.41-1.41-1.41h-4.282c-.783 0-1.41.626-1.41 1.41 0 .783.627 1.41 1.41 1.41h4.282c.784.052 1.41-.627 1.41-1.41zm8.93 1.462h4.282c.784 0 1.41-.627 1.41-1.41 0-.783-.626-1.41-1.41-1.41H35.77c-.783 0-1.41.627-1.41 1.41 0 .783.627 1.41 1.41 1.41zm14.674 0h4.282c.783 0 1.41-.627 1.41-1.41 0-.783-.627-1.41-1.41-1.41h-4.282c-.783 0-1.41.627-1.41 1.41 0 .783.627 1.41 1.41 1.41zm14.621 0h4.282c.784 0 1.41-.627 1.41-1.41 0-.783-.627-1.41-1.41-1.41h-4.282c-.783 0-1.41.627-1.41 1.41 0 .783.627 1.41 1.41 1.41zm14.675 0h4.282c.783 0 1.41-.627 1.41-1.41 0-.783-.627-1.41-1.41-1.41H79.74c-.783 0-1.41.627-1.41 1.41 0 .783.575 1.41 1.41 1.41zm-47.626 7.258c0-.783-.626-1.41-1.41-1.41h-4.281c-.784 0-1.41.627-1.41 1.41 0 .784.626 1.41 1.41 1.41h4.282c.783 0 1.41-.626 1.41-1.41zm5.379 0c0 .784.627 1.41 1.41 1.41h4.282c.783 0 1.41-.627 1.41-1.41 0-.783-.627-1.41-1.41-1.41h-4.282c-.783-.052-1.41.627-1.41 1.41zm13.89-1.462c-.783 0-1.41.627-1.41 1.41 0 .783.627 1.41 1.41 1.41h4.282c.784 0 1.41-.627 1.41-1.41 0-.783-.626-1.41-1.41-1.41h-4.282zm12.481 2.872h4.282c.783 0 1.41-.626 1.41-1.41 0-.783-.627-1.41-1.41-1.41h-4.282c-.783 0-1.41.627-1.41 1.41 0 .784.627 1.41 1.41 1.41zm12.48 0h4.282c.784 0 1.41-.626 1.41-1.41 0-.783-.626-1.41-1.41-1.41h-4.282c-.783 0-1.41.627-1.41 1.41 0 .784.627 1.41 1.41 1.41zm18.016-8.668h4.282c.783 0 1.41-.627 1.41-1.41 0-.783-.627-1.41-1.41-1.41H94.36c-.783 0-1.41.627-1.41 1.41 0 .783.627 1.41 1.41 1.41zm-5.535 8.668h4.282c.783 0 1.41-.626 1.41-1.41 0-.783-.627-1.41-1.41-1.41h-4.282c-.783 0-1.41.627-1.41 1.41 0 .784.627 1.41 1.41 1.41zm-41.88-65.639h27.259c.783 0 1.41-.627 1.41-1.41 0-.784-.627-1.41-1.41-1.41H46.945c-.783 0-1.41.626-1.41 1.41-.052.783.575 1.41 1.41 1.41zm-2.662 11.331c0-.783-.627-1.41-1.41-1.41h-7.05c-.783 0-1.41.627-1.41 1.41 0 .783.627 1.41 1.41 1.41h7.05c.783.052 1.41-.627 1.41-1.41zm17.284 0c0 .783.627 1.41 1.41 1.41h20.94c.784 0 1.41-.627 1.41-1.41 0-.783-.626-1.41-1.41-1.41h-20.94c-.73 0-1.41.627-1.41 1.41z" fill="#D3B1A4"/></svg>