<svg width="120" height="128" fill="none" xmlns="http://www.w3.org/2000/svg"><path d="M115.453 41.917c-.056-.11-.056-.276-.111-.387.055.166.111.387.111.553v-.166zm.277 1.329v-.11c0-.056 0-.111-.056-.167.056.222.056.388.111.61 0-.111-.055-.222-.055-.333zm-.167-.72s0-.055 0 0v-.11c0 .11.056.221.056.387v-.055c0-.11 0-.166-.056-.221zm.111.444c0-.056-.055-.167-.055-.222v.055c.055.056.055.111.055.167zM50.39 56.315l-.887-.776.886.776z" fill="#A2CCCF"/><path d="M51.94 26.967H16.501c-.83 0-1.495.664-1.495 1.495v36.49a1.49 1.49 0 001.495 1.496h35.44c.83 0 1.494-.665 1.494-1.495V28.462c0-.831-.664-1.495-1.495-1.495zm-33.888 36.49l.332-1.218.055-.11c1.219-4.264 5.206-7.254 9.635-7.254h12.293c2.88 0 5.482 1.218 7.365 3.267 1.052 1.107 1.827 2.491 2.27 3.986l.388 1.274H18.052v.055zm10.465-17.276c0-.443.056-.886.166-1.329.111-.443.277-.83.444-1.218.553-1.108 1.495-1.994 2.602-2.547.11-.056.166-.111.277-.111a6.783 6.783 0 011.827-.443h.332a5.76 5.76 0 013.046.886c.554.388 1.107.83 1.495 1.384.72.942 1.107 2.104 1.107 3.378a5.636 5.636 0 01-5.648 5.648c-1.495 0-2.824-.554-3.82-1.495a8.58 8.58 0 01-.665-.72c-.664-.886-1.163-2.104-1.163-3.433zM50.39 56.314l-.886-.775-.775-.61a13.443 13.443 0 00-6.313-2.879l-1.44-.22.61-1.108.11-.166a8.57 8.57 0 001.163-4.32c0-4.817-3.931-8.693-8.694-8.693-4.762 0-8.693 3.931-8.693 8.693 0 .72.11 1.385.277 2.05.221.774.498 1.55.886 2.27l.221.387.498.83-1.44.222c-.22.056-.442.056-.664.11-.055 0-.11 0-.166.056-.055 0-.11.056-.166.056h-.055c-.111 0-.166.055-.277.055-.11 0-.166.055-.277.055h-.055a2.726 2.726 0 00-.61.222h-.055c-.11.055-.221.055-.277.11-.11.056-.166.056-.277.111-.166.056-.332.166-.498.222-.11.055-.221.11-.277.166-.055.055-.11.055-.166.11-.11.056-.166.111-.277.167-.775.443-1.495.886-2.16 1.495l-1.66 1.384V29.957H50.39v26.357z" fill="#A2CCCF"/><path d="M24.198 52.438c.055 0 .055 0 .11-.055-.22.055-.387.11-.608.221.11-.055.166-.055.277-.11.055 0 .11 0 .221-.056zm.775-.221c.11-.056.222-.056.332-.056-.055 0-.11 0-.166.056-.11 0-.166.055-.277.055.056 0 .056 0 .111-.055zm-.333.111c.112 0 .167-.056.278-.056-.166.056-.277.056-.443.111-.056 0-.111.055-.166.055h.055c.11-.055.166-.11.277-.11zm1.33-.278c-.221.056-.443.056-.664.111.221-.055.443-.11.664-.11zm3.211-8.416c-.221.387-.332.775-.443 1.218.056-.443.222-.83.443-1.218zm86.382-1.108c0 .056 0 .111.056.166 0-.055-.056-.166-.056-.221v.055c0-.055 0 0 0 0z" fill="#A2CCCF"/><path d="M119.163 47.4v-.167c-.111-8.084-3.821-15.67-10.133-20.82l-.056-.055c-.055-.056-.111-.056-.111-.111a35.304 35.304 0 00-2.602-1.828l-.111-.055c-.221-.11-.443-.277-.664-.387-.166-.111-.277-.167-.443-.277-.111-.056-.277-.166-.388-.222-.277-.166-.554-.277-.83-.443l-.056-.055a28.183 28.183 0 00-3.322-1.384l-.665-.222V1.495c0-.83-.664-1.495-1.495-1.495H18.993c-.665 0-1.329.61-1.938 1.274l-.443.443L.83 16.28c-.277.277-.554.498-.665.775-.11.221-.166.443-.166.664v108.199c0 .831.664 1.495 1.495 1.495h96.737c.83 0 1.495-.664 1.495-1.495v-51.94l.664-.221c11.186-3.765 18.716-14.23 18.716-26.025.056-.166.056-.277.056-.333zM17.443 4.983v11.185H5.37L17.442 4.984zm79.294 119.384H2.99V19.215h15.948a1.49 1.49 0 001.495-1.496V3.101H96.68v17.608l-1.162-.166c-1.33-.166-2.603-.276-3.877-.276-15.116 0-27.465 12.292-27.465 27.465 0 11.794 7.531 22.26 18.716 26.025l.665.221v28.684c0 4.43 3.6 8.029 8.029 8.029a7.928 7.928 0 003.544-.831l1.44-.72v15.228h.166zm0-24.364v2.602c0 1.329-.499 2.603-1.495 3.544-.942.942-2.215 1.495-3.544 1.495-2.769 0-5.04-2.27-5.04-5.039v-2.602h10.079zm-10.023-2.99V74.698l1.163.166h.11c.278.056.555.056.831.111 2.215.222 4.486.222 6.645-.11l1.274-.167v22.316H86.714zm24.087-34.11c-3.377 4.264-8.195 7.254-13.455 8.527a24.237 24.237 0 01-5.648.665c-1.883 0-3.766-.222-5.593-.665-5.26-1.218-10.078-4.263-13.456-8.527-3.488-4.32-5.37-9.746-5.37-15.283 0-13.456 10.963-24.42 24.419-24.42 1.827 0 3.654.222 5.37.61h.056c.056 0 .111 0 .111.055 5.261 1.218 10.078 4.264 13.456 8.527.11.111.221.277.332.388.221.277.388.554.609.83.111.167.222.277.277.443.111.167.166.277.277.443.111.166.166.277.277.443.11.166.166.277.277.443.166.277.332.61.498.886.055.111.111.166.166.277.111.166.166.333.277.554l.166.332.166.332.166.333c.056.166.111.332.222.498l.166.498.166.499c.221.664.443 1.329.609 1.993.055.11.055.222.111.332v.221c0 .056.055.112.055.222v.221c0 .056 0 .112.056.167v.554c0 .11.055.221.055.277.221 1.329.332 2.713.332 4.097.166 5.538-1.716 10.909-5.15 15.228z" fill="#A2CCCF"/><path d="M114.733 39.592l.609 1.993a17.047 17.047 0 00-.609-1.993zm1.384 8.084c0-1.384-.11-2.768-.332-4.097l.332 4.097zm-.498-4.983c0-.056-.056-.167-.056-.222 0 .055.056.11.056.222zm.166.83c-.056-.221-.056-.387-.111-.609 0-.055 0-.11-.055-.166.055.277.11.554.166.775zm-.221-1.163c0-.055 0-.11-.056-.166v-.11a1.98 1.98 0 01-.111-.554l.167.83z" fill="#A2CCCF"/><path d="M115.564 42.36c0-.055-.056-.166-.056-.221v.11s.056.056.056.111zm.055.388c.055.277.11.554.166.775-.056-.221-.111-.498-.166-.775zm-.056-.388zM62.571 75.53H16.113c-.83 0-1.495.663-1.495 1.494 0 .83.665 1.495 1.495 1.495h46.458c.83 0 1.495-.664 1.495-1.495.056-.83-.664-1.495-1.495-1.495zm.001 11.516H43.689a1.49 1.49 0 00-1.495 1.495 1.49 1.49 0 001.495 1.496h18.883a1.49 1.49 0 001.495-1.496 1.49 1.49 0 00-1.495-1.495zm-46.459 3.046h15.67a1.49 1.49 0 001.496-1.495 1.49 1.49 0 00-1.495-1.495h-15.67a1.49 1.49 0 00-1.496 1.495c0 .83.665 1.495 1.495 1.495zm46.458 8.472H16.113c-.83 0-1.495.664-1.495 1.495 0 .831.665 1.495 1.495 1.495h46.458c.83 0 1.495-.664 1.495-1.495.056-.775-.664-1.495-1.495-1.495zm-12.348 11.518h-34.11c-.83 0-1.495.664-1.495 1.495 0 .83.665 1.495 1.495 1.495h34.11a1.49 1.49 0 001.495-1.495c0-.831-.664-1.495-1.495-1.495zm41.475-78.796c-9.026 0-16.39 7.364-16.39 16.39s7.364 16.39 16.39 16.39 16.39-7.364 16.39-16.39-7.364-16.39-16.39-16.39zm0 29.735c-7.365 0-13.345-5.98-13.345-13.345 0-7.364 5.98-13.345 13.345-13.345s13.345 5.98 13.345 13.345-5.98 13.345-13.345 13.345zm-58.53-44.132h38.374a1.49 1.49 0 001.495-1.495 1.49 1.49 0 00-1.495-1.495H33.168c-.83 0-1.495.664-1.495 1.495 0 .83.665 1.495 1.495 1.495z" fill="#A2CCCF"/></svg>