<svg width="111" height="128" fill="none" xmlns="http://www.w3.org/2000/svg"><path d="M40.478 31.729c0-.277-.11-.61-.277-.83l-7.53-11.13h14.12v19.047L36.879 51a1.428 1.428 0 00-.166 1.605c.276.499.775.886 1.384.886h20.488c.554 0 1.108-.332 1.384-.886.277-.498.166-1.162-.166-1.605l-9.912-12.183V19.768h14.176l-7.53 11.13a1.492 1.492 0 00-.278.83c0 5.87 4.762 10.632 10.632 10.632s10.632-4.762 10.632-10.631c0-.499-.333-.997-.776-1.606a1.156 1.156 0 01-.221-.332l-7.808-11.518c-.664-.941-1.052-1.495-1.827-1.495H49.836v-4.873c0-.83-.664-1.495-1.495-1.495a1.49 1.49 0 00-1.495 1.495v4.873H29.79c-.498 0-.997.277-1.329.72-.11.166-3.655 5.371-5.98 8.804l-2.16 3.212-.332.498c-.443.61-.886 1.218-.886 1.828 0 5.87 4.762 10.631 10.632 10.631 5.924-.055 10.742-4.873 10.742-10.742zm33.445 2.935c-1.163 2.879-3.931 4.706-7.032 4.706-3.1 0-5.87-1.827-7.032-4.706l-.554-1.385h15.227l-.609 1.385zm-.775-4.43h-12.57l6.258-9.248 6.312 9.248zM48.341 41.75l7.088 8.694h-14.12l7.032-8.694zm-18.55-20.765l6.257 9.248H23.534l6.257-9.248zm0 18.384c-3.1 0-5.87-1.827-7.032-4.706l-.554-1.385h15.227l-.553 1.385a7.66 7.66 0 01-7.088 4.706z" fill="#A2CCCF"/><path d="M108.144 65.396l-2.769-2.77 2.049-2.048c1.329-1.329 2.159-3.156 2.215-5.039.11-2.16-.72-4.264-2.215-5.814a7.627 7.627 0 00-5.814-2.215 7.368 7.368 0 00-3.987 1.384l-1.606 1.108V1.495A1.49 1.49 0 0094.522 0H1.495C.665 0 0 .664 0 1.495v108.476c0 .609.443 1.107 1.163 1.772l.332.332c.554.554 1.44 1.44 2.492 2.547 3.765 3.876 10.078 10.41 11.905 11.905.055.056.166.111.222.167.553.443.775.664 1.273.664h77.19c.83 0 1.495-.664 1.495-1.495V87.711l12.072-12.071a7.205 7.205 0 002.104-5.095c0-1.993-.775-3.82-2.104-5.15zM98.73 51.829c.83-.83 1.883-1.273 3.046-1.329 1.329-.055 2.602.388 3.488 1.33.942.94 1.44 2.214 1.329 3.488-.055 1.163-.554 2.215-1.329 3.045l-2.049 2.049-6.534-6.534 2.05-2.049zm-82.893 70.269L5.15 111.411h10.687v10.687zm77.19-35.716l-4.43 4.43c-.61.609-.61 1.55 0 2.16.277.276.664.442 1.052.442s.775-.166 1.052-.443l2.27-2.27v33.612H18.882v-14.342c0-.831-.664-1.495-1.495-1.495H3.046V2.99h89.98v50.334l-30.51 30.51a121.977 121.977 0 00-11.13 12.792v.055l-3.71 5.15c-1.107 1.55-1.329 3.489-.609 5.26l.277.61-2.215 2.215c-.61.609-.61 1.55 0 2.159.277.277.665.443 1.052.443.388 0 .775-.166 1.052-.443l2.215-2.215.61.277a5.375 5.375 0 002.048.388c1.163 0 2.27-.333 3.212-1.052l5.205-3.71a122.004 122.004 0 0012.79-11.13l19.658-19.658v11.407h.056zM69.16 81.398l6.534 6.534-4.54 4.541a115.32 115.32 0 01-12.46 10.798l-5.15 3.71c-.442.332-.94.443-1.439.443a2.526 2.526 0 01-1.606-.609l-.166-.111-.11-.166c-.72-.831-.831-2.104-.111-3.046l3.654-5.15c3.323-4.43 6.977-8.582 10.853-12.458l4.54-4.486zm8.694 4.43l-6.535-6.534 23.202-23.201 6.534 6.534-23.201 23.201zm28.129-12.403l-9.967 9.967V71.985l7.198-7.198 2.769 2.768a4.15 4.15 0 011.218 2.935c0 1.107-.443 2.104-1.218 2.935z" fill="#A2CCCF"/><path d="M23.7 61.796h-5.095a1.49 1.49 0 00-1.495 1.495 1.49 1.49 0 001.495 1.496H23.7a1.49 1.49 0 001.495-1.496 1.49 1.49 0 00-1.495-1.495zm46.679 0H33.777a1.49 1.49 0 00-1.495 1.495 1.49 1.49 0 001.495 1.496H70.38a1.49 1.49 0 001.495-1.496c0-.83-.664-1.495-1.495-1.495zM23.7 73.535h-5.095a1.49 1.49 0 00-1.495 1.496c0 .83.665 1.494 1.495 1.494H23.7c.83 0 1.495-.664 1.495-1.495a1.49 1.49 0 00-1.495-1.495zm34.719 0H33.833a1.49 1.49 0 00-1.495 1.496c0 .83.664 1.494 1.495 1.494h24.586c.83 0 1.495-.664 1.495-1.495a1.49 1.49 0 00-1.495-1.495zM23.7 85.274h-5.095a1.49 1.49 0 00-1.495 1.495c0 .831.665 1.495 1.495 1.495H23.7c.83 0 1.495-.664 1.495-1.495a1.49 1.49 0 00-1.495-1.495zm23.81 0H33.833a1.49 1.49 0 00-1.495 1.495c0 .831.664 1.495 1.495 1.495H47.51c.83 0 1.495-.664 1.495-1.495 0-.83-.664-1.495-1.495-1.495zM23.7 97.013h-5.095a1.49 1.49 0 00-1.495 1.495 1.49 1.49 0 001.495 1.496H23.7a1.49 1.49 0 001.495-1.496 1.49 1.49 0 00-1.495-1.495zm15.947 0h-5.814a1.49 1.49 0 00-1.495 1.495 1.49 1.49 0 001.495 1.496h5.814a1.49 1.49 0 001.495-1.496c0-.83-.664-1.495-1.495-1.495z" fill="#A2CCCF"/></svg>