<svg width="144" height="139" fill="none" xmlns="http://www.w3.org/2000/svg"><path d="M141.406 68.084h-2.705L126.228 33.82h10.321c4.084 0 7.451-3.388 7.451-7.497 0-4.11-3.367-7.497-7.451-7.497h-10.928v-4.554c0-.944-.773-1.722-1.711-1.722-.939 0-1.711.778-1.711 1.722v4.554h-17.662v-5.887c.055-4.887-3.809-8.94-8.666-9.052a8.453 8.453 0 00-4.912 1.389l-1.049.666-.552-1.11C87.813 1.887 84.832 0 81.521 0a8.74 8.74 0 00-6.237 2.61c-.662.666-1.214 1.388-1.6 2.221l-.552 1.111-1.05-.666c-1.434-.889-3.035-1.389-4.746-1.389-3.201 0-6.181 1.777-7.727 4.61l-.607 1.11-1.049-.666a8.751 8.751 0 00-4.857-1.444c-4.857 0-8.83 3.998-8.83 8.885v2.555H21.801v-4.554c0-.944-.773-1.721-1.712-1.721-.938 0-1.71.777-1.71 1.721v4.554H7.45c-4.083 0-7.45 3.387-7.45 7.497 0 4.11 3.367 7.497 7.451 7.497h10.321L5.3 68.195H2.594c-.938 0-1.71.777-1.71 1.722v10.55c0 .445.054 4.221 2.483 8.164 2.263 3.665 7.065 8.053 17.055 8.053 9.659 0 14.295-4.388 16.503-8.108 2.318-3.943 2.373-7.72 2.373-8.108V69.916c0-.944-.773-1.721-1.711-1.721h-2.208L22.464 33.931h21.912l.22.833c.497 1.721 1.546 3.22 2.926 4.387l.441.333V87.91h-1.27c-.938 0-1.71.778-1.71 1.722v21.103l-3.312 26.322c-.11.944.552 1.833 1.49 1.944h.221c.883 0 1.6-.666 1.711-1.499l3.146-24.935h19.65c.937 0 1.71-.777 1.71-1.721 0-.944-.773-1.722-1.71-1.722h-19.43V91.408h43.604v19.714l3.422 26.379c.11.833.828 1.499 1.71 1.499h.222c.441-.056.883-.278 1.159-.666.276-.389.386-.833.33-1.278l-3.421-26.322V89.686c0-.944-.773-1.721-1.711-1.721H87.04V79.8c0-2.332.994-4.609 2.65-6.22l11.093-10.495c2.374-2.277 3.754-5.442 3.754-8.719v-20.38h17.054L108.676 68.25h-2.208c-.938 0-1.711.777-1.711 1.721v10.551c0 .445.056 4.22 2.484 8.164 2.263 3.665 7.065 8.052 17.055 8.052 9.659 0 14.295-4.387 16.503-8.108 2.318-3.943 2.373-7.719 2.373-8.108v-10.55c0-.444-.165-.888-.497-1.222-.386-.444-.772-.666-1.269-.666zM7.506 30.432c-2.207 0-4.029-1.832-4.029-4.054 0-2.221 1.822-4.054 4.03-4.054h10.928v8.108H7.506zM35.38 83.578a12.4 12.4 0 01-1.49 3.387c-2.54 4.11-7.065 6.22-13.412 6.22-6.679 0-11.37-2.11-14.02-6.22-.662-1-1.158-2.11-1.545-3.332l-.441-1.5h31.35l-.442 1.445zm.552-11.996v7.109H4.361v-7.109h31.57zm-4.14-3.498H8.997l11.149-30.71 11.645 30.71zm12.53-37.652H21.856v-8.108H44.32v8.108zM76.11 8.885c0-1.444.553-2.832 1.602-3.831.993-1 2.373-1.61 3.808-1.61 2.98 0 5.354 2.443 5.354 5.441v6.664H76.112V8.885zm0 18.604l1.877 1.666c.166.167.332.278.497.444a15.87 15.87 0 006.016 3.055c.331.11.663.166.939.222l1.49.277-.663 1.333a5.634 5.634 0 01-1.048 1.5c-.994 1-2.373 1.61-3.808 1.61-2.981 0-5.354-2.443-5.41-5.387v-4.72h.11zM61.928 12.773c0-3 2.429-5.443 5.41-5.443 2.98 0 5.353 2.444 5.353 5.387v19.381c0 3-2.429 5.443-5.41 5.443-2.98 0-5.408-2.444-5.408-5.443V12.773h.055zm-14.185 19.38V16.328c0-2.999 2.429-5.443 5.354-5.443 2.98 0 5.41 2.444 5.41 5.443v15.827c0 2.999-2.43 5.442-5.41 5.442a5.423 5.423 0 01-5.354-5.442zm53.373 22.048c0 2.332-.994 4.609-2.65 6.22L87.371 70.915c-2.373 2.277-3.753 5.442-3.753 8.719v8.163H51.44v-46.87l1.215.056h.441a8.695 8.695 0 006.292-2.666l.828-.833.828.833a8.695 8.695 0 006.292 2.666 8.695 8.695 0 006.292-2.666l.828-.833.828.833c.386.389.773.722 1.214 1.055l1.38 1-1.38.944a48.073 48.073 0 00-5.685 4.387c-5.353 4.887-8.058 10.163-8.058 15.605 0 .944.773 1.721 1.711 1.721.938 0 1.711-.777 1.711-1.721 0-10.663 13.467-18.326 19.207-21.103 2.926-1.444 4.858-4.332 5.023-7.608.11-1.832-.331-2.388-.993-2.721-.332-.167-.718-.167-1.215-.167-.22 0-.496 0-.772-.055-1.104-.111-2.208-.333-3.202-.722-3.698-1.389-6.568-4.61-7.616-8.441l-.387-1.444h17.11c4.25 0 7.893 3.61 7.893 7.941V54.2h-.11zm0-37.819v2.11l-1.767-1.11c-1.821-1.166-3.918-1.833-6.126-1.833h-2.925v-2.776c0-1.444.552-2.833 1.6-3.832 1.049-1.055 2.429-1.61 3.919-1.61 3.036.055 5.354 2.498 5.299 5.553v3.498zm24.506 5.942h10.928c2.208 0 4.029 1.833 4.029 4.054 0 2.222-1.821 4.054-4.029 4.054h-10.928v-8.108zm-21.084 8.108v-8.108H122.2v8.108h-17.662zm19.373 6.997l11.149 30.71h-22.795l11.646-30.71zm15.288 46.149c-1.049 3.554-4.305 9.551-14.957 9.551-6.679 0-11.37-2.11-14.019-6.22-.663-.999-1.16-2.11-1.546-3.331l-.441-1.5h31.405l-.442 1.5zm.497-4.943h-31.571v-7.053h31.571v7.053z" fill="#A2CCCF"/></svg>