<svg width="107" height="120" fill="none" xmlns="http://www.w3.org/2000/svg"><path d="M106.22 99.174a8.03 8.03 0 00-4.176-4.594c-1.983-.94-4.175-.992-6.211-.209l-3.915 1.462V1.409c0-.783-.626-1.409-1.41-1.409H30.484c-.366 0-.73.157-.992.418L14.354 15.45a1.426 1.426 0 00-.417.992v58.356H1.409c-.783 0-1.409.626-1.409 1.409v40.766c0 .783.626 1.409 1.41 1.409h21.243c.783 0 1.41-.626 1.41-1.409v-5.272h9.76l.105.052 31.213 7.568c1.827.418 3.654.679 5.481.679a22.5 22.5 0 008.665-1.723l22.392-9.03c3.967-1.618 6.003-6.054 4.541-10.073zM29.021 4.802V14.98h-10.23L29.02 4.802zM2.82 115.563V77.668h18.425v37.895H2.819zm19.834-40.765h-5.898V17.85h13.728c.783 0 1.41-.626 1.41-1.41V2.82h57.154v94.11l-12.005 4.541c-.992.366-2.035.679-3.08.888-1.356.261-2.714.417-4.07.417-.94 0-1.88-.052-2.871-.209l-1.775-.261 1.2-1.305c.783-.887 1.41-1.93 1.775-3.08.73-2.191.47-4.645-.626-6.68-1.096-1.984-2.871-3.393-5.063-3.967l-20.88-5.48c-.104-.053-.26-.053-.364-.053H24.115V76.31c-.052-.887-.679-1.513-1.462-1.513zm77.982 31.787l-22.392 9.03c-2.453.992-5.011 1.514-7.621 1.514a21.22 21.22 0 01-4.802-.574l-31.527-7.673c-.104-.052-.209-.052-.313-.052h-9.917V84.454H41.08l.104.052 20.618 5.429a5.5 5.5 0 012.296 1.252c1.827 1.723 2.245 4.594.888 6.89-1.2 2.036-3.55 3.132-5.794 2.662h-.052l-13.885-3.288a1.478 1.478 0 00-1.722 1.044c-.104.365 0 .73.157 1.096.208.313.47.522.782.626h.262l.104.105.209.052c1.774.418 8.142 1.931 13.153 3.132.731.156 1.514.365 2.245.574 2.348.574 4.802 1.201 7.255 1.462 3.497.313 7.15-.209 10.752-1.566l18.322-6.89a5.222 5.222 0 013.966.156 5.155 5.155 0 012.715 2.923c.991 2.558-.261 5.429-2.819 6.42z" fill="#D3B1A4"/><path d="M40.61 40.974h-6.89c-.783 0-1.41.627-1.41 1.41 0 .782.627 1.409 1.41 1.409h4.228v2.4c0 .784.626 1.41 1.41 1.41.782 0 1.408-.626 1.408-1.41v-2.348l.783-.157c2.819-.47 4.855-2.922 4.855-5.793v-.314c0-3.236-2.662-5.898-5.899-5.898h-2.4a3.03 3.03 0 01-3.028-3.027 3.03 3.03 0 013.027-3.027h6.89c.783 0 1.41-.627 1.41-1.41 0-.783-.627-1.41-1.41-1.41h-4.228v-2.4c0-.783-.626-1.41-1.409-1.41s-1.41.627-1.41 1.41v2.349l-.782.156c-2.819.47-4.855 2.923-4.855 5.794 0 3.236 2.662 5.898 5.899 5.898h2.4a3.03 3.03 0 013.028 3.028v.313a3.03 3.03 0 01-3.027 3.027zm16.806-19.156h16.442c.783 0 1.41-.626 1.41-1.41 0-.782-.627-1.409-1.41-1.409H57.416c-.783 0-1.41.627-1.41 1.41 0 .783.627 1.41 1.41 1.41zm0 12.58h16.442c.783 0 1.41-.627 1.41-1.41 0-.783-.627-1.41-1.41-1.41H57.416c-.783 0-1.41.627-1.41 1.41 0 .783.627 1.41 1.41 1.41zm0 12.579h16.442c.783 0 1.41-.627 1.41-1.41 0-.782-.627-1.409-1.41-1.409H57.416c-.783 0-1.41.627-1.41 1.41 0 .782.627 1.409 1.41 1.409zM33.772 59.556h40.087c.782 0 1.409-.626 1.409-1.41 0-.782-.627-1.409-1.41-1.409H33.773c-.783 0-1.41.627-1.41 1.41 0 .783.574 1.41 1.41 1.41zm-.002 12.579h40.088c.783 0 1.409-.626 1.409-1.409s-.626-1.41-1.41-1.41H33.772c-.783 0-1.41.627-1.41 1.41-.052.783.575 1.41 1.41 1.41z" fill="#D3B1A4"/></svg>