<svg width="139" height="119" fill="none" xmlns="http://www.w3.org/2000/svg"><path d="M136.771 0H1.661C.775 0 0 .72 0 1.661v95.574c0 .886.72 1.661 1.661 1.661h88.32v17.498c0 .609.333 1.163.886 1.44a1.728 1.728 0 001.717-.111l11.241-8.029 11.24 8.029a1.729 1.729 0 001.717.111c.554-.277.886-.831.886-1.44V98.896h19.159c.886 0 1.661-.72 1.661-1.66V1.605A1.705 1.705 0 00136.771 0zm-22.426 113.183l-9.579-6.811c-.554-.388-1.329-.388-1.938 0l-9.58 6.811V96.46l1.495.609c.056 0 .111.055.166.055.056 0 .111.056.167.056 4.319 1.716 9.136 2.104 13.677 1.163a22.757 22.757 0 003.765-1.163c.055 0 .111-.056.166-.056.056 0 .111-.055.166-.055l1.495-.61v16.724zm-.83-20.1c-1.772.94-3.655 1.66-5.648 2.048-1.329.277-2.714.388-4.042.388-3.434 0-6.811-.886-9.857-2.548-4.042-2.27-7.254-5.814-8.97-10.133a20.475 20.475 0 01-1.495-7.697c0-11.24 9.136-20.377 20.377-20.377s20.377 9.136 20.377 20.377c-.111 7.42-4.264 14.453-10.742 17.941zM80.457 78.961c.222 1.218.498 2.492.886 3.655.055.166.11.332.166.443l.498 1.44H24.032l-.166-.831c-.942-4.32-4.375-7.697-8.638-8.638l-.886-.167V23.976l.886-.166c4.319-.94 7.696-4.374 8.638-8.638l.166-.886h90.424l.166.886c.942 4.32 4.375 7.697 8.638 8.638l.831.167v38.816l-1.938-2.436c-4.541-5.593-11.241-8.805-18.384-8.805-13.013 0-23.644 10.632-23.644 23.645.055 1.273.11 2.547.332 3.765zm54.709 16.612h-18.883l2.437-1.938a29.234 29.234 0 002.99-2.88c2.935-3.377 4.928-7.696 5.593-12.126.166-1.052.221-2.05.221-3.101v.11-53.101c0-.886-.72-1.661-1.661-1.661-4.485 0-8.14-3.655-8.14-8.14 0-.886-.72-1.661-1.661-1.661H22.426c-.886 0-1.661.72-1.661 1.66 0 4.486-3.655 8.14-8.14 8.14-.886 0-1.661.72-1.661 1.662v53.989c0 .886.72 1.66 1.661 1.66 4.485 0 8.14 3.655 8.14 8.14 0 .887.72 1.662 1.661 1.662h61.409l.332.498a22.906 22.906 0 004.817 5.26l2.437 1.939H3.378V3.267h131.898v92.307h-.11z" fill="#A2CCCF"/><path d="M115.176 72.262c-.332-1.052-.941-1.938-1.716-2.547-.776-.665-1.772-1.108-2.824-1.274a2.372 2.372 0 01-1.772-1.273 5.579 5.579 0 00-5.039-3.157 5.577 5.577 0 00-5.04 3.157 2.374 2.374 0 01-1.771 1.273c-2.16.332-3.876 1.772-4.54 3.82a5.573 5.573 0 001.439 5.76c.554.553.83 1.329.665 2.048-.388 2.105.498 4.264 2.27 5.538 1.772 1.273 4.042 1.44 5.925.443a2.52 2.52 0 011.107-.277c.388 0 .775.11 1.108.277.83.443 1.716.664 2.658.664 1.162 0 2.325-.387 3.322-1.107 1.772-1.274 2.602-3.378 2.27-5.538-.111-.775.111-1.55.665-2.104 1.384-1.44 1.938-3.654 1.273-5.703zm-3.71 3.378a5.548 5.548 0 00-1.606 4.983c.167.886-.166 1.772-.941 2.27a2.424 2.424 0 01-1.384.443c-.388 0-.72-.11-1.108-.276-1.606-.831-3.654-.831-5.26 0-.831.443-1.717.332-2.492-.167-.72-.553-1.107-1.384-.941-2.27a5.547 5.547 0 00-1.606-4.983c-.665-.665-.886-1.55-.61-2.382.278-.885.998-1.44 1.883-1.605a5.75 5.75 0 004.264-3.101c.388-.83 1.163-1.33 2.104-1.33.942 0 1.717.5 2.105 1.33a5.75 5.75 0 004.263 3.1c.886.111 1.606.72 1.883 1.606.277.886.111 1.773-.554 2.382zm-34.11-20.987c0 .886-.72 1.661-1.66 1.661H50.112c-.886 0-1.661-.72-1.661-1.66 0-.942.72-1.662 1.66-1.662h25.583c.942 0 1.661.72 1.661 1.661zm-7.198 13.29c0 .886-.72 1.66-1.662 1.66h-39.26c-.885 0-1.66-.719-1.66-1.66 0-.886.72-1.662 1.66-1.662h39.26c.942 0 1.662.776 1.662 1.662zm-29.625-13.29c0 .886-.72 1.661-1.661 1.661h-9.635c-.886 0-1.661-.72-1.661-1.66 0-.942.72-1.662 1.66-1.662h9.636c.941 0 1.661.72 1.661 1.661zm68.22-28.073H29.735c-.886 0-1.66.719-1.66 1.66v11.74c0 .885.72 1.66 1.66 1.66h79.018c.886 0 1.661-.72 1.661-1.66V28.24c0-.886-.775-1.66-1.661-1.66zm-1.661 11.738H31.397v-8.416h75.695v8.416z" fill="#A2CCCF"/></svg>