<svg width="56" height="46" fill="none" xmlns="http://www.w3.org/2000/svg"><path d="M50.228 0H20.116c-3.188 0-5.772 2.618-5.772 5.872v3.426H5.796C2.608 9.298 0 11.94 0 15.17v30.096c0 .294.169.563.435.685.096.049.193.049.29.049a.67.67 0 00.482-.196l7.052-6.63h27.625c3.188 0 5.796-2.619 5.796-5.873v-3.426h6.061l7.052 6.631a.762.762 0 00.483.196c.096 0 .193-.024.29-.049a.728.728 0 00.434-.685V5.872C56 2.618 53.416 0 50.228 0zm-9.997 33.325c0 2.423-1.956 4.405-4.347 4.405H7.97a.67.67 0 00-.483.196L1.45 43.578V15.146c0-2.423 1.956-4.405 4.347-4.405h30.088c2.391 0 4.347 1.982 4.347 4.405v18.179zm14.32.98l-6.037-5.677a.761.761 0 00-.483-.196H41.68V15.146c0-3.23-2.608-5.873-5.796-5.873H15.793v-3.4c0-2.423 1.932-4.405 4.323-4.405h30.112c2.391 0 4.347 1.958 4.347 4.404v28.432h-.024z" fill="#fff"/></svg>