<svg width="100" height="100" fill="none" xmlns="http://www.w3.org/2000/svg"><path d="M80.209 30.709L62.853 68.943l-.043.218v.217c.087 6.438 8.264 11.483 18.573 11.483 10.31 0 18.487-5.045 18.574-11.483v-.348l-.044-.13c0-.044 0-.044-.043-.088L82.514 30.58v-5.655h.653c1.566 0 2.87-1.261 2.87-2.827v-.261c0-1.392-1-2.567-2.392-2.828L54.59 14.311V10.7l.13-.131a6.306 6.306 0 001.61-4.22c0-3.48-2.828-6.35-6.35-6.35-3.48 0-6.351 2.827-6.351 6.35 0 1.566.565 3.045 1.61 4.22l.13.13v3.437L16.31 18.965c-1.392.217-2.392 1.392-2.392 2.827v.261a2.822 2.822 0 002.827 2.827h.653v5.655l-.044.087L.044 68.725c0 .044 0 .044-.044.088v.435C.087 75.684 8.264 80.73 18.573 80.73c10.31 0 18.487-5.046 18.574-11.483v-.088l-.087-.434v-.044l-17.4-38.234v-5.655h25.751v36.451l-.26.174c-.914.522-1.48 1.479-1.48 2.48V88.43l-10.744 3.349a4.582 4.582 0 00-3.218 4.393v1.653h-14.92c-.609 0-1.087.479-1.087 1.088 0 .609.478 1.087 1.087 1.087h70.509c.609 0 1.087-.478 1.087-1.087 0-.61-.478-1.088-1.087-1.088h-14.92v-1.653c0-2-1.305-3.784-3.218-4.393l-10.744-3.35V63.898c0-1.044-.566-2-1.479-2.479l-.261-.174v-36.45h25.75v5.654l-.217.261zM49.89 2.262c2.262 0 4.133 1.87 4.133 4.132 0 2.262-1.87 4.132-4.133 4.132-2.262 0-4.132-1.87-4.132-4.132 0-2.262 1.87-4.132 4.132-4.132zm2.393 10.048V61.2h-4.785V12.31l.696.174a6.577 6.577 0 003.436 0l.653-.174zm-6.525 51.718c0-.348.304-.653.652-.653h7.004c.348 0 .652.305.652.653v24.228h-8.264V64.028h-.044zm-11.266 7.09c-1.522 4.393-8.308 7.568-16.05 7.568-7.743 0-14.528-3.175-16.05-7.568l-.262-.696h32.623l-.26.696zm-.304-2.914H2.653L18.4 33.536l15.79 34.668zM16.703 22.749a.669.669 0 01-.652-.652v-.261c0-.305.217-.566.522-.653l28.708-4.785v6.351H16.703zM54.98 90.474l11.353 3.567a2.388 2.388 0 011.697 2.305v1.566H31.797v-1.566c0-1.044.652-1.957 1.696-2.305l11.353-3.567H54.98zm42.41-19.356c-1.522 4.393-8.308 7.568-16.05 7.568-7.786 0-14.528-3.175-16.05-7.568l-.262-.696h32.623l-.26.696zM54.502 22.749v-6.177l28.708 4.611a.659.659 0 01.566.653v.26a.669.669 0 01-.653.653H54.502zM81.34 33.493L97.086 68.16H65.594L81.34 33.493z" fill="#fff"/></svg>