<svg width="122" height="100" fill="none" xmlns="http://www.w3.org/2000/svg"><path d="M113.475 12.7h-19.05a2.917 2.917 0 01-2.908-2.908c0-5.38-4.41-9.792-9.791-9.792H7.659C3.442 0 0 3.442 0 7.659V92.34C0 96.558 3.442 100 7.659 100h105.816c4.218 0 7.659-3.442 7.659-7.659V20.36c0-4.218-3.441-7.659-7.659-7.659zM81.725 2.618c3.927 0 7.126 3.199 7.126 7.125 0 .679.146 1.357.388 1.987l.34.921H77.46a2.917 2.917 0 01-2.908-2.908c0-2.23-.728-4.314-2.133-6.059l-.873-1.066h10.18zm-16.916 0c3.926 0 7.125 3.199 7.125 7.125 0 .679.145 1.357.388 1.987l.34.921h-12.12a2.917 2.917 0 01-2.907-2.908c0-2.23-.728-4.314-2.133-6.059l-.873-1.066h10.18zm-16.966 0c3.926 0 7.125 3.199 7.125 7.125 0 .679.146 1.357.388 1.987l.34.921H43.577a2.917 2.917 0 01-2.908-2.908V7.61a7.862 7.862 0 00-1.115-4.023l-.63-1.018h8.919v.049zm70.674 89.723c0 2.763-2.279 5.041-5.042 5.041H7.659c-2.763 0-5.041-2.278-5.041-5.04V7.658c0-2.763 2.278-5.041 5.04-5.041h25.4a5.037 5.037 0 015.042 5.04v2.134a5.575 5.575 0 005.574 5.574h69.85c2.763 0 5.041 2.278 5.041 5.041V92.34h-.048z" fill="#A2CCCF"/><path d="M16.093 32.235h27.533c.727 0 1.308-.582 1.308-1.31 0-.726-.581-1.308-1.308-1.308H16.093c-.727 0-1.309.582-1.309 1.309s.582 1.309 1.309 1.309zM58.457 50.8H16.14c-.727 0-1.309.582-1.309 1.309s.582 1.308 1.309 1.308h42.317c.727 0 1.309-.581 1.309-1.308 0-.727-.582-1.31-1.31-1.31zm0-10.616H16.14c-.727 0-1.309.582-1.309 1.309s.582 1.309 1.309 1.309h42.317c.727 0 1.309-.582 1.309-1.31 0-.726-.582-1.308-1.31-1.308zm20.117 4.266a2.379 2.379 0 00-2.375 2.375 2.379 2.379 0 002.375 2.375 2.379 2.379 0 002.376-2.375 2.379 2.379 0 00-2.376-2.375z" fill="#A2CCCF"/><path d="M78.576 35.967c-5.962 0-10.858 4.848-10.858 10.858a10.84 10.84 0 0010.858 10.858c5.962 0 10.858-4.847 10.858-10.858 0-6.01-4.896-10.858-10.858-10.858zm0 19.05c-4.508 0-8.192-3.684-8.192-8.192s3.684-8.192 8.192-8.192 8.192 3.684 8.192 8.192-3.684 8.192-8.192 8.192z" fill="#A2CCCF"/></svg>