<svg width="101" height="100" fill="none" xmlns="http://www.w3.org/2000/svg"><g clip-path="url(#clip0)" fill="#fff"><path d="M43.956 46.74v8.869h2.392v-8.87h-2.392zm45-33.088h10c.653 0 1.174-.522 1.174-1.174 0-.652-.521-1.174-1.173-1.174H67.522V2.391h31.434c.653 0 1.174-.521 1.174-1.174C100.13.565 99.609 0 98.957 0H1.347C.697 0 .13.522.13 1.174a1.17 1.17 0 001.174 1.174h31.174v8.87H1.348c-.652 0-1.174.521-1.174 1.173s.522 1.174 1.174 1.174h9.739v72.74h-9.74a1.17 1.17 0 00-1.173 1.173 1.17 1.17 0 001.174 1.174h97.609c.652 0 1.173-.522 1.173-1.174 0-.652-.521-1.174-1.173-1.174h-10V13.652zM34.87 2.392h30.26v17.912c0 8.348-6.782 15.13-15.13 15.13s-15.13-6.782-15.13-15.13V2.391zM21.088 86.347h-7.652V13.652h7.652v72.696zm22.87 0H23.477V13.652h9.044v6.652c0 7.174 4.304 13.522 10.956 16.218l.478.217v49.609zm10 0h-7.653V37.435l.913.13c1.913.305 3.87.305 5.783-.043l.913-.174v49h.044zm22.608 0H56.348v-49.74l.478-.217a17.512 17.512 0 0010.696-16.13v-6.609h9.043v72.696zm10 0h-7.652V13.652h7.652v72.696zm13.564 12.479c0 .652-.521 1.174-1.173 1.174H1.347a1.169 1.169 0 01-1.173-1.174 1.17 1.17 0 011.174-1.174h97.609c.652-.043 1.173.522 1.173 1.174z"/><path d="M55.87 25.74l-1.957-5.522v-.044c-.26-1.217.044-2.522.783-3.435a5.787 5.787 0 001.26-3.608A5.903 5.903 0 0054 8.739a5.921 5.921 0 00-3.913-1.478c-.217 0-.435 0-.652.043-2.652.305-4.826 2.435-5.174 5.13-.174 1.523.217 3.044 1.13 4.218.783 1.044 1.087 2.305.826 3.522l-.043.13-1.957 5.479c-.13.348-.087.782.13 1.087.218.304.566.521.957.521h9.479c.39 0 .739-.173.956-.521.218-.348.261-.74.13-1.13zm-4.305-4.87c0 .043.044.087.044.13l1.434 3.957h-6.087l1.435-4c0-.044.044-.087.044-.13.435-1.914 0-3.957-1.218-5.61-.434-.608-.695-1.347-.695-2.086 0-.13 0-.305.043-.435.174-1.565 1.479-2.87 3.044-3.044 1-.13 2 .218 2.739.87a3.493 3.493 0 011.174 2.609c0 .782-.261 1.521-.74 2.13-1.217 1.609-1.651 3.609-1.217 5.609z"/></g><defs><clipPath id="clip0"><path fill="#fff" d="M0 0h100.13v100H0z"/></clipPath></defs></svg>