<svg width="60" height="63" fill="none" xmlns="http://www.w3.org/2000/svg"><path d="M58.666 14.932l-.02-.077C57.194 9.003 50.673 2.73 44.687 1.41l-.077-.019a77.318 77.318 0 00-29.204 0l-.076.02C9.343 2.71 2.82 9.002 1.367 14.854l-.019.077a56.928 56.928 0 000 24.633l.02.076c1.396 5.604 7.42 11.59 13.196 13.235v6.54c0 2.372 2.888 3.52 4.513 1.818l6.617-6.885c1.435.076 2.87.133 4.304.133 4.876 0 9.753-.459 14.611-1.377l.077-.019c5.986-1.3 12.526-7.592 13.96-13.445l.02-.076a57.524 57.524 0 000-24.633zm-5.24 23.428c-.976 3.825-5.929 8.568-9.85 9.448a73.19 73.19 0 01-15.53 1.262c-.095 0-.21.038-.267.115-.765.746-4.858 4.953-4.858 4.953l-5.144 5.279a.6.6 0 01-1.033-.421V48.17a.386.386 0 00-.306-.363c-3.94-.88-8.893-5.623-9.85-9.448a52.016 52.016 0 010-22.261c.976-3.825 5.93-8.569 9.85-9.448a71.859 71.859 0 0127.12 0c3.939.88 8.892 5.623 9.849 9.448a51.714 51.714 0 01.019 22.261z" fill="#fff"/><path d="M38.566 43.37c-.612-.19-1.186-.305-1.721-.535-5.547-2.295-10.653-5.278-14.707-9.83-2.296-2.582-4.093-5.508-5.623-8.606-.727-1.473-1.339-2.984-1.951-4.514-.574-1.377.268-2.811 1.147-3.844.823-.975 1.875-1.721 3.022-2.276.9-.42 1.779-.19 2.43.574 1.414 1.645 2.715 3.366 3.767 5.26.65 1.166.478 2.6-.708 3.404-.287.191-.535.42-.803.63-.23.192-.46.383-.612.651-.287.478-.306 1.033-.115 1.55 1.454 3.977 3.883 7.056 7.88 8.72.63.268 1.281.574 2.027.497 1.243-.153 1.626-1.491 2.505-2.199.842-.688 1.932-.707 2.83-.115a50.652 50.652 0 012.678 1.817c.861.612 1.722 1.205 2.506 1.913.765.67 1.032 1.549.593 2.467-.785 1.664-1.932 3.06-3.577 3.959-.478.23-1.033.306-1.568.478-.612-.191.535-.172 0 0zm-8.55-31.518c7.268.21 13.216 5.03 14.497 12.202.21 1.224.287 2.467.383 3.71.038.517-.249 1.014-.823 1.033-.573 0-.841-.478-.88-.994-.076-1.033-.133-2.066-.267-3.098-.746-5.413-5.068-9.888-10.443-10.844-.803-.153-1.644-.192-2.467-.268-.516-.057-1.204-.077-1.32-.727-.095-.535.364-.975.88-.994.154-.02.306-.02.44-.02 0 0-.133 0 0 0z" fill="#fff"/><path d="M41.052 26.158c-.02.096-.02.306-.077.497-.191.727-1.3.823-1.55.077-.076-.21-.095-.46-.095-.708 0-1.53-.344-3.079-1.109-4.418a8.252 8.252 0 00-3.442-3.232c-.861-.42-1.798-.688-2.735-.841-.421-.077-.823-.115-1.243-.173-.498-.076-.765-.382-.746-.88.019-.458.363-.803.86-.764 1.664.095 3.27.459 4.762 1.243 3.003 1.587 4.724 4.112 5.24 7.478.02.153.058.306.077.459.02.382.02.765.058 1.262-.02.096-.039-.497 0 0z" fill="#fff"/><path d="M36.538 25.986c-.612.02-.937-.325-.994-.88-.039-.382-.077-.784-.173-1.166-.19-.746-.573-1.434-1.205-1.893a3.56 3.56 0 00-.975-.479c-.44-.133-.899-.095-1.358-.21-.478-.115-.746-.516-.67-.956.077-.42.479-.727.919-.708 2.811.21 4.82 1.664 5.106 4.973.02.23.038.478 0 .707-.095.402-.382.593-.65.612-.612 0 .268-.019 0 0z" fill="#fff"/></svg>