<svg width="60" height="61" fill="none" xmlns="http://www.w3.org/2000/svg"><path d="M0 60.076l4.199-14.934a29.954 29.954 0 01-4.123-15.18C.076 13.432 13.508 0 30.038 0S60 13.433 60 29.962c0 16.53-13.432 29.962-29.962 29.962a29.874 29.874 0 01-14.649-3.819L0 60.076zm16.188-9.424l.911.551a24.82 24.82 0 0012.939 3.63c13.717 0 24.89-11.153 24.89-24.89s-11.153-24.89-24.89-24.89c-13.736 0-24.89 11.153-24.89 24.89 0 4.788 1.369 9.424 3.934 13.433l.627.968-2.413 8.588 8.892-2.28z" fill="#fff"/><path d="M21.621 16.017l-1.938-.114a2.335 2.335 0 00-1.672.57c-.95.817-2.45 2.394-2.906 4.465-.684 3.078.38 6.84 3.134 10.601 2.755 3.762 7.904 9.785 17.005 12.369 2.926.836 5.244.266 7.01-.874 1.407-.893 2.376-2.356 2.736-3.99l.304-1.444a.998.998 0 00-.57-1.12l-6.573-3.022a1.004 1.004 0 00-1.216.304l-2.584 3.344a.74.74 0 01-.836.247c-1.767-.627-7.676-3.097-10.925-9.348-.133-.265-.114-.607.095-.835l2.47-2.85a1.03 1.03 0 00.171-1.064l-2.83-6.631a1.03 1.03 0 00-.875-.608z" fill="#fff"/></svg>