<svg width="110" height="120" fill="none" xmlns="http://www.w3.org/2000/svg"><path d="M75.696 16.875c0-.268 0-.482.054-.75h-2.68c0 .268-.053.482-.053.75 0 .75.107 1.5.268 2.197h2.785a6.979 6.979 0 01-.375-2.197zm32.84 44.304H84.428V45.536a92.91 92.91 0 01-1.553 2.678c-.429-.696-.857-1.5-1.393-2.303v59.732c0 3.643 1.393 7.179 3.91 9.857l1.554 1.661H14.411c-6.322 0-11.518-5.143-11.518-11.518V19.125h66c-.16-.857-.268-1.553-.268-2.196v-.75H1.446A1.44 1.44 0 000 17.625v87.964C0 113.518 6.482 120 14.41 120h81.751a14.395 14.395 0 009.803-4.446 14.29 14.29 0 004.018-9.965v-42.91c.054-.804-.643-1.5-1.446-1.5zm-1.447 44.41c0 6.215-5.036 11.358-11.303 11.518h-.054c-.803 0-1.553-.107-2.357-.268-5.197-1.178-9-5.892-9-11.25V64.125h22.661v41.464h.053zm-22.66-78.964v-2.732a7.275 7.275 0 01-1.554.16c-.482 0-.91-.053-1.393-.106v2.732c.429.053.91.107 1.393.107.536-.054 1.071-.107 1.553-.16z" fill="#D3B1A4"/><path d="M58.554 27.643H13.5a1.44 1.44 0 00-1.446 1.446v11.893A1.44 1.44 0 0013.5 42.43h45.054A1.44 1.44 0 0060 40.981v-11.84c0-.803-.643-1.5-1.446-1.5zm-1.5 11.893H14.947v-8.947h42.107v8.947zM13.5 53.678h24.43a1.44 1.44 0 001.446-1.446 1.44 1.44 0 00-1.446-1.446H13.5a1.44 1.44 0 00-1.446 1.446A1.44 1.44 0 0013.5 53.68zm0 10.447h24.43a1.44 1.44 0 001.446-1.446 1.44 1.44 0 00-1.446-1.447H13.5a1.44 1.44 0 00-1.446 1.447 1.44 1.44 0 001.446 1.446zm0 10.446h24.43a1.44 1.44 0 001.446-1.446 1.44 1.44 0 00-1.446-1.447H13.5a1.44 1.44 0 00-1.446 1.447c0 .75.643 1.446 1.446 1.446zm57-23.785H49.608a1.44 1.44 0 00-1.447 1.446v20.84a1.44 1.44 0 001.447 1.446H70.5a1.44 1.44 0 001.447-1.447V52.232a1.44 1.44 0 00-1.447-1.446zM69 71.625H51.054V53.678H69v17.947zm1.5 12H12.534a1.44 1.44 0 00-1.446 1.446 1.44 1.44 0 001.446 1.447h57.911a1.44 1.44 0 001.446-1.447c.054-.75-.589-1.446-1.392-1.446zm0 12.053H12.534a1.44 1.44 0 00-1.446 1.447 1.44 1.44 0 001.446 1.446h57.911a1.44 1.44 0 001.446-1.446c.054-.804-.589-1.447-1.392-1.447zM82.875 7.072c-5.197 0-9.429 4.017-9.804 9.107 0 .268-.053.482-.053.75 0 .75.107 1.5.267 2.196.911 3.91 4.179 6.964 8.197 7.554.428.053.91.107 1.393.107.535 0 1.071-.054 1.553-.107a9.86 9.86 0 008.304-9.75c0-5.465-4.447-9.857-9.857-9.857zm1.553 16.82a7.27 7.27 0 01-1.553.162c-.482 0-.911-.054-1.393-.107-2.572-.483-4.66-2.358-5.464-4.822a7.513 7.513 0 01-.322-2.196c0-.268 0-.482.054-.75.375-3.59 3.428-6.429 7.125-6.429a7.179 7.179 0 017.178 7.179c0 3.375-2.41 6.268-5.625 6.964z" fill="#D3B1A4"/><path d="M82.875 0C73.821 0 66.375 7.179 66 16.179v.75c0 .642.107 1.392.214 2.196 1.822 9.59 13.447 28.928 15.268 31.982.107.214.214.322.214.375l1.125 1.875 1.125-1.875c.054-.107.215-.321.429-.696 2.571-4.233 15.321-25.715 15.321-33.857C99.75 7.607 92.196 0 82.875 0zm0 48.16c-.429-.696-.857-1.5-1.393-2.303-4.446-7.714-11.143-20.09-12.59-26.732-.16-.857-.267-1.554-.267-2.196v-.75c.375-7.5 6.59-13.5 14.196-13.5 7.822 0 14.197 6.375 14.197 14.196 0 5.571-7.607 19.928-12.643 28.607-.482 1.018-1.018 1.875-1.5 2.679z" fill="#D3B1A4"/></svg>